<?xml version="1.0" standalone="no"?>
<!DOCTYPE svg PUBLIC "-//W3C//DTD SVG 20010904//EN"
 "http://www.w3.org/TR/2001/REC-SVG-20010904/DTD/svg10.dtd">
<svg version="1.0" xmlns="http://www.w3.org/2000/svg"
 width="1500.000000pt" height="3334.000000pt" viewBox="0 0 1500.000000 3334.000000"
 preserveAspectRatio="xMidYMid meet">

<g transform="translate(0.000000,3334.000000) scale(0.100000,-0.100000)"
fill="#000000" stroke="none">
<path d="M11650 18581 c0 -6 5 -13 10 -16 6 -3 10 -22 10 -41 0 -19 5 -34 10
-34 6 0 10 -8 10 -18 0 -10 16 -35 35 -56 27 -30 35 -34 35 -20 0 26 -16 48
-28 40 -14 -9 -22 18 -15 57 7 43 -19 97 -47 97 -11 0 -20 -4 -20 -9z"/>
<path d="M11653 18453 c-18 -6 -16 -23 1 -23 17 0 30 16 19 23 -5 2 -14 2 -20
0z"/>
<path d="M11756 18192 c-2 -4 -1 -14 5 -22 7 -12 9 -10 9 8 0 23 -5 28 -14 14z"/>
<path d="M11789 18113 c-1 -5 -1 -11 0 -15 0 -5 -3 -8 -9 -8 -5 0 -10 -4 -10
-10 0 -5 7 -10 15 -10 10 0 14 9 13 25 -2 24 -7 33 -9 18z"/>
<path d="M11782 18010 c-6 -11 -9 -27 -5 -37 6 -14 9 -10 14 17 9 42 7 45 -9
20z"/>
<path d="M11787 17878 c-6 -23 8 -58 24 -58 17 0 22 31 9 56 -16 30 -26 30
-33 2z"/>
<path d="M11828 17594 c3 -15 8 -22 14 -16 9 9 1 42 -12 42 -4 0 -5 -12 -2
-26z"/>
<path d="M11800 17569 c0 -6 9 -23 21 -37 l21 -27 -27 -3 c-36 -5 -50 -43 -37
-102 11 -48 13 -65 12 -105 0 -14 0 -36 0 -50 0 -14 1 -40 1 -57 0 -18 -3 -67
-7 -108 -3 -41 -3 -72 1 -68 12 11 35 142 35 201 0 34 7 71 16 89 23 45 21
220 -4 254 -18 25 -32 31 -32 13z"/>
<path d="M11725 17430 c3 -5 8 -10 11 -10 2 0 4 5 4 10 0 6 -5 10 -11 10 -5 0
-7 -4 -4 -10z"/>
<path d="M11672 17375 c2 -11 9 -20 15 -20 18 0 42 -36 43 -62 0 -37 17 -26
23 14 7 42 -5 63 -37 63 -12 0 -28 6 -35 13 -10 10 -12 8 -9 -8z"/>
<path d="M11730 17111 c0 -6 5 -13 10 -16 6 -3 10 1 10 9 0 9 -4 16 -10 16 -5
0 -10 -4 -10 -9z"/>
<path d="M10710 17041 c0 -5 5 -13 10 -16 6 -3 10 -2 10 4 0 5 -4 13 -10 16
-5 3 -10 2 -10 -4z"/>
<path d="M11736 16901 c-4 -7 -5 -15 -2 -18 9 -9 19 4 14 18 -4 11 -6 11 -12
0z"/>
<path d="M9060 16833 l-22 -28 24 -3 c12 -2 28 -8 35 -13 15 -13 29 9 14 24
-6 6 -11 19 -11 29 0 26 -15 22 -40 -9z"/>
<path d="M8562 16841 c2 -7 7 -12 11 -12 12 1 9 15 -3 20 -7 2 -11 -2 -8 -8z"/>
<path d="M11727 16833 c-4 -3 -7 -11 -7 -17 0 -6 5 -5 12 2 6 6 9 14 7 17 -3
3 -9 2 -12 -2z"/>
<path d="M8745 16800 c-9 -15 4 -30 20 -23 12 4 15 -4 15 -33 0 -43 -13 -70
-28 -60 -5 3 -15 -1 -22 -9 -7 -8 -22 -14 -35 -13 -18 2 -23 8 -22 28 2 18 -3
25 -15 24 -10 0 -34 -1 -54 -2 -27 -2 -35 -6 -32 -19 2 -9 13 -17 26 -18 13
-1 30 -9 39 -18 15 -15 15 -18 -2 -37 -10 -11 -23 -20 -29 -20 -6 0 -5 5 2 12
16 16 15 28 0 28 -7 0 -38 -25 -68 -56 -30 -31 -67 -63 -82 -72 -16 -9 -28
-20 -28 -24 0 -4 -4 -8 -10 -8 -21 0 -9 31 15 40 33 13 53 54 35 74 -9 11 -17
13 -30 6 -10 -6 -28 -10 -39 -10 -12 0 -21 -7 -21 -15 0 -8 -11 -22 -25 -31
-24 -15 -29 -15 -63 -1 -20 9 -49 18 -65 22 -24 5 -26 8 -17 25 28 53 -47 53
-102 1 -21 -20 -38 -41 -38 -48 0 -6 -5 -15 -11 -18 -12 -8 -59 40 -59 59 0
18 -27 39 -39 31 -7 -4 -6 -13 2 -26 10 -17 9 -22 -6 -33 -9 -7 -22 -27 -28
-44 -8 -24 -24 -38 -65 -58 -29 -14 -56 -35 -59 -45 -9 -26 -25 -24 -25 4 0
13 -6 32 -14 43 -20 27 -35 8 -29 -38 4 -31 9 -37 31 -40 14 -2 34 -15 45 -30
24 -32 17 -49 -9 -23 -16 15 -18 15 -26 1 -5 -9 -5 -23 2 -35 14 -27 13 -36
-5 -21 -20 16 -38 2 -31 -25 6 -25 -16 -51 -34 -40 -5 3 -10 19 -10 35 0 35
-13 45 -39 30 -25 -13 -38 4 -21 25 10 12 9 16 -6 21 -11 4 -27 14 -36 22 -17
14 -18 13 -18 -10 0 -13 11 -35 25 -48 14 -13 25 -28 25 -33 0 -15 -33 -36
-56 -37 -22 0 -64 -38 -64 -58 0 -22 -15 -13 -55 32 l-39 44 -27 -34 c-14 -18
-30 -30 -34 -26 -4 4 -4 -9 0 -29 5 -26 2 -39 -9 -48 -9 -8 -16 -22 -16 -32 0
-11 -5 -28 -12 -39 -20 -31 2 -37 27 -7 28 32 34 33 74 10 20 -12 31 -26 31
-40 0 -16 6 -23 19 -23 23 0 31 19 31 75 0 24 5 47 10 50 6 4 8 15 5 24 -10
34 56 72 98 57 32 -12 35 -31 6 -47 -15 -8 -19 -8 -15 0 11 17 -10 13 -35 -8
-28 -22 -18 -41 11 -23 16 10 20 10 20 -2 0 -8 14 -17 31 -21 23 -5 34 -3 44
12 8 10 14 14 14 8 1 -21 -35 -53 -66 -60 -26 -5 -32 -3 -38 14 -8 26 -17 26
-40 1 -18 -20 -18 -21 1 -34 11 -9 21 -10 25 -5 3 6 11 3 19 -6 7 -9 21 -13
31 -10 12 4 19 1 19 -6 0 -7 11 -2 25 11 44 42 89 30 169 -45 37 -35 45 -65 8
-32 -10 10 -25 17 -32 17 -8 0 -23 8 -34 19 -31 28 -61 34 -76 16 -7 -8 -24
-15 -39 -15 -15 0 -31 -4 -36 -9 -6 -5 -23 -11 -38 -13 -27 -3 -27 -4 -11 -26
15 -22 17 -22 40 -8 13 9 28 16 34 16 6 0 28 11 50 25 l39 25 11 -21 c7 -11
27 -27 45 -35 19 -7 36 -18 39 -23 3 -5 22 -12 41 -15 40 -8 49 -40 15 -51
-11 -3 -20 -13 -20 -21 0 -20 29 -17 37 4 4 9 14 23 22 30 14 11 14 14 -6 28
-30 21 -29 50 0 58 15 3 29 20 41 50 21 51 39 60 94 52 24 -4 47 -1 66 9 35
19 36 19 36 0 0 -8 -3 -15 -7 -15 -5 0 -16 -13 -25 -30 -18 -31 -9 -50 12 -25
7 9 21 13 31 10 9 -3 29 -3 44 1 22 5 26 11 22 30 -3 20 1 25 22 30 65 13 62
15 55 -20 -7 -39 8 -49 53 -37 34 9 41 35 17 62 -17 19 -17 20 0 37 16 16 17
16 11 0 -6 -15 -1 -17 42 -14 36 2 49 7 51 19 2 10 -3 17 -11 17 -14 0 -32 68
-22 79 3 2 20 -10 39 -28 26 -25 36 -30 42 -19 5 7 7 20 6 29 -3 19 22 42 49
46 27 4 24 -7 -8 -33 -23 -19 -26 -25 -15 -36 11 -11 18 -8 41 20 15 17 34 32
43 32 9 0 21 7 28 15 11 14 14 13 25 -1 9 -13 14 -14 19 -5 4 6 2 19 -5 27
-11 13 -10 18 4 25 9 6 17 21 17 34 0 15 6 25 14 25 7 0 21 12 31 26 13 20 19
23 25 14 5 -9 19 -11 40 -6 18 3 38 1 45 -4 9 -8 12 -7 11 2 -2 22 19 20 22
-2 2 -11 7 -20 11 -20 18 0 61 50 61 71 0 18 4 20 23 14 12 -4 36 -8 52 -9 24
-1 30 3 30 19 0 16 -6 20 -29 18 -16 -1 -42 7 -57 18 -18 13 -30 16 -34 9 -5
-8 -13 -6 -26 6 -23 21 -24 33 -3 49 14 10 14 15 4 34 -6 13 -9 33 -6 46 8 31
-17 53 -40 35 -12 -11 -18 -10 -31 3 -15 15 -14 17 11 27 15 5 34 10 42 10 17
0 17 10 0 32 -16 22 -82 22 -91 0 -8 -22 -45 14 -45 45 0 44 -39 88 -55 63z
m42 -209 c-10 -12 -13 -11 -16 5 -2 10 -7 24 -12 31 -7 7 -5 13 3 16 20 6 39
-34 25 -52z m-107 0 c0 -11 -9 -23 -21 -26 -28 -9 -33 -1 -17 24 16 26 38 27
38 2z m190 -36 c0 -8 -4 -15 -9 -15 -13 0 -22 16 -14 24 11 11 23 6 23 -9z
m-132 -32 c2 -14 -4 -26 -17 -32 -17 -9 -22 -7 -34 18 -17 35 -12 43 23 39 17
-2 26 -10 28 -25z m-608 -2 c0 -6 -4 -13 -10 -16 -5 -3 -10 1 -10 9 0 9 5 16
10 16 6 0 10 -4 10 -9z m-30 -25 c0 -8 -13 -24 -29 -35 -24 -17 -30 -18 -34
-7 -4 9 6 23 26 35 38 25 37 25 37 7z m454 -32 c4 -11 1 -14 -11 -12 -10 2
-19 11 -21 21 -4 21 24 13 32 -9z m371 -14 c3 -5 1 -10 -4 -10 -6 0 -11 5 -11
10 0 6 2 10 4 10 3 0 8 -4 11 -10z m-1025 -26 c0 -4 -7 -12 -16 -19 -14 -9
-14 -16 -5 -33 13 -25 3 -29 -30 -11 -19 10 -19 10 1 40 19 26 50 40 50 23z
m230 2 c0 -14 -60 -68 -71 -64 -10 4 -4 14 20 36 29 28 51 40 51 28z m-150
-51 c12 4 20 2 20 -4 0 -6 9 -11 21 -11 12 0 19 -5 16 -12 -2 -7 -13 -12 -23
-10 -10 2 -39 7 -63 10 -36 6 -45 11 -46 29 -1 21 0 21 27 7 16 -8 38 -12 48
-9z m770 -20 c-12 -15 -30 -12 -30 5 0 8 31 19 39 13 2 -1 -2 -9 -9 -18z
m-140 7 c0 -15 -38 -44 -51 -40 -9 3 -6 11 9 26 22 22 42 29 42 14z m-662 -65
c2 -12 -1 -15 -12 -11 -19 7 -22 38 -3 32 6 -3 13 -12 15 -21z m548 -25 c-12
-11 -18 7 -10 30 l8 23 4 -23 c2 -13 1 -26 -2 -30z m-381 18 c3 -5 -3 -10 -14
-10 -12 0 -21 5 -21 10 0 6 6 10 14 10 8 0 18 -4 21 -10z m335 -10 c0 -5 -2
-10 -4 -10 -3 0 -8 5 -11 10 -3 6 -1 10 4 10 6 0 11 -4 11 -10z m-405 -40 c9
-15 -16 -43 -27 -32 -10 10 0 42 12 42 5 0 12 -5 15 -10z m-199 -17 c24 -32
17 -79 -17 -112 -47 -48 -68 -38 -28 13 13 17 19 35 15 49 -5 23 2 67 12 67 2
0 11 -8 18 -17z m-76 -48 c19 -23 1 -34 -44 -27 -42 8 -59 27 -29 35 36 9 61
7 73 -8z m188 -11 c12 -8 22 -20 22 -26 0 -6 -8 -4 -18 5 -23 21 -32 13 -32
-31 0 -29 -3 -33 -17 -27 -10 5 -26 8 -35 9 -24 1 -23 8 2 24 12 7 18 17 15
23 -11 16 3 39 22 39 10 0 29 -7 41 -16z m186 -25 c-8 -13 -24 -1 -24 18 0 13
3 13 15 3 8 -7 12 -16 9 -21z m-94 -29 c0 -5 -4 -10 -10 -10 -5 0 -10 5 -10
10 0 6 5 10 10 10 6 0 10 -4 10 -10z m400 -21 c0 -5 -4 -9 -10 -9 -5 0 -10 7
-10 16 0 8 5 12 10 9 6 -3 10 -10 10 -16z m-162 -8 c3 -8 -1 -12 -9 -9 -7 2
-15 10 -17 17 -3 8 1 12 9 9 7 -2 15 -10 17 -17z m-280 -13 c-5 -15 -23 -11
-26 6 -2 11 2 14 13 10 9 -4 14 -11 13 -16z m242 -3 c0 -8 -4 -15 -9 -15 -13
0 -22 16 -14 24 11 11 23 6 23 -9z m-474 -23 c-4 -3 -14 2 -24 12 -16 18 -16
18 6 6 13 -6 21 -14 18 -18z m119 -82 c3 -5 1 -10 -4 -10 -6 0 -11 5 -11 10 0
6 2 10 4 10 3 0 8 -4 11 -10z"/>
<path d="M9166 16785 c-9 -23 19 -54 34 -39 8 8 5 18 -8 34 -17 21 -19 22 -26
5z"/>
<path d="M11721 16764 c0 -11 3 -14 6 -6 3 7 2 16 -1 19 -3 4 -6 -2 -5 -13z"/>
<path d="M8318 16736 c-17 -12 -25 -36 -12 -36 10 0 94 40 94 45 0 11 -66 3
-82 -9z"/>
<path d="M11530 16681 c0 -6 5 -13 10 -16 6 -3 10 1 10 9 0 9 -4 16 -10 16 -5
0 -10 -4 -10 -9z"/>
<path d="M8445 16669 c-4 -6 -5 -13 -2 -16 7 -7 27 6 27 18 0 12 -17 12 -25
-2z"/>
<path d="M7940 16661 c0 -5 7 -14 15 -21 13 -10 15 -9 15 9 0 12 -6 21 -15 21
-8 0 -15 -4 -15 -9z"/>
<path d="M9031 16643 c-7 -7 -22 -13 -33 -13 -18 0 -20 -2 -9 -12 6 -7 31 -13
54 -13 34 0 44 -4 52 -23 13 -29 29 -23 33 12 2 15 10 30 18 33 8 3 14 11 14
18 0 16 -113 14 -129 -2z"/>
<path d="M9210 16640 c0 -5 -10 -12 -23 -15 -28 -7 -53 -43 -39 -57 6 -6 20
-5 38 5 69 34 106 29 84 -13 -10 -18 -7 -22 22 -34 23 -10 37 -11 45 -4 9 7
14 6 19 -5 7 -20 -3 -37 -21 -37 -8 0 -19 -9 -25 -19 -18 -34 -11 -43 14 -17
13 15 31 26 39 26 20 0 51 45 42 60 -4 6 -13 9 -20 6 -8 -3 -18 1 -24 8 -7 8
-25 16 -42 20 -25 5 -29 9 -24 26 4 11 2 20 -4 20 -6 0 -11 10 -11 21 0 16 -3
19 -13 11 -8 -7 -18 -7 -27 -2 -19 12 -30 12 -30 0z"/>
<path d="M7904 16626 c-8 -20 -1 -29 20 -24 13 3 13 6 1 22 -13 17 -15 18 -21
2z"/>
<path d="M5145 16600 c-8 -13 4 -32 16 -25 12 8 12 35 0 35 -6 0 -13 -4 -16
-10z"/>
<path d="M7763 16603 c-7 -3 -13 -12 -13 -21 0 -15 2 -15 17 1 18 18 16 27 -4
20z"/>
<path d="M8057 16604 c-4 -4 -7 -14 -7 -23 0 -11 3 -12 11 -4 6 6 10 16 7 23
-2 6 -7 8 -11 4z"/>
<path d="M7828 16573 c-10 -2 -18 -8 -18 -13 0 -4 9 -6 20 -3 11 3 20 9 20 14
0 5 -1 8 -2 8 -2 -1 -11 -3 -20 -6z"/>
<path d="M9593 16545 c-3 -9 -3 -18 0 -22 10 -10 37 6 37 22 0 20 -29 20 -37
0z"/>
<path d="M7606 16532 c-2 -4 -1 -14 5 -22 5 -8 9 -25 9 -36 0 -29 27 -51 42
-36 9 9 9 21 -1 50 -17 45 -42 65 -55 44z"/>
<path d="M9435 16530 c3 -5 8 -10 11 -10 2 0 4 5 4 10 0 6 -5 10 -11 10 -5 0
-7 -4 -4 -10z"/>
<path d="M9665 16531 c-9 -9 -5 -90 5 -96 6 -4 10 8 10 29 0 19 7 41 15 50 8
8 15 17 15 20 0 6 -39 4 -45 -3z"/>
<path d="M10419 16538 c-1 -2 -3 -20 -4 -40 -3 -28 0 -38 11 -38 18 0 39 43
31 64 -5 13 -34 23 -38 14z"/>
<path d="M7814 16518 c-7 -11 22 -21 36 -13 5 3 10 10 10 15 0 11 -40 9 -46
-2z"/>
<path d="M3770 16477 c0 -37 7 -52 42 -95 37 -47 42 -50 54 -34 18 23 17 29
-6 35 -12 3 -20 14 -20 26 0 12 -4 21 -10 21 -5 0 -10 10 -10 23 0 12 -12 33
-25 46 l-25 23 0 -45z"/>
<path d="M8982 16503 c2 -9 9 -18 16 -21 18 -6 15 25 -4 32 -11 4 -14 1 -12
-11z"/>
<path d="M9140 16510 c0 -5 4 -10 9 -10 6 0 13 5 16 10 3 6 -1 10 -9 10 -9 0
-16 -4 -16 -10z"/>
<path d="M9500 16510 c0 -5 5 -10 10 -10 6 0 10 5 10 10 0 6 -4 10 -10 10 -5
0 -10 -4 -10 -10z"/>
<path d="M10164 16476 c-4 -11 -1 -21 7 -27 17 -11 26 18 10 34 -7 7 -12 5
-17 -7z"/>
<path d="M6620 16459 c0 -5 5 -7 10 -4 6 3 10 8 10 11 0 2 -4 4 -10 4 -5 0
-10 -5 -10 -11z"/>
<path d="M9475 16440 c-3 -5 -1 -10 4 -10 6 0 11 5 11 10 0 6 -2 10 -4 10 -3
0 -8 -4 -11 -10z"/>
<path d="M9530 16420 c-19 -20 -27 -36 -23 -50 9 -35 47 -22 55 20 3 14 9 33
13 43 11 27 -12 21 -45 -13z"/>
<path d="M9810 16434 c0 -17 22 -14 28 4 2 7 -3 12 -12 12 -9 0 -16 -7 -16
-16z"/>
<path d="M7550 16430 c0 -5 7 -10 15 -10 8 0 15 5 15 10 0 6 -7 10 -15 10 -8
0 -15 -4 -15 -10z"/>
<path d="M9232 16408 c-16 -16 -15 -58 2 -58 19 0 38 26 34 46 -4 22 -20 28
-36 12z"/>
<path d="M4046 16391 c-4 -7 -5 -15 -2 -18 9 -9 19 4 14 18 -4 11 -6 11 -12 0z"/>
<path d="M7170 16391 c0 -6 5 -13 10 -16 6 -3 10 1 10 9 0 9 -4 16 -10 16 -5
0 -10 -4 -10 -9z"/>
<path d="M10344 16386 c-8 -22 3 -33 18 -18 9 9 9 15 0 24 -9 9 -13 7 -18 -6z"/>
<path d="M11675 16390 c3 -5 8 -10 11 -10 2 0 4 5 4 10 0 6 -5 10 -11 10 -5 0
-7 -4 -4 -10z"/>
<path d="M9390 16382 c-9 -4 -15 -19 -14 -37 2 -45 3 -46 23 -36 13 7 19 21
19 46 0 36 -2 38 -28 27z"/>
<path d="M11730 16380 c0 -5 5 -10 11 -10 5 0 7 5 4 10 -3 6 -8 10 -11 10 -2
0 -4 -4 -4 -10z"/>
<path d="M7420 16370 c0 -5 5 -10 11 -10 5 0 7 5 4 10 -3 6 -8 10 -11 10 -2 0
-4 -4 -4 -10z"/>
<path d="M7526 16373 c-11 -11 -6 -23 9 -23 8 0 15 4 15 9 0 13 -16 22 -24 14z"/>
<path d="M3872 16293 c2 -11 11 -17 21 -15 10 2 17 -4 17 -13 0 -8 -4 -15 -9
-15 -6 0 3 -29 20 -65 16 -35 29 -71 29 -79 0 -7 9 -24 19 -37 15 -19 22 -21
32 -12 9 9 7 18 -10 41 -11 17 -21 34 -21 40 0 5 -11 21 -26 37 -31 34 -28 61
6 57 22 -4 20 0 -19 37 -48 44 -65 51 -59 24z"/>
<path d="M4041 16294 c0 -11 3 -14 6 -6 3 7 2 16 -1 19 -3 4 -6 -2 -5 -13z"/>
<path d="M9170 16300 c0 -5 5 -10 10 -10 6 0 10 5 10 10 0 6 -4 10 -10 10 -5
0 -10 -4 -10 -10z"/>
<path d="M8808 16278 c-54 -14 -47 -25 14 -24 42 1 53 5 56 19 4 19 -12 21
-70 5z"/>
<path d="M11686 16255 c4 -27 2 -35 -10 -35 -20 0 -21 -20 -3 -45 10 -13 16
-15 21 -6 12 19 25 2 20 -27 l-4 -27 20 24 c24 28 26 57 5 65 -8 3 -15 18 -15
34 0 27 -15 52 -32 52 -4 0 -5 -16 -2 -35z"/>
<path d="M4057 16273 c-3 -5 7 -17 21 -27 23 -18 25 -18 19 -2 -4 10 -7 22 -7
27 0 11 -27 12 -33 2z"/>
<path d="M9160 16250 c0 -11 7 -20 15 -20 17 0 18 2 9 24 -9 23 -24 20 -24 -4z"/>
<path d="M7450 16236 c0 -21 28 -32 42 -18 6 6 18 8 27 5 11 -4 13 -3 6 5 -6
7 -25 15 -43 18 -26 5 -32 3 -32 -10z"/>
<path d="M9275 16209 c-12 -19 5 -23 22 -6 16 16 16 17 1 17 -9 0 -20 -5 -23
-11z"/>
<path d="M9046 16179 c-5 -26 -2 -38 13 -53 29 -29 37 -1 13 48 l-19 38 -7
-33z"/>
<path d="M8807 16189 c-14 -8 -18 -20 -15 -47 3 -34 1 -37 -32 -44 -19 -4 -48
-10 -64 -14 -19 -4 -31 -2 -36 6 -7 11 -11 11 -24 1 -8 -7 -20 -10 -26 -6 -14
8 -52 -24 -44 -37 4 -5 10 -5 17 0 7 5 27 13 45 17 28 6 32 4 32 -14 0 -29 14
-33 38 -11 15 14 29 18 55 13 27 -4 40 -1 58 16 13 11 28 21 35 21 19 0 63
-40 79 -71 18 -34 34 -36 65 -9 28 24 34 25 50 5 16 -20 27 -19 34 3 4 9 21
24 39 33 17 9 33 23 35 31 5 24 -75 20 -82 -4 -11 -44 -50 7 -48 62 1 23 0 24
-12 8 -18 -24 -36 -23 -36 2 0 11 -8 23 -17 26 -10 3 -26 10 -36 15 -12 7 -23
7 -31 0 -7 -6 -17 -6 -26 -1 -19 12 -31 12 -53 -1z m153 -71 c-1 -32 -42 -55
-60 -33 -8 10 -6 17 12 29 27 19 48 21 48 4z m48 -50 c-6 -18 -28 -21 -28 -4
0 9 7 16 16 16 9 0 14 -5 12 -12z m-48 -28 c0 -5 -5 -10 -11 -10 -5 0 -7 5 -4
10 3 6 8 10 11 10 2 0 4 -4 4 -10z"/>
<path d="M11480 16181 c0 -6 5 -13 10 -16 6 -3 10 1 10 9 0 9 -4 16 -10 16 -5
0 -10 -4 -10 -9z"/>
<path d="M11600 16180 c0 -5 5 -10 10 -10 6 0 10 5 10 10 0 6 -4 10 -10 10 -5
0 -10 -4 -10 -10z"/>
<path d="M8672 16147 c-12 -13 -22 -26 -22 -30 0 -12 48 23 54 39 8 21 -8 17
-32 -9z"/>
<path d="M11630 16152 c0 -4 5 -13 12 -20 18 -18 28 -15 28 8 0 13 -7 20 -20
20 -11 0 -20 -4 -20 -8z"/>
<path d="M4112 16138 c-20 -20 -14 -27 13 -15 14 7 25 15 25 20 0 11 -25 8
-38 -5z"/>
<path d="M11465 16140 c3 -5 8 -10 11 -10 2 0 4 5 4 10 0 6 -5 10 -11 10 -5 0
-7 -4 -4 -10z"/>
<path d="M11570 16129 c0 -5 5 -7 10 -4 6 3 10 8 10 11 0 2 -4 4 -10 4 -5 0
-10 -5 -10 -11z"/>
<path d="M7261 16077 c-16 -16 -14 -34 5 -41 25 -10 34 -7 34 10 0 8 5 12 10
9 6 -3 10 -2 10 3 0 16 -46 32 -59 19z"/>
<path d="M11656 16058 c-10 -16 -26 -28 -36 -28 -21 0 -36 -17 -42 -45 -3 -14
-11 -19 -26 -18 -14 2 -22 -3 -22 -12 0 -8 6 -15 14 -15 8 0 17 -8 20 -17 5
-12 9 -14 18 -5 16 16 35 15 41 -1 3 -9 -6 -14 -31 -15 -44 -3 -56 -13 -72
-55 -6 -18 -18 -46 -27 -64 -9 -18 -13 -39 -10 -47 3 -8 2 -28 -3 -45 -7 -24
-4 -36 12 -56 25 -32 17 -43 -16 -22 -18 12 -26 29 -31 66 -7 53 -28 72 -45
41 -14 -26 -13 -30 10 -30 21 0 29 -33 10 -45 -13 -8 -44 -75 -37 -81 3 -3 14
-1 25 5 12 6 25 11 30 11 20 0 20 -30 1 -55 l-21 -26 -41 42 c-24 24 -43 36
-45 29 -3 -7 0 -15 6 -19 5 -3 12 -17 13 -31 3 -19 10 -25 27 -24 17 0 22 -5
22 -23 0 -24 -14 -31 -26 -12 -3 6 -17 8 -30 5 -27 -7 -29 -3 -14 25 9 16 7
19 -8 19 -10 0 -27 9 -37 20 -10 11 -22 17 -26 14 -16 -10 -9 -22 17 -28 25
-7 25 -8 10 -31 -20 -30 -20 -45 -1 -45 23 0 18 -18 -10 -36 -21 -14 -28 -14
-41 -3 -14 11 -16 10 -13 -11 4 -32 -7 -51 -26 -43 -8 3 -15 0 -15 -7 0 -8
-10 -9 -30 -5 -37 8 -40 -12 -9 -54 24 -32 17 -56 -12 -48 -14 4 -24 -3 -35
-24 -21 -41 -34 -28 -23 22 9 39 8 44 -21 72 -31 31 -42 27 -13 -5 15 -17 15
-19 -1 -37 -12 -13 -15 -27 -10 -45 11 -44 -3 -73 -40 -86 -25 -8 -37 -20 -45
-42 -14 -39 -8 -45 23 -24 34 22 37 21 25 -14 -12 -33 -19 -36 -37 -18 -10 10
-17 10 -34 -1 -16 -10 -23 -10 -26 -2 -6 17 -32 13 -32 -5 0 -9 9 -18 20 -21
27 -7 20 -25 -13 -34 -22 -6 -27 -4 -27 12 0 10 -7 19 -15 19 -8 0 -15 -6 -15
-13 0 -8 -11 -24 -26 -38 -22 -21 -23 -25 -9 -35 13 -10 13 -13 1 -23 -8 -7
-26 -13 -41 -15 -28 -3 -48 -26 -59 -68 -5 -21 -1 -31 19 -46 14 -11 25 -25
25 -31 0 -20 -38 -11 -57 13 -15 18 -26 23 -46 19 -25 -5 -27 -8 -21 -39 5
-29 4 -34 -14 -34 -13 0 -22 9 -26 24 -6 24 -7 24 -39 11 -35 -15 -44 -41 -12
-38 11 1 27 0 35 -3 22 -8 -15 -33 -40 -27 -14 4 -21 -1 -25 -20 -5 -17 -12
-24 -21 -20 -9 3 -13 12 -10 19 3 8 -1 14 -8 14 -11 0 -13 -10 -9 -39 5 -37 4
-39 -17 -34 -13 3 -25 14 -27 25 -7 25 -20 23 -47 -7 -13 -14 -39 -30 -57 -37
-56 -18 -81 -48 -41 -48 10 0 24 -6 31 -12 6 -7 15 -13 19 -14 22 -2 62 -25
62 -35 0 -16 -92 -2 -106 17 -14 17 -34 18 -34 2 0 -10 -2 -10 -8 0 -13 19
-63 10 -90 -17 -21 -21 -22 -25 -8 -39 14 -14 17 -13 36 11 22 28 44 29 33 2
-3 -9 1 -15 10 -15 8 0 18 -7 21 -16 9 -23 8 -24 -14 -24 -11 0 -20 7 -20 15
0 18 5 18 -58 0 -40 -12 -52 -20 -52 -35 0 -26 -14 -25 -40 3 -21 22 -22 22
-36 2 -8 -10 -26 -21 -41 -23 -15 -2 -32 -7 -38 -12 -6 -5 -22 -6 -34 -3 -18
4 -22 2 -19 -8 3 -8 11 -13 19 -11 23 6 59 -8 59 -22 0 -14 -29 -26 -62 -26
-10 0 -18 7 -18 15 0 8 -7 15 -15 15 -9 0 -15 -9 -15 -23 0 -13 -6 -32 -14
-43 -15 -19 -15 -19 -30 1 -23 29 -19 54 9 67 14 6 25 20 25 30 0 10 5 27 12
38 7 10 9 22 6 25 -10 10 -69 -38 -64 -51 7 -17 -24 -53 -31 -36 -4 10 -8 10
-21 0 -8 -7 -27 -13 -41 -13 -16 0 -27 -6 -29 -17 -3 -13 3 -18 20 -18 16 0
27 -9 36 -27 7 -16 20 -40 29 -55 24 -38 9 -46 -20 -12 l-25 29 -18 -22 c-11
-12 -31 -25 -46 -28 -23 -6 -27 -3 -33 23 -3 17 -15 38 -26 48 -24 22 -24 13
0 -28 22 -35 19 -48 -10 -48 -13 0 -19 7 -19 21 0 18 -2 19 -15 9 -8 -7 -15
-23 -15 -35 0 -13 -11 -30 -25 -39 -14 -9 -25 -12 -25 -7 0 5 5 11 10 13 7 2
6 10 -3 22 -14 19 -15 18 -36 -3 -20 -20 -21 -25 -8 -39 8 -9 17 -25 20 -34 7
-21 28 -23 45 -6 9 9 12 8 12 -4 0 -8 -7 -21 -15 -28 -8 -7 -15 -20 -15 -29 0
-20 -19 -41 -37 -41 -10 0 -11 5 -5 18 11 19 4 82 -8 82 -5 0 -15 2 -22 5 -8
3 -27 -6 -42 -20 -23 -21 -26 -28 -15 -41 9 -12 10 -17 0 -27 -10 -9 -14 -8
-22 5 -9 17 -12 17 -39 3 -17 -9 -30 -11 -30 -5 0 5 -8 10 -19 10 -10 0 -31 7
-47 15 -25 13 -30 13 -44 0 -24 -22 -26 -20 -40 30 -7 25 -16 45 -21 45 -16 0
-21 -21 -8 -36 9 -11 9 -18 1 -26 -18 -18 -14 -67 9 -104 37 -60 10 -58 -46 3
-53 57 -54 57 -74 39 -20 -18 -22 -18 -40 -2 -18 17 -19 17 -23 -1 -2 -10 8
-28 21 -41 l25 -23 19 25 19 26 39 -37 c41 -39 48 -53 25 -53 -7 0 -16 -9 -19
-20 -4 -16 -12 -20 -31 -17 -32 4 -46 17 -18 17 11 0 24 5 28 11 9 15 -12 33
-27 23 -33 -20 -57 -12 -85 27 -26 37 -44 50 -44 29 0 -5 6 -13 13 -17 8 -4
17 -20 21 -35 5 -22 3 -26 -9 -22 -17 7 -54 -32 -55 -57 0 -25 -27 -31 -33 -8
-6 21 -57 28 -57 7 0 -18 -65 -21 -79 -4 -9 10 -8 15 4 20 8 3 15 1 15 -4 0
-19 22 -10 27 10 4 15 11 19 24 15 22 -7 24 3 5 27 -12 16 -14 16 -24 -7 -12
-26 -30 -34 -29 -12 1 38 -4 47 -28 47 -14 0 -29 -8 -35 -20 -9 -16 -8 -20 5
-20 8 0 15 -4 15 -8 0 -5 -16 -7 -35 -6 -30 3 -36 0 -41 -22 -5 -18 -10 -22
-19 -14 -9 7 -16 6 -26 -6 -12 -14 -14 -14 -25 1 -17 22 -42 13 -86 -31 -33
-32 -37 -34 -52 -19 -17 17 -19 26 -17 62 3 29 -13 36 -33 14 -11 -13 -14 -21
-7 -26 6 -3 11 -11 11 -17 0 -7 -6 -6 -15 2 -8 7 -15 18 -15 25 0 7 -9 23 -19
36 -17 20 -22 22 -33 10 -10 -11 -10 -14 0 -18 7 -3 20 -12 28 -21 15 -15 15
-17 -6 -26 -19 -9 -25 -7 -38 12 -19 29 -28 28 -36 -4 l-7 -27 -24 23 c-13 12
-28 20 -33 16 -5 -3 -19 6 -30 19 -27 31 -40 31 -51 3 -7 -19 -4 -24 16 -32
17 -6 23 -14 21 -30 -2 -16 -11 -22 -40 -24 -22 -2 -38 1 -38 7 0 17 -28 13
-38 -5 -6 -11 -17 -15 -31 -11 -11 3 -21 1 -21 -4 0 -5 -4 -9 -10 -9 -21 0 -9
18 25 36 20 10 35 26 35 36 0 21 -1 21 -35 6 -21 -10 -27 -9 -38 7 -11 14 -17
16 -35 6 -13 -7 -22 -21 -22 -36 0 -23 -23 -55 -40 -55 -5 0 -16 -3 -26 -7
-17 -6 -17 -5 -1 17 9 14 17 33 17 42 0 17 -2 17 -25 2 -34 -22 -125 -29 -125
-9 0 8 -10 20 -22 26 -13 7 -34 25 -48 41 -23 26 -29 28 -72 22 -42 -6 -48
-10 -48 -31 0 -18 -7 -25 -30 -29 -16 -4 -30 -11 -30 -16 0 -6 -19 -8 -42 -6
-33 3 -47 0 -58 -14 -13 -17 -17 -17 -35 -4 -19 14 -19 14 -1 35 27 29 10 44
-34 31 -19 -5 -42 -8 -51 -5 -10 3 -20 -3 -27 -19 -10 -23 -15 -25 -91 -24
l-80 1 20 29 c21 28 22 59 4 64 -5 2 -23 -17 -38 -41 -29 -46 -52 -52 -41 -12
4 19 -1 25 -33 39 -21 9 -62 23 -90 31 -51 14 -53 14 -53 -5 0 -13 -6 -18 -17
-16 -10 2 -17 12 -16 22 1 22 -33 63 -44 52 -4 -4 -7 -19 -8 -34 0 -28 1 -28
-64 -17 -12 2 -33 13 -45 24 -15 14 -26 17 -38 10 -13 -7 -15 -5 -11 11 5 20
-12 50 -29 50 -5 0 -13 -10 -18 -22 -6 -16 -9 -18 -9 -6 -1 14 -5 14 -26 5
-17 -8 -24 -18 -21 -29 3 -12 -2 -18 -14 -18 -26 0 -36 21 -16 32 15 8 15 11
1 24 -17 17 -12 34 11 34 18 0 18 11 0 35 -12 17 -14 16 -25 -18 -11 -34 -15
-36 -44 -31 -18 4 -39 14 -47 23 -8 9 -27 22 -42 30 -16 8 -28 23 -28 33 0 22
26 24 38 2 5 -8 15 -16 23 -17 8 -2 20 -6 27 -11 17 -10 26 -1 19 18 -3 8 -20
17 -37 21 -30 6 -70 36 -70 51 0 16 35 32 47 22 15 -12 43 6 43 28 0 19 -17
17 -30 -3 -8 -13 -13 -14 -16 -5 -15 34 -69 -12 -62 -53 7 -33 -14 -50 -42
-35 -12 6 -19 17 -16 25 2 7 -4 15 -15 18 -11 3 -19 14 -19 26 0 11 -9 25 -21
31 -30 17 -36 4 -10 -23 13 -15 19 -30 15 -40 -8 -21 -14 -21 -39 -3 -11 7
-39 17 -63 21 -32 5 -43 12 -48 29 -6 26 -85 66 -130 66 -39 0 -46 7 -33 32
17 32 -7 48 -27 19 -12 -16 -19 -20 -27 -12 -7 7 -5 17 9 32 19 22 19 22 -4
14 -18 -5 -30 -1 -48 16 l-24 23 22 23 c27 29 17 41 -17 19 -14 -9 -30 -14
-35 -11 -5 3 -11 1 -15 -5 -8 -13 -35 -13 -35 0 0 19 -71 120 -81 115 -5 -4
-13 5 -19 19 -8 21 -16 26 -45 26 -36 0 -59 16 -90 64 -10 14 -23 26 -30 26
-26 0 -73 49 -68 70 3 11 10 20 16 20 6 0 7 3 4 6 -4 4 -13 1 -21 -5 -12 -10
-25 -5 -68 24 -59 41 -66 58 -26 63 14 2 32 10 38 18 10 12 8 14 -16 14 -20 0
-32 7 -39 22 -16 35 -41 45 -63 25 -26 -24 -41 -21 -52 8 -5 14 -16 25 -24 25
-10 0 -13 6 -9 16 3 9 -6 27 -23 45 -23 24 -25 29 -10 29 11 0 16 6 14 17 -4
21 -28 30 -28 10 0 -8 -7 -18 -16 -21 -11 -4 -14 -14 -11 -29 4 -16 -6 -9 -37
26 -23 26 -48 47 -55 47 -25 0 -5 35 29 52 19 9 48 30 64 47 l30 31 -27 0
c-16 0 -27 -6 -27 -13 0 -25 -37 -50 -63 -43 -16 4 -29 0 -37 -9 -26 -31 -63
-8 -38 23 15 20 38 59 38 67 0 10 -46 5 -59 -7 -10 -11 -17 -7 -37 17 -13 17
-24 35 -24 41 0 7 -11 19 -25 28 -14 9 -25 25 -25 36 0 10 -15 29 -32 41 -58
40 -86 78 -93 126 -9 61 -14 73 -34 73 -27 1 -65 36 -58 54 5 12 1 15 -16 13
-18 -2 -23 4 -25 31 -2 17 -7 32 -13 32 -16 0 -10 38 10 52 10 7 21 24 26 36
6 22 5 23 -17 11 -12 -7 -27 -18 -33 -24 -7 -9 -20 -10 -42 -4 -43 12 -71 63
-109 197 -2 7 -8 11 -13 7 -6 -3 -8 -12 -4 -20 3 -8 2 -15 -1 -15 -4 0 -11 12
-16 26 -13 34 2 53 36 46 20 -4 25 -1 22 9 -2 8 -19 15 -36 17 -24 3 -32 -1
-32 -13 0 -11 -5 -15 -15 -11 -16 6 -21 -19 -6 -29 5 -3 12 -18 16 -34 3 -16
12 -34 19 -40 8 -6 22 -33 31 -59 19 -48 97 -176 115 -187 6 -3 10 -15 10 -26
0 -31 20 -59 106 -149 52 -54 102 -120 137 -180 68 -117 98 -158 170 -237 38
-40 57 -69 57 -86 0 -17 12 -35 35 -54 20 -15 80 -67 135 -116 54 -48 117
-102 139 -120 156 -125 361 -315 361 -334 0 -7 16 -15 35 -19 19 -3 39 -12 46
-20 6 -8 16 -14 22 -14 5 0 32 -16 58 -35 27 -19 52 -35 57 -35 4 0 32 -18 62
-40 53 -38 92 -59 183 -99 67 -29 81 -34 107 -38 14 -2 39 -17 55 -32 17 -16
48 -34 70 -41 22 -6 49 -15 60 -20 48 -22 75 -29 75 -20 0 6 7 10 16 10 11 0
14 -5 10 -16 -4 -11 9 -22 52 -41 31 -15 59 -27 62 -28 3 -1 14 -5 25 -10 11
-4 49 -18 85 -32 36 -13 79 -31 95 -38 17 -8 41 -15 55 -17 14 -2 31 -7 38
-11 6 -5 12 -5 12 -1 0 3 7 1 15 -6 8 -7 15 -10 15 -6 0 3 16 0 35 -8 19 -8
35 -12 35 -9 0 3 7 0 15 -7 8 -7 15 -9 15 -5 0 4 6 2 13 -4 8 -6 16 -9 19 -6
3 3 11 -1 18 -10 7 -8 23 -15 36 -15 12 0 34 -4 49 -10 14 -5 40 -12 58 -15
18 -3 43 -7 57 -10 26 -5 114 -17 142 -20 9 0 23 -7 32 -14 8 -7 41 -14 73
-16 165 -8 340 -22 369 -29 91 -20 267 -30 307 -17 18 5 141 12 274 16 134 3
253 9 265 14 13 5 26 9 31 9 101 7 385 56 527 92 160 40 263 78 480 175 102
45 229 101 283 124 283 120 429 205 577 336 41 37 136 112 209 168 205 154
258 203 371 347 58 73 151 190 208 259 164 200 283 384 346 535 14 33 14 37 1
26 -13 -11 -15 -6 -15 39 0 28 5 51 10 51 6 0 10 -4 10 -10 0 -5 9 -14 19 -20
17 -8 19 -7 17 15 -2 13 -9 31 -16 40 -17 21 6 51 26 34 11 -9 14 -7 14 10 0
12 -6 21 -15 21 -22 0 -18 13 10 40 14 13 25 30 25 37 0 8 4 12 8 9 5 -3 9 0
10 7 1 7 4 34 7 62 3 27 13 57 21 66 9 10 14 28 12 41 l-3 23 -19 -27z m-96
-228 c0 -5 -5 -10 -11 -10 -5 0 -7 5 -4 10 3 6 8 10 11 10 2 0 4 -4 4 -10z
m-221 -403 c6 -8 8 -17 4 -20 -11 -12 -21 -7 -26 13 -6 23 5 26 22 7z m19 -47
c21 0 13 -26 -13 -40 -29 -16 -31 -14 -41 24 -6 27 -5 29 17 23 13 -4 30 -7
37 -7z m-128 -81 c0 -5 -4 -9 -10 -9 -5 0 -10 7 -10 16 0 8 5 12 10 9 6 -3 10
-10 10 -16z m74 12 c3 -5 -1 -14 -8 -20 -16 -13 -32 2 -21 19 8 12 22 13 29 1z
m-85 -107 c-61 -62 -70 -55 -12 11 26 30 50 50 52 44 2 -6 -16 -31 -40 -55z
m-125 -65 c-7 -11 -34 -12 -34 -1 0 14 11 21 26 15 8 -3 11 -9 8 -14z m40 -20
c-3 -5 -10 -7 -15 -3 -5 3 -7 10 -3 15 3 5 10 7 15 3 5 -3 7 -10 3 -15z m-34
-46 c0 -22 -17 -49 -25 -41 -8 8 5 58 16 58 5 0 9 -8 9 -17z m-30 -3 c0 -5 -5
-10 -11 -10 -5 0 -7 5 -4 10 3 6 8 10 11 10 2 0 4 -4 4 -10z m-30 -105 c0 -8
-4 -15 -10 -15 -5 0 -10 7 -10 15 0 8 5 15 10 15 6 0 10 -7 10 -15z m-6160
-65 c0 -5 -2 -10 -4 -10 -3 0 -8 5 -11 10 -3 6 -1 10 4 10 6 0 11 -4 11 -10z
m6080 0 c0 -5 -4 -10 -10 -10 -5 0 -10 5 -10 10 0 6 5 10 10 10 6 0 10 -4 10
-10z m-205 -92 c6 -31 4 -38 -9 -38 -18 0 -21 15 -5 25 7 5 5 14 -5 30 -8 12
-12 26 -9 29 11 10 21 -7 28 -46z m-5711 13 c10 -16 -6 -42 -23 -39 -9 2 -17
13 -19 26 -3 16 2 22 17 22 11 0 22 -4 25 -9z m5666 -41 c0 -5 -2 -10 -4 -10
-3 0 -8 5 -11 10 -3 6 -1 10 4 10 6 0 11 -4 11 -10z m100 -75 c-7 -8 -16 -15
-21 -15 -14 0 -10 17 8 36 20 20 32 1 13 -21z m-126 -71 c22 -21 20 -29 -9
-42 -16 -7 -25 -8 -25 -1 0 5 7 12 15 15 11 5 12 11 4 25 -12 23 -6 24 15 3z
m-308 -100 c-4 -12 -10 -14 -17 -7 -5 5 -7 17 -3 27 4 12 10 14 17 7 5 -5 7
-17 3 -27z m70 -11 c-4 -4 -11 -1 -16 7 -16 25 -11 35 7 17 9 -9 13 -20 9 -24z
m114 18 c0 -13 -29 -35 -37 -28 -7 8 15 37 28 37 5 0 9 -4 9 -9z m-70 -51 c0
-5 -7 -10 -15 -10 -8 0 -15 5 -15 10 0 6 7 10 15 10 8 0 15 -4 15 -10z m-106
-44 c-3 -9 -10 -13 -16 -10 -5 3 -4 12 3 20 15 18 22 13 13 -10z m-140 -21 c8
-23 -14 -29 -29 -9 -7 11 -11 22 -9 26 7 10 32 -1 38 -17z m159 -25 c-3 -11
-9 -17 -14 -14 -14 8 -10 34 5 34 9 0 12 -7 9 -20z m-4929 -29 c9 -16 12 -31
9 -35 -7 -7 -53 40 -53 55 0 20 30 7 44 -20z m4683 -27 c3 -8 1 -20 -6 -27 -8
-8 -15 -6 -26 9 -13 17 -14 17 -15 2 0 -21 -30 -24 -30 -3 0 30 66 47 77 19z
m-95 -57 c11 -18 10 -24 -7 -31 -8 -3 -15 -13 -15 -23 0 -13 -3 -14 -12 -5 -6
6 -13 17 -14 24 -2 7 -6 24 -10 37 -7 22 -5 23 22 17 16 -4 32 -13 36 -19z
m-83 -65 c-17 -22 -69 -57 -74 -50 -5 7 -25 47 -25 51 0 3 9 3 20 0 12 -3 31
5 51 22 39 32 59 16 28 -23z m245 -9 c-3 -12 -15 -18 -32 -18 -15 -1 -38 -4
-51 -9 -18 -6 -22 -5 -19 5 3 8 14 14 25 15 11 1 28 6 39 12 28 17 43 14 38
-5z m-456 -25 c-6 -18 -28 -21 -28 -4 0 9 7 16 16 16 9 0 14 -5 12 -12z m227
-8 c3 -5 1 -10 -4 -10 -6 0 -11 5 -11 10 0 6 2 10 4 10 3 0 8 -4 11 -10z
m-205 -49 c0 -11 -4 -23 -10 -26 -6 -4 -10 5 -10 19 0 14 5 26 10 26 6 0 10
-9 10 -19z m201 -33 c-13 -10 -28 -15 -34 -11 -6 4 -1 13 12 25 13 10 28 15
34 11 6 -4 1 -13 -12 -25z m-301 7 c0 -18 12 -19 29 -2 10 10 12 8 9 -7 -4
-27 -128 -63 -128 -37 0 5 13 11 29 14 18 4 32 14 36 27 7 23 25 27 25 5z
m-102 -26 c2 -9 -8 -29 -21 -45 -21 -25 -27 -27 -41 -15 -17 14 -14 43 7 69
14 17 51 11 55 -9z m-3487 -91 c5 -10 7 -18 3 -18 -14 0 -103 64 -98 71 6 11
84 -32 95 -53z m3619 31 c0 -6 -4 -7 -10 -4 -5 3 -10 11 -10 16 0 6 5 7 10 4
6 -3 10 -11 10 -16z m60 -29 c0 -5 -2 -10 -4 -10 -3 0 -8 5 -11 10 -3 6 -1 10
4 10 6 0 11 -4 11 -10z m-260 -10 c0 -5 -4 -10 -10 -10 -5 0 -10 5 -10 10 0 6
5 10 10 10 6 0 10 -4 10 -10z m-3358 -32 c-15 -15 -26 -4 -18 18 5 13 9 15 18
6 9 -9 9 -15 0 -24z m3426 -7 c10 -6 5 -11 -19 -20 -37 -13 -42 -11 -33 13 7
17 31 21 52 7z m-400 -29 c2 -7 -2 -10 -12 -6 -9 3 -16 11 -16 16 0 13 23 5
28 -10z m325 -9 c-7 -2 -19 -2 -25 0 -7 3 -2 5 12 5 14 0 19 -2 13 -5z m-3228
-13 c3 -5 1 -10 -4 -10 -6 0 -11 5 -11 10 0 6 2 10 4 10 3 0 8 -4 11 -10z
m3162 -35 c-7 -16 -37 -21 -37 -5 0 10 32 31 39 25 2 -2 1 -11 -2 -20z m-107
-21 c0 -8 -4 -14 -10 -14 -5 0 -10 9 -10 21 0 11 5 17 10 14 6 -3 10 -13 10
-21z m-80 -44 c-11 -20 -30 -28 -30 -12 0 11 22 32 32 32 5 0 4 -9 -2 -20z
m-1747 -20 c10 0 21 -9 24 -19 3 -11 13 -21 24 -24 23 -6 24 -17 5 -42 -12
-17 -16 -17 -30 -6 -9 8 -15 20 -12 27 5 13 -24 44 -41 44 -5 0 -15 -11 -21
-25 -14 -30 -32 -33 -32 -5 0 24 42 69 55 58 5 -4 18 -8 28 -8z m1435 -14 c9
-21 8 -24 -11 -28 -12 -2 -32 1 -44 7 -21 11 -21 13 -5 28 23 24 47 21 60 -7z
m-353 -17 c4 -11 4 -23 0 -27 -7 -7 -25 17 -25 36 0 20 18 14 25 -9z m548 -4
c-7 -36 -27 -47 -83 -49 -27 -1 -52 -5 -56 -9 -10 -10 -56 -8 -74 3 -22 14
-11 18 62 22 37 3 71 8 75 11 3 4 15 7 25 7 10 0 23 9 30 20 17 27 26 25 21
-5z m77 4 c0 -5 -4 -9 -10 -9 -5 0 -10 7 -10 16 0 8 5 12 10 9 6 -3 10 -10 10
-16z m-1375 -19 c3 -5 -1 -10 -10 -10 -9 0 -13 5 -10 10 3 6 8 10 10 10 2 0 7
-4 10 -10z m-715 -14 c0 -8 -4 -18 -10 -21 -5 -3 -10 3 -10 14 0 12 5 21 10
21 6 0 10 -6 10 -14z m1330 -12 c0 -8 -4 -12 -10 -9 -5 3 -10 10 -10 16 0 5 5
9 10 9 6 0 10 -7 10 -16z m-952 -5 c-2 -6 -8 -10 -13 -10 -5 0 -11 4 -13 10
-2 6 4 11 13 11 9 0 15 -5 13 -11z m-324 -20 c-3 -5 -10 -7 -15 -3 -5 3 -7 10
-3 15 3 5 10 7 15 3 5 -3 7 -10 3 -15z m1366 1 c0 -5 -4 -10 -10 -10 -5 0 -10
5 -10 10 0 6 5 10 10 10 6 0 10 -4 10 -10z m336 3 c-4 -5 -11 -8 -14 -8 -4 -1
-21 -9 -39 -18 -33 -17 -74 -22 -86 -10 -4 3 14 14 40 23 50 18 112 26 99 13z
m-426 -53 c0 -5 -2 -10 -4 -10 -3 0 -8 5 -11 10 -3 6 -1 10 4 10 6 0 11 -4 11
-10z m220 1 c0 -13 -27 -21 -45 -15 -8 4 -12 10 -9 15 7 12 54 12 54 0z m-90
-10 c0 -10 -35 -21 -69 -21 -32 0 -21 10 21 20 46 11 48 11 48 1z"/>
<path d="M7086 16062 c-10 -17 5 -42 25 -42 24 0 24 12 0 34 -11 10 -22 13
-25 8z"/>
<path d="M9178 16056 c-24 -18 -23 -35 2 -29 11 3 20 14 20 24 0 22 0 22 -22
5z"/>
<path d="M9296 16061 c-3 -5 1 -11 9 -15 8 -3 15 -1 15 4 0 13 -18 22 -24 11z"/>
<path d="M9600 16053 c0 -20 18 -43 33 -43 4 0 7 12 5 27 -4 32 -38 46 -38 16z"/>
<path d="M11550 16055 c0 -8 4 -15 9 -15 5 0 11 7 15 15 3 9 0 15 -9 15 -8 0
-15 -7 -15 -15z"/>
<path d="M4207 16053 c-13 -12 -7 -33 8 -33 8 0 15 9 15 20 0 20 -11 26 -23
13z"/>
<path d="M8802 16037 c-27 -29 -28 -37 -2 -37 18 0 19 -3 10 -20 -9 -17 -8
-20 10 -20 14 0 20 -7 20 -21 0 -33 24 -17 32 22 9 43 4 59 -21 59 -14 0 -18
5 -14 20 7 27 -9 25 -35 -3z"/>
<path d="M9252 16039 c2 -7 10 -15 17 -17 8 -3 12 1 9 9 -2 7 -10 15 -17 17
-8 3 -12 -1 -9 -9z"/>
<path d="M4032 16028 c-19 -19 -14 -30 8 -18 11 6 20 15 20 20 0 14 -14 12
-28 -2z"/>
<path d="M10080 16024 c0 -17 22 -14 28 4 2 7 -3 12 -12 12 -9 0 -16 -7 -16
-16z"/>
<path d="M9131 16006 c-8 -9 -11 -19 -7 -23 9 -9 29 13 24 27 -2 8 -8 7 -17
-4z"/>
<path d="M9304 16005 c-9 -22 4 -35 37 -35 32 0 37 11 13 34 -19 20 -43 21
-50 1z"/>
<path d="M7370 15980 c0 -11 7 -20 15 -20 8 0 15 9 15 20 0 11 -7 20 -15 20
-8 0 -15 -9 -15 -20z"/>
<path d="M8750 15989 c0 -5 5 -7 10 -4 6 3 10 8 10 11 0 2 -4 4 -10 4 -5 0
-10 -5 -10 -11z"/>
<path d="M9001 15990 c-21 -12 -5 -42 21 -38 12 2 23 8 25 15 6 16 -30 34 -46
23z"/>
<path d="M8653 15980 c-28 -11 -29 -26 -3 -40 37 -20 93 11 74 41 -7 11 -42
11 -71 -1z"/>
<path d="M11480 15980 c0 -5 5 -10 10 -10 6 0 10 5 10 10 0 6 -4 10 -10 10 -5
0 -10 -4 -10 -10z"/>
<path d="M7183 15973 c-28 -5 -32 -43 -5 -43 10 0 23 -5 29 -11 14 -14 33 -3
33 20 0 17 -19 42 -29 40 -4 -1 -16 -4 -28 -6z"/>
<path d="M8045 15970 c3 -5 8 -10 11 -10 2 0 4 5 4 10 0 6 -5 10 -11 10 -5 0
-7 -4 -4 -10z"/>
<path d="M10145 15971 c-3 -5 -1 -12 5 -16 5 -3 10 1 10 9 0 18 -6 21 -15 7z"/>
<path d="M4168 15945 c2 -14 8 -28 13 -31 15 -9 10 33 -5 45 -11 9 -12 6 -8
-14z"/>
<path d="M7330 15955 c0 -8 9 -19 20 -25 17 -9 20 -8 20 9 0 10 -7 22 -16 25
-22 8 -24 8 -24 -9z"/>
<path d="M8767 15943 c-12 -11 -8 -23 8 -23 8 0 15 7 15 15 0 16 -12 20 -23 8z"/>
<path d="M8957 15910 c21 -36 38 -39 39 -6 1 17 -5 26 -20 30 -36 10 -38 7
-19 -24z"/>
<path d="M11506 15913 c-4 -5 -16 -8 -27 -8 -29 0 -23 -20 7 -21 14 -1 28 5
31 13 6 16 -1 26 -11 16z"/>
<path d="M4235 15900 c3 -5 13 -10 21 -10 8 0 14 5 14 10 0 6 -9 10 -21 10
-11 0 -17 -4 -14 -10z"/>
<path d="M7950 15897 c0 -19 16 -31 24 -18 3 5 -1 14 -9 21 -12 10 -15 10 -15
-3z"/>
<path d="M8865 15890 c-10 -11 -14 -20 -9 -20 12 1 44 25 44 34 0 12 -17 6
-35 -14z"/>
<path d="M9055 15890 c3 -5 8 -10 11 -10 2 0 4 5 4 10 0 6 -5 10 -11 10 -5 0
-7 -4 -4 -10z"/>
<path d="M7442 15868 c5 -14 50 -40 57 -33 5 5 -41 44 -52 45 -5 0 -7 -6 -5
-12z"/>
<path d="M8022 15864 c4 -20 34 -41 44 -31 8 8 -24 47 -38 47 -5 0 -8 -7 -6
-16z"/>
<path d="M8300 15870 c-13 -9 -13 -11 0 -20 18 -11 39 5 24 20 -6 6 -15 6 -24
0z"/>
<path d="M8772 15868 c-14 -14 -16 -48 -3 -48 8 0 41 43 41 55 0 10 -26 5 -38
-7z"/>
<path d="M7640 15855 c-7 -9 -11 -18 -8 -20 3 -3 11 1 18 10 7 9 11 18 8 20
-3 3 -11 -1 -18 -10z"/>
<path d="M8590 15856 c0 -10 9 -16 21 -16 24 0 21 23 -4 28 -10 2 -17 -3 -17
-12z"/>
<path d="M8920 15861 c0 -14 28 -33 40 -26 20 12 10 35 -15 35 -14 0 -25 -4
-25 -9z"/>
<path d="M11631 15854 c0 -11 3 -14 6 -6 3 7 2 16 -1 19 -3 4 -6 -2 -5 -13z"/>
<path d="M8841 15834 c-6 -13 -16 -23 -23 -22 -6 2 -13 -4 -15 -13 -3 -11 8
-19 35 -27 54 -16 55 -16 49 18 -5 22 -3 30 8 30 25 0 17 15 -14 27 -26 9 -30
8 -40 -13z"/>
<path d="M9900 15842 c0 -7 -11 -18 -25 -24 -28 -12 -29 -16 -15 -38 7 -12 12
-12 22 -2 6 6 22 12 35 12 13 0 23 4 23 9 0 14 -39 57 -40 43z"/>
<path d="M8510 15830 c0 -5 7 -10 16 -10 8 0 12 5 9 10 -3 6 -10 10 -16 10 -5
0 -9 -4 -9 -10z"/>
<path d="M11380 15816 c0 -9 7 -12 20 -9 11 3 20 9 20 14 0 5 -9 9 -20 9 -11
0 -20 -6 -20 -14z"/>
<path d="M7655 15810 c3 -5 8 -10 11 -10 2 0 4 5 4 10 0 6 -5 10 -11 10 -5 0
-7 -4 -4 -10z"/>
<path d="M7951 15808 c1 -7 4 -23 7 -36 7 -21 8 -22 30 -7 27 20 28 35 2 35
-11 0 -20 5 -20 10 0 6 -4 10 -10 10 -5 0 -10 -6 -9 -12z"/>
<path d="M9640 15806 c0 -9 5 -16 10 -16 6 0 10 4 10 9 0 6 -4 13 -10 16 -5 3
-10 -1 -10 -9z"/>
<path d="M11616 15803 c-6 -14 -5 -15 5 -6 7 7 10 15 7 18 -3 3 -9 -2 -12 -12z"/>
<path d="M8640 15800 c0 -5 5 -10 10 -10 6 0 10 5 10 10 0 6 -4 10 -10 10 -5
0 -10 -4 -10 -10z"/>
<path d="M8932 15799 c2 -7 10 -15 17 -17 8 -3 12 1 9 9 -2 7 -10 15 -17 17
-8 3 -12 -1 -9 -9z"/>
<path d="M9143 15793 c-17 -6 -16 -28 1 -42 11 -9 15 -8 20 5 14 36 7 49 -21
37z"/>
<path d="M7610 15780 c0 -5 5 -10 10 -10 6 0 10 5 10 10 0 6 -4 10 -10 10 -5
0 -10 -4 -10 -10z"/>
<path d="M4560 15770 c0 -5 5 -10 11 -10 5 0 7 5 4 10 -3 6 -8 10 -11 10 -2 0
-4 -4 -4 -10z"/>
<path d="M7400 15765 c0 -10 10 -15 26 -15 22 0 25 2 14 15 -7 8 -19 15 -26
15 -8 0 -14 -7 -14 -15z"/>
<path d="M8731 15771 c-7 -5 -12 -13 -10 -19 3 -7 14 -3 29 8 25 20 10 29 -19
11z"/>
<path d="M7052 15751 c-11 -6 -11 -10 0 -19 16 -13 44 1 34 17 -8 13 -16 14
-34 2z"/>
<path d="M7888 15754 c-8 -7 2 -44 12 -44 15 0 19 28 6 39 -7 6 -15 8 -18 5z"/>
<path d="M7800 15741 c0 -12 29 -35 36 -28 11 10 -5 37 -21 37 -8 0 -15 -4
-15 -9z"/>
<path d="M9015 15740 c-3 -5 1 -10 9 -10 9 0 16 5 16 10 0 6 -4 10 -9 10 -6 0
-13 -4 -16 -10z"/>
<path d="M5876 15724 c-3 -9 -6 -27 -6 -41 0 -18 5 -24 18 -21 10 2 16 11 14
23 -2 11 -3 28 -3 38 0 21 -15 22 -23 1z"/>
<path d="M7657 15723 c-4 -3 -7 -15 -7 -25 0 -26 24 -17 28 10 3 21 -8 29 -21
15z"/>
<path d="M8570 15699 c0 -27 2 -30 15 -19 11 9 12 17 4 31 -14 27 -19 24 -19
-12z"/>
<path d="M8647 15723 c-4 -3 -7 -11 -7 -17 0 -6 5 -5 12 2 6 6 9 14 7 17 -3 3
-9 2 -12 -2z"/>
<path d="M9120 15720 c0 -5 5 -10 10 -10 6 0 10 5 10 10 0 6 -4 10 -10 10 -5
0 -10 -4 -10 -10z"/>
<path d="M7308 15709 c-10 -5 -18 -14 -18 -19 0 -12 62 -10 77 2 30 24 -23 38
-59 17z"/>
<path d="M9062 15706 c1 -10 8 -17 13 -17 15 1 12 24 -3 29 -9 3 -13 -2 -10
-12z"/>
<path d="M8116 15692 c-3 -6 -1 -14 5 -17 15 -10 25 3 12 16 -7 7 -13 7 -17 1z"/>
<path d="M8010 15682 c0 -14 29 -48 30 -34 0 6 10 12 22 12 21 0 21 0 2 15
-21 16 -54 20 -54 7z"/>
<path d="M8995 15680 c3 -5 8 -10 11 -10 2 0 4 5 4 10 0 6 -5 10 -11 10 -5 0
-7 -4 -4 -10z"/>
<path d="M4828 15673 c-27 -7 -21 -23 7 -23 14 0 25 4 25 9 0 13 -12 18 -32
14z"/>
<path d="M8240 15655 c0 -9 5 -15 11 -13 6 2 11 8 11 13 0 5 -5 11 -11 13 -6
2 -11 -4 -11 -13z"/>
<path d="M7110 15653 c0 -5 7 -18 15 -29 12 -16 14 -16 15 -3 0 9 -7 22 -15
29 -8 7 -15 8 -15 3z"/>
<path d="M8666 15651 c-4 -7 -5 -15 -2 -18 9 -9 19 4 14 18 -4 11 -6 11 -12 0z"/>
<path d="M7874 15639 c-3 -6 -1 -16 5 -22 9 -9 14 -8 21 3 9 15 4 30 -10 30
-5 0 -12 -5 -16 -11z"/>
<path d="M8996 15643 c-4 -4 -24 -6 -45 -4 -22 1 -42 -2 -46 -8 -3 -6 -17 -11
-31 -11 -27 0 -31 -14 -9 -36 18 -18 35 -10 35 17 0 21 20 25 37 8 14 -14 73
9 73 28 0 15 -4 16 -14 6z"/>
<path d="M4380 15630 c0 -5 5 -10 10 -10 6 0 10 5 10 10 0 6 -4 10 -10 10 -5
0 -10 -4 -10 -10z"/>
<path d="M7600 15630 c-8 -5 -12 -12 -9 -15 4 -3 12 1 19 10 14 17 11 19 -10
5z"/>
<path d="M8587 15614 c-31 -33 -35 -49 -9 -35 26 14 45 38 40 52 -3 8 -15 1
-31 -17z"/>
<path d="M8732 15588 c-13 -13 -16 -38 -4 -39 4 0 25 -2 48 -4 36 -4 42 -2 52
21 16 33 15 34 -8 34 -11 0 -20 -4 -20 -9 0 -15 -34 -18 -45 -3 -8 10 -13 10
-23 0z"/>
<path d="M8090 15580 c0 -5 5 -10 10 -10 6 0 10 5 10 10 0 6 -4 10 -10 10 -5
0 -10 -4 -10 -10z"/>
<path d="M7390 15545 c0 -8 7 -15 16 -15 14 0 14 3 4 15 -7 8 -14 15 -16 15
-2 0 -4 -7 -4 -15z"/>
<path d="M8015 15543 c-4 -12 -16 -25 -26 -28 -30 -10 -24 -45 6 -45 30 0 38
15 32 62 -4 29 -5 31 -12 11z"/>
<path d="M8340 15533 c0 -15 19 -37 26 -31 3 4 -1 14 -10 23 -9 9 -16 13 -16
8z"/>
<path d="M6625 15520 c3 -5 14 -10 23 -10 15 0 15 2 2 10 -20 13 -33 13 -25 0z"/>
<path d="M7540 15512 c0 -11 9 -30 19 -43 l20 -24 23 23 c29 28 15 56 -31 60
-25 3 -31 0 -31 -16z"/>
<path d="M8473 15516 c-24 -11 -32 -38 -10 -35 33 4 57 -2 57 -16 0 -8 7 -15
15 -15 19 0 20 16 1 27 -8 4 -15 17 -17 27 -5 24 -17 27 -46 12z"/>
<path d="M8773 15497 c-34 -24 -37 -40 -8 -45 18 -4 67 47 58 60 -6 11 -14 9
-50 -15z"/>
<path d="M11080 15516 c0 -2 7 -9 15 -16 12 -10 15 -10 15 4 0 9 -7 16 -15 16
-8 0 -15 -2 -15 -4z"/>
<path d="M6220 15502 c0 -14 39 -46 47 -38 4 4 2 15 -3 24 -12 19 -44 29 -44
14z"/>
<path d="M7667 15503 c-12 -11 -8 -23 8 -23 8 0 15 7 15 15 0 16 -12 20 -23 8z"/>
<path d="M8145 15500 c-3 -5 1 -10 9 -10 9 0 16 5 16 10 0 6 -4 10 -9 10 -6 0
-13 -4 -16 -10z"/>
<path d="M8207 15492 c-17 -19 -14 -32 9 -32 15 0 27 31 16 42 -5 5 -16 0 -25
-10z"/>
<path d="M9530 15495 c-7 -8 -10 -18 -7 -21 11 -11 59 6 54 19 -6 18 -32 20
-47 2z"/>
<path d="M7500 15485 c-7 -8 -18 -15 -26 -15 -14 0 -29 -18 -22 -26 9 -8 68
28 68 42 0 18 -4 18 -20 -1z"/>
<path d="M7742 15489 c-24 -9 -50 -54 -38 -66 4 -4 11 -1 15 6 7 11 18 11 61
1 41 -10 54 -10 60 0 10 15 1 51 -14 55 -36 11 -64 12 -84 4z"/>
<path d="M7915 15490 c3 -5 8 -10 11 -10 2 0 4 5 4 10 0 6 -5 10 -11 10 -5 0
-7 -4 -4 -10z"/>
<path d="M8040 15479 c0 -5 5 -7 10 -4 6 3 10 8 10 11 0 2 -4 4 -10 4 -5 0
-10 -5 -10 -11z"/>
<path d="M11220 15480 c0 -5 5 -10 10 -10 6 0 10 5 10 10 0 6 -4 10 -10 10 -5
0 -10 -4 -10 -10z"/>
<path d="M8317 15474 c-8 -8 1 -24 14 -24 5 0 9 7 9 15 0 15 -12 20 -23 9z"/>
<path d="M4495 15460 c-3 -5 -2 -10 4 -10 5 0 13 5 16 10 3 6 2 10 -4 10 -5 0
-13 -4 -16 -10z"/>
<path d="M7292 15444 c2 -15 9 -29 16 -32 10 -3 13 4 10 24 -2 15 -9 29 -16
32 -10 3 -13 -4 -10 -24z"/>
<path d="M8401 15461 c-34 -9 -36 -23 -6 -51 21 -19 27 -21 40 -10 17 14 17
62 0 66 -5 1 -21 -1 -34 -5z"/>
<path d="M6410 15453 c1 -26 17 -32 59 -24 2 1 -2 8 -9 16 -13 15 -50 21 -50
8z"/>
<path d="M8156 15445 c-3 -9 0 -15 8 -15 8 0 16 7 20 15 3 9 0 15 -8 15 -8 0
-16 -7 -20 -15z"/>
<path d="M4590 15421 c0 -12 5 -21 10 -21 6 0 10 6 10 14 0 8 -4 18 -10 21 -5
3 -10 -3 -10 -14z"/>
<path d="M7873 15415 c-22 -15 -32 -55 -15 -55 16 0 44 38 40 55 -3 14 -5 14
-25 0z"/>
<path d="M8485 15420 c-8 -13 4 -32 16 -25 12 8 12 35 0 35 -6 0 -13 -4 -16
-10z"/>
<path d="M9370 15415 c0 -8 5 -15 10 -15 6 0 10 7 10 15 0 8 -4 15 -10 15 -5
0 -10 -7 -10 -15z"/>
<path d="M8090 15411 c0 -11 31 -24 39 -16 3 3 -1 10 -9 15 -19 12 -30 12 -30
1z"/>
<path d="M4665 15400 c-3 -5 -1 -10 4 -10 6 0 11 5 11 10 0 6 -2 10 -4 10 -3
0 -8 -4 -11 -10z"/>
<path d="M10977 15403 c-4 -3 -7 -11 -7 -17 0 -6 5 -5 12 2 6 6 9 14 7 17 -3
3 -9 2 -12 -2z"/>
<path d="M11025 15399 c-4 -6 -5 -12 -2 -15 2 -3 7 2 10 11 7 17 1 20 -8 4z"/>
<path d="M5070 15393 c1 -13 51 -46 58 -38 4 3 -4 15 -18 25 -26 21 -40 25
-40 13z"/>
<path d="M7945 15390 c3 -5 8 -10 11 -10 2 0 4 5 4 10 0 6 -5 10 -11 10 -5 0
-7 -4 -4 -10z"/>
<path d="M9010 15385 c0 -9 6 -12 15 -9 8 4 15 7 15 9 0 2 -7 5 -15 9 -9 3
-15 0 -15 -9z"/>
<path d="M11130 15380 c6 -11 13 -20 15 -20 3 0 5 9 5 20 0 11 -7 20 -15 20
-13 0 -14 -4 -5 -20z"/>
<path d="M7350 15364 c0 -14 3 -14 15 -4 8 7 15 14 15 16 0 2 -7 4 -15 4 -8 0
-15 -7 -15 -16z"/>
<path d="M7390 15372 c0 -13 36 -43 43 -36 10 10 -12 44 -28 44 -8 0 -15 -4
-15 -8z"/>
<path d="M8016 15361 c-4 -5 -2 -12 4 -16 5 -3 10 -3 10 1 0 3 7 0 16 -7 14
-12 16 -11 13 6 -5 21 -33 32 -43 16z"/>
<path d="M8148 15363 c7 -3 16 -2 19 1 4 3 -2 6 -13 5 -11 0 -14 -3 -6 -6z"/>
<path d="M6474 15334 c3 -9 6 -18 6 -20 0 -2 9 -4 20 -4 23 0 26 10 8 28 -18
18 -41 15 -34 -4z"/>
<path d="M9100 15330 c0 -5 7 -10 15 -10 8 0 15 5 15 10 0 6 -7 10 -15 10 -8
0 -15 -4 -15 -10z"/>
<path d="M9230 15325 c-7 -8 -10 -18 -7 -21 9 -10 48 7 44 19 -6 18 -23 19
-37 2z"/>
<path d="M7270 15315 c0 -8 9 -15 20 -15 13 0 18 5 14 15 -4 8 -12 15 -20 15
-8 0 -14 -7 -14 -15z"/>
<path d="M8332 15323 c-15 -6 -6 -23 14 -23 8 0 14 7 14 15 0 15 -6 17 -28 8z"/>
<path d="M10603 15310 c-10 -11 -23 -20 -30 -20 -16 0 -17 -15 -1 -43 10 -20
10 -21 -5 -8 -10 8 -17 9 -17 3 0 -6 5 -14 10 -17 6 -4 8 -15 5 -25 -4 -13 0
-20 16 -25 26 -9 51 11 26 21 -22 8 -22 31 1 43 13 7 19 23 20 50 2 46 -1 49
-25 21z"/>
<path d="M10920 15305 c0 -10 10 -15 31 -15 27 0 30 2 19 15 -7 8 -21 15 -31
15 -11 0 -19 -7 -19 -15z"/>
<path d="M9080 15279 c0 -5 5 -7 10 -4 6 3 10 8 10 11 0 2 -4 4 -10 4 -5 0
-10 -5 -10 -11z"/>
<path d="M9180 15280 c0 -5 5 -10 10 -10 6 0 10 5 10 10 0 6 -4 10 -10 10 -5
0 -10 -4 -10 -10z"/>
<path d="M4676 15247 c-20 -21 -33 -43 -30 -49 9 -14 78 56 72 73 -4 10 -17 2
-42 -24z"/>
<path d="M7483 15265 c-3 -9 -3 -18 0 -21 9 -9 27 6 27 22 0 19 -19 18 -27 -1z"/>
<path d="M8048 15248 c-4 -20 0 -23 21 -22 33 1 37 37 5 42 -16 2 -23 -3 -26
-20z"/>
<path d="M9240 15259 c0 -5 -15 -16 -34 -24 -40 -17 -46 -24 -37 -46 9 -25 50
-5 62 31 6 16 15 30 20 30 5 0 9 5 9 10 0 6 -4 10 -10 10 -5 0 -10 -5 -10 -11z"/>
<path d="M8262 15248 c7 -19 38 -22 38 -4 0 10 -9 16 -21 16 -12 0 -19 -5 -17
-12z"/>
<path d="M8545 15250 c-3 -5 -1 -10 4 -10 6 0 11 5 11 10 0 6 -2 10 -4 10 -3
0 -8 -4 -11 -10z"/>
<path d="M4855 15229 c-10 -15 3 -25 16 -12 7 7 7 13 1 17 -6 3 -14 1 -17 -5z"/>
<path d="M7946 15224 c-7 -18 14 -65 25 -58 5 3 9 18 9 34 0 30 -25 48 -34 24z"/>
<path d="M9030 15209 c-7 -11 -9 -27 -6 -35 9 -23 35 -16 42 10 11 44 -16 63
-36 25z"/>
<path d="M10950 15223 c0 -5 4 -15 10 -23 11 -18 25 -7 17 15 -6 15 -27 21
-27 8z"/>
<path d="M4775 15210 c3 -5 8 -10 11 -10 2 0 4 5 4 10 0 6 -5 10 -11 10 -5 0
-7 -4 -4 -10z"/>
<path d="M6695 15210 c3 -5 11 -10 16 -10 6 0 7 5 4 10 -3 6 -11 10 -16 10 -6
0 -7 -4 -4 -10z"/>
<path d="M9125 15210 c-3 -5 -1 -10 4 -10 6 0 11 5 11 10 0 6 -2 10 -4 10 -3
0 -8 -4 -11 -10z"/>
<path d="M6877 15203 c-12 -11 -8 -23 8 -23 8 0 15 7 15 15 0 16 -12 20 -23 8z"/>
<path d="M7175 15200 c-8 -13 20 -24 36 -15 8 6 7 10 -2 16 -18 11 -26 11 -34
-1z"/>
<path d="M7674 15181 c28 -29 56 -41 56 -23 0 14 -32 39 -60 47 -25 7 -25 7 4
-24z"/>
<path d="M7485 15190 c-8 -13 4 -32 16 -25 12 8 12 35 0 35 -6 0 -13 -4 -16
-10z"/>
<path d="M7896 15183 c-6 -14 -5 -15 5 -6 7 7 10 15 7 18 -3 3 -9 -2 -12 -12z"/>
<path d="M8337 15184 c-10 -11 3 -24 24 -24 10 0 19 7 19 15 0 15 -31 21 -43
9z"/>
<path d="M8692 15144 c-12 -8 -22 -23 -22 -32 0 -15 2 -15 10 -2 9 13 12 13
21 -2 5 -10 21 -18 34 -18 20 0 25 5 25 26 0 23 -3 25 -26 20 -21 -6 -25 -4
-21 8 8 20 7 20 -21 0z"/>
<path d="M8915 15136 c-22 -16 -14 -46 13 -46 10 0 27 6 37 14 16 12 17 16 6
30 -16 20 -31 20 -56 2z"/>
<path d="M7795 15130 c-3 -5 -2 -17 3 -26 8 -14 10 -14 21 0 13 15 8 36 -9 36
-5 0 -12 -4 -15 -10z"/>
<path d="M4890 15112 c0 -10 21 -32 32 -32 16 0 8 19 -12 30 -11 6 -20 7 -20
2z"/>
<path d="M5375 15110 c-4 -6 3 -10 14 -10 25 0 27 6 6 13 -8 4 -17 2 -20 -3z"/>
<path d="M7257 15103 c-16 -16 -6 -43 16 -43 31 0 51 15 44 34 -6 16 -47 22
-60 9z"/>
<path d="M9020 15100 c0 -5 5 -10 10 -10 6 0 10 5 10 10 0 6 -4 10 -10 10 -5
0 -10 -4 -10 -10z"/>
<path d="M8518 15087 c-41 -16 -34 -32 17 -34 41 -2 43 -1 36 19 -10 27 -18
29 -53 15z"/>
<path d="M10754 15085 c-10 -26 6 -38 27 -19 10 9 19 21 19 26 0 14 -40 9 -46
-7z"/>
<path d="M8780 15080 c0 -5 5 -10 11 -10 5 0 7 5 4 10 -3 6 -8 10 -11 10 -2 0
-4 -4 -4 -10z"/>
<path d="M9160 15069 c0 -25 33 -22 38 4 2 12 -3 17 -17 17 -15 0 -21 -6 -21
-21z"/>
<path d="M5470 15060 c0 -5 5 -10 11 -10 5 0 7 5 4 10 -3 6 -8 10 -11 10 -2 0
-4 -4 -4 -10z"/>
<path d="M6940 15060 c0 -5 5 -10 10 -10 6 0 10 5 10 10 0 6 -4 10 -10 10 -5
0 -10 -4 -10 -10z"/>
<path d="M7430 15058 c0 -5 8 -11 18 -15 9 -3 25 -13 35 -21 27 -24 43 -1 16
24 -21 19 -69 27 -69 12z"/>
<path d="M4814 15044 c3 -9 6 -18 6 -20 0 -2 5 -4 10 -4 6 0 10 9 10 20 0 12
-7 20 -16 20 -11 0 -14 -5 -10 -16z"/>
<path d="M5265 15040 c3 -5 8 -10 11 -10 2 0 4 5 4 10 0 6 -5 10 -11 10 -5 0
-7 -4 -4 -10z"/>
<path d="M4975 15030 c3 -5 8 -10 11 -10 2 0 4 5 4 10 0 6 -5 10 -11 10 -5 0
-7 -4 -4 -10z"/>
<path d="M9212 15029 c2 -6 8 -10 13 -10 5 0 11 4 13 10 2 6 -4 11 -13 11 -9
0 -15 -5 -13 -11z"/>
<path d="M7531 15025 c0 -5 6 -19 14 -29 8 -11 15 -15 15 -10 0 6 -7 19 -15
30 -8 10 -14 15 -14 9z"/>
<path d="M7613 15023 c-23 -9 -14 -42 17 -58 16 -8 31 -15 35 -15 13 0 3 49
-13 63 -20 18 -20 18 -39 10z"/>
<path d="M8150 15005 c-20 -38 -1 -74 37 -67 15 3 33 12 38 19 9 12 15 11 38
-7 l28 -22 -6 28 c-4 16 -8 34 -10 40 -1 5 -25 11 -51 13 -27 1 -51 6 -54 12
-4 5 -12 -2 -20 -16z"/>
<path d="M8418 15009 c-20 -11 -25 -43 -6 -37 14 5 43 48 32 48 -5 0 -17 -5
-26 -11z"/>
<path d="M8670 14997 c0 -8 7 -18 16 -21 11 -4 14 -1 12 11 -4 21 -28 30 -28
10z"/>
<path d="M4957 14982 c-23 -25 -21 -45 6 -70 27 -26 87 -31 87 -7 0 10 -10 15
-29 15 -31 0 -57 23 -46 40 4 7 16 10 26 7 10 -3 22 -1 25 4 3 5 11 6 17 2 7
-4 6 0 -2 10 -18 22 -64 22 -84 -1z"/>
<path d="M10731 14974 c-11 -15 -21 -33 -21 -40 0 -18 20 -28 32 -16 6 6 6 12
-1 16 -7 5 -6 15 5 32 23 34 11 41 -15 8z"/>
<path d="M7750 14985 c0 -11 24 -55 30 -55 4 0 14 7 21 16 11 14 10 18 -6 30
-18 13 -45 19 -45 9z"/>
<path d="M5095 14960 c3 -5 11 -10 16 -10 6 0 7 5 4 10 -3 6 -11 10 -16 10 -6
0 -7 -4 -4 -10z"/>
<path d="M7470 14944 c-13 -32 -5 -43 18 -26 9 7 25 15 35 18 9 4 17 11 17 16
0 5 -6 8 -12 5 -7 -2 -21 0 -31 5 -14 7 -19 3 -27 -18z"/>
<path d="M10610 14954 c0 -14 3 -14 15 -4 8 7 15 14 15 16 0 2 -7 4 -15 4 -8
0 -15 -7 -15 -16z"/>
<path d="M7272 14941 c2 -7 7 -12 11 -12 12 1 9 15 -3 20 -7 2 -11 -2 -8 -8z"/>
<path d="M5701 14924 c0 -11 3 -14 6 -6 3 7 2 16 -1 19 -3 4 -6 -2 -5 -13z"/>
<path d="M7925 14930 c-3 -5 -1 -10 4 -10 6 0 11 5 11 10 0 6 -2 10 -4 10 -3
0 -8 -4 -11 -10z"/>
<path d="M10620 14905 c-7 -9 -10 -19 -6 -22 8 -9 38 9 44 25 5 17 -23 15 -38
-3z"/>
<path d="M5280 14890 c0 -5 6 -10 14 -10 8 0 18 5 21 10 3 6 -3 10 -14 10 -12
0 -21 -4 -21 -10z"/>
<path d="M5740 14884 c0 -8 5 -12 10 -9 6 4 8 11 5 16 -9 14 -15 11 -15 -7z"/>
<path d="M6735 14876 c-11 -8 -18 -17 -15 -19 9 -9 61 5 57 16 -5 17 -21 18
-42 3z"/>
<path d="M7250 14882 c0 -4 9 -13 20 -20 11 -7 20 -9 20 -4 0 4 -9 13 -20 20
-11 7 -20 9 -20 4z"/>
<path d="M7550 14880 c0 -5 5 -10 10 -10 6 0 10 5 10 10 0 6 -4 10 -10 10 -5
0 -10 -4 -10 -10z"/>
<path d="M7440 14871 c0 -13 29 -35 37 -28 7 8 -15 37 -28 37 -5 0 -9 -4 -9
-9z"/>
<path d="M8197 14873 c-9 -9 -8 -25 2 -41 7 -12 14 -11 40 2 42 22 41 46 -2
46 -19 0 -37 -3 -40 -7z"/>
<path d="M9730 14864 c0 -17 22 -14 28 4 2 7 -3 12 -12 12 -9 0 -16 -7 -16
-16z"/>
<path d="M10230 14870 c0 -5 5 -10 10 -10 6 0 10 5 10 10 0 6 -4 10 -10 10 -5
0 -10 -4 -10 -10z"/>
<path d="M5815 14859 c-4 -6 -5 -13 -2 -16 7 -7 27 6 27 18 0 12 -17 12 -25
-2z"/>
<path d="M9665 14860 c3 -5 8 -10 11 -10 2 0 4 5 4 10 0 6 -5 10 -11 10 -5 0
-7 -4 -4 -10z"/>
<path d="M5710 14841 c0 -10 7 -21 15 -25 11 -4 15 1 15 19 0 16 -6 25 -15 25
-8 0 -15 -9 -15 -19z"/>
<path d="M7735 14846 c-16 -12 -17 -16 -6 -30 10 -12 17 -14 27 -5 18 15 44 4
44 -19 0 -25 9 -32 29 -22 9 5 25 11 36 15 18 5 17 8 -10 30 -17 13 -35 23
-40 21 -6 -2 -19 2 -30 10 -23 17 -27 17 -50 0z"/>
<path d="M9945 14850 c3 -5 8 -10 11 -10 2 0 4 5 4 10 0 6 -5 10 -11 10 -5 0
-7 -4 -4 -10z"/>
<path d="M10632 14840 c-7 -11 -12 -25 -12 -32 1 -7 8 0 16 15 18 33 14 46 -4
17z"/>
<path d="M5200 14841 c0 -5 7 -14 15 -21 16 -14 18 -10 9 14 -6 17 -24 22 -24
7z"/>
<path d="M7605 14842 c-12 -12 -3 -23 32 -37 37 -16 63 -14 63 4 0 20 -80 48
-95 33z"/>
<path d="M7197 14833 c-12 -11 -8 -23 8 -23 8 0 15 7 15 15 0 16 -12 20 -23 8z"/>
<path d="M8676 14821 c-11 -12 -16 -24 -12 -28 9 -9 39 22 34 37 -2 7 -10 4
-22 -9z"/>
<path d="M9970 14830 c0 -5 5 -10 10 -10 6 0 10 5 10 10 0 6 -4 10 -10 10 -5
0 -10 -4 -10 -10z"/>
<path d="M5580 14814 c0 -8 5 -12 10 -9 6 3 10 10 10 16 0 5 -4 9 -10 9 -5 0
-10 -7 -10 -16z"/>
<path d="M10139 14802 c-29 -24 -11 -36 20 -13 14 11 19 21 13 25 -5 3 -20 -2
-33 -12z"/>
<path d="M6893 14793 c-7 -2 -13 -9 -13 -14 0 -14 26 -10 40 6 10 12 10 15 -1
14 -8 0 -20 -3 -26 -6z"/>
<path d="M7372 14783 c4 -23 58 -31 58 -10 0 15 -20 27 -47 27 -8 0 -13 -7
-11 -17z"/>
<path d="M7510 14790 c0 -12 50 -34 58 -25 8 8 -9 22 -35 30 -14 4 -23 2 -23
-5z"/>
<path d="M9890 14772 c0 -14 -9 -21 -30 -25 -21 -5 -30 -12 -30 -27 0 -21 33
-29 45 -10 3 6 15 10 26 10 12 0 23 10 30 26 11 30 12 29 -18 38 -18 6 -23 3
-23 -12z"/>
<path d="M10510 14780 c0 -5 5 -10 11 -10 5 0 7 5 4 10 -3 6 -8 10 -11 10 -2
0 -4 -4 -4 -10z"/>
<path d="M6055 14769 c-9 -14 -2 -20 14 -10 8 6 9 11 3 15 -6 3 -14 1 -17 -5z"/>
<path d="M5390 14760 c0 -5 5 -10 10 -10 6 0 10 5 10 10 0 6 -4 10 -10 10 -5
0 -10 -4 -10 -10z"/>
<path d="M7745 14761 c-3 -5 -1 -12 5 -16 5 -3 10 1 10 9 0 18 -6 21 -15 7z"/>
<path d="M8323 14754 c-3 -8 -1 -20 6 -27 8 -8 11 -8 11 0 0 6 3 18 6 27 3 9
1 16 -5 16 -7 0 -14 -7 -18 -16z"/>
<path d="M5195 14740 c-3 -5 -2 -10 4 -10 5 0 13 5 16 10 3 6 2 10 -4 10 -5 0
-13 -4 -16 -10z"/>
<path d="M9330 14740 c0 -5 5 -10 10 -10 6 0 10 5 10 10 0 6 -4 10 -10 10 -5
0 -10 -4 -10 -10z"/>
<path d="M5800 14732 c0 -4 14 -13 30 -19 34 -13 39 -7 13 13 -20 15 -43 18
-43 6z"/>
<path d="M5245 14717 c-4 -10 -5 -21 -1 -24 10 -10 18 4 13 24 -4 17 -4 17
-12 0z"/>
<path d="M5310 14714 c0 -14 3 -15 18 -3 9 7 19 15 21 16 2 2 -5 3 -17 3 -14
0 -22 -6 -22 -16z"/>
<path d="M5881 14694 c0 -11 3 -14 6 -6 3 7 2 16 -1 19 -3 4 -6 -2 -5 -13z"/>
<path d="M7730 14701 c0 -5 7 -11 15 -15 9 -3 15 0 15 9 0 8 -7 15 -15 15 -8
0 -15 -4 -15 -9z"/>
<path d="M6035 14690 c3 -5 8 -10 11 -10 2 0 4 5 4 10 0 6 -5 10 -11 10 -5 0
-7 -4 -4 -10z"/>
<path d="M6320 14680 c0 -5 5 -10 10 -10 6 0 10 5 10 10 0 6 -4 10 -10 10 -5
0 -10 -4 -10 -10z"/>
<path d="M8225 14679 c-10 -15 3 -25 16 -12 7 7 7 13 1 17 -6 3 -14 1 -17 -5z"/>
<path d="M9782 14681 c2 -7 7 -12 11 -12 12 1 9 15 -3 20 -7 2 -11 -2 -8 -8z"/>
<path d="M8865 14670 c-3 -5 -1 -10 4 -10 6 0 11 5 11 10 0 6 -2 10 -4 10 -3
0 -8 -4 -11 -10z"/>
<path d="M10380 14676 c0 -2 7 -6 15 -10 8 -3 15 -1 15 4 0 6 -7 10 -15 10 -8
0 -15 -2 -15 -4z"/>
<path d="M5280 14657 c0 -8 7 -17 15 -21 8 -3 15 -2 15 3 0 5 -7 14 -15 21
-12 10 -15 10 -15 -3z"/>
<path d="M7490 14666 c0 -2 7 -6 15 -10 8 -3 15 -1 15 4 0 6 -7 10 -15 10 -8
0 -15 -2 -15 -4z"/>
<path d="M7557 14664 c-4 -4 -7 -16 -7 -26 0 -20 25 -25 36 -7 8 13 -19 43
-29 33z"/>
<path d="M8082 14658 c6 -18 28 -21 28 -4 0 9 -7 16 -16 16 -9 0 -14 -5 -12
-12z"/>
<path d="M9440 14660 c0 -5 5 -10 10 -10 6 0 10 5 10 10 0 6 -4 10 -10 10 -5
0 -10 -4 -10 -10z"/>
<path d="M9996 14662 c-3 -6 1 -15 8 -21 8 -7 17 -8 20 -3 3 6 -1 15 -8 21 -8
7 -17 8 -20 3z"/>
<path d="M10183 14658 c-25 -32 -27 -42 -7 -34 10 4 25 9 32 10 7 1 12 5 12 9
0 4 0 12 0 17 0 14 -26 12 -37 -2z"/>
<path d="M10302 14659 c2 -7 10 -15 17 -17 8 -3 12 1 9 9 -2 7 -10 15 -17 17
-8 3 -12 -1 -9 -9z"/>
<path d="M5330 14650 c0 -5 5 -10 11 -10 5 0 7 5 4 10 -3 6 -8 10 -11 10 -2 0
-4 -4 -4 -10z"/>
<path d="M8020 14650 c0 -5 7 -10 15 -10 8 0 15 5 15 10 0 6 -7 10 -15 10 -8
0 -15 -4 -15 -10z"/>
<path d="M8150 14650 c0 -5 5 -10 10 -10 6 0 10 5 10 10 0 6 -4 10 -10 10 -5
0 -10 -4 -10 -10z"/>
<path d="M10252 14648 c-7 -7 -12 -24 -12 -40 l0 -27 30 17 c35 20 36 24 12
45 -14 13 -21 14 -30 5z"/>
<path d="M6352 14633 c2 -10 11 -19 21 -21 24 -5 21 15 -4 28 -18 10 -20 9
-17 -7z"/>
<path d="M8285 14641 c-3 -5 -1 -12 5 -16 5 -3 10 1 10 9 0 18 -6 21 -15 7z"/>
<path d="M10110 14640 c0 -5 5 -10 11 -10 5 0 7 5 4 10 -3 6 -8 10 -11 10 -2
0 -4 -4 -4 -10z"/>
<path d="M8425 14623 c-17 -16 -10 -37 8 -26 6 4 24 6 39 5 37 -3 36 11 -2 25
-25 9 -33 9 -45 -4z"/>
<path d="M6497 14623 c-4 -3 -7 -11 -7 -17 0 -6 5 -5 12 2 6 6 9 14 7 17 -3 3
-9 2 -12 -2z"/>
<path d="M9705 14620 c3 -5 8 -10 11 -10 2 0 4 5 4 10 0 6 -5 10 -11 10 -5 0
-7 -4 -4 -10z"/>
<path d="M6060 14605 c0 -8 9 -15 20 -15 11 0 20 7 20 15 0 8 -9 15 -20 15
-11 0 -20 -7 -20 -15z"/>
<path d="M6735 14610 c-3 -5 -1 -10 4 -10 6 0 11 5 11 10 0 6 -2 10 -4 10 -3
0 -8 -4 -11 -10z"/>
<path d="M8086 14605 c-3 -9 0 -15 9 -15 8 0 15 7 15 15 0 8 -4 15 -9 15 -5 0
-11 -7 -15 -15z"/>
<path d="M9590 14610 c0 -5 5 -10 11 -10 5 0 7 5 4 10 -3 6 -8 10 -11 10 -2 0
-4 -4 -4 -10z"/>
<path d="M5430 14586 c0 -8 5 -18 10 -21 6 -3 10 1 10 9 0 8 -4 18 -10 21 -5
3 -10 -1 -10 -9z"/>
<path d="M7762 14583 c5 -24 25 -27 31 -3 4 15 0 20 -15 20 -13 0 -18 -6 -16
-17z"/>
<path d="M7890 14590 c0 -5 9 -10 20 -10 11 0 20 5 20 10 0 6 -9 10 -20 10
-11 0 -20 -4 -20 -10z"/>
<path d="M7990 14583 c0 -11 7 -28 15 -39 14 -18 15 -17 13 15 -3 36 -28 57
-28 24z"/>
<path d="M8162 14588 c3 -7 12 -14 21 -16 12 -2 15 1 11 12 -7 19 -38 22 -32
4z"/>
<path d="M10040 14586 c0 -8 -6 -16 -12 -19 -10 -4 -10 -7 0 -18 10 -11 15
-10 28 3 9 9 14 24 11 32 -8 20 -27 21 -27 2z"/>
<path d="M5518 14583 c-2 -5 -1 -24 3 -43 5 -30 7 -31 8 -8 0 14 4 33 7 42 6
16 -11 23 -18 9z"/>
<path d="M6330 14580 c0 -5 5 -10 10 -10 6 0 10 5 10 10 0 6 -4 10 -10 10 -5
0 -10 -4 -10 -10z"/>
<path d="M6567 14584 c-14 -14 -6 -24 19 -24 16 0 24 5 22 13 -5 14 -31 21
-41 11z"/>
<path d="M6800 14580 c0 -5 5 -10 11 -10 5 0 7 5 4 10 -3 6 -8 10 -11 10 -2 0
-4 -4 -4 -10z"/>
<path d="M8220 14580 c0 -14 62 -69 78 -70 24 0 12 18 -19 29 -17 6 -33 20
-36 31 -5 20 -23 28 -23 10z"/>
<path d="M6200 14556 c0 -19 4 -24 15 -19 18 6 16 34 -2 41 -8 2 -13 -6 -13
-22z"/>
<path d="M6650 14570 c0 -5 7 -10 15 -10 8 0 15 5 15 10 0 6 -7 10 -15 10 -8
0 -15 -4 -15 -10z"/>
<path d="M8556 14564 c-4 -10 -1 -14 6 -12 15 5 23 28 10 28 -5 0 -13 -7 -16
-16z"/>
<path d="M9340 14571 c0 -6 4 -13 10 -16 6 -3 7 1 4 9 -7 18 -14 21 -14 7z"/>
<path d="M9630 14571 c0 -12 29 -35 36 -28 11 10 -5 37 -21 37 -8 0 -15 -4
-15 -9z"/>
<path d="M10113 14558 c-32 -37 -35 -47 -17 -65 16 -16 16 -16 9 7 -7 22 -6
23 8 12 9 -8 18 -9 21 -3 4 5 2 13 -4 16 -8 5 -6 15 5 31 20 30 5 31 -22 2z"/>
<path d="M6132 14558 c-6 -6 -12 -18 -12 -25 0 -21 28 -15 41 8 6 13 7 19 1
15 -6 -3 -12 -1 -14 4 -2 7 -8 6 -16 -2z"/>
<path d="M6410 14553 c0 -29 7 -32 48 -17 20 7 48 10 61 7 17 -4 22 -2 19 8
-3 8 -10 13 -16 12 -24 -6 -68 -4 -89 2 -19 6 -23 3 -23 -12z"/>
<path d="M6735 14560 c3 -5 13 -10 21 -10 8 0 14 5 14 10 0 6 -9 10 -21 10
-11 0 -17 -4 -14 -10z"/>
<path d="M5640 14551 c0 -6 5 -13 10 -16 6 -3 10 1 10 9 0 9 -4 16 -10 16 -5
0 -10 -4 -10 -9z"/>
<path d="M10170 14545 c0 -17 2 -18 24 -9 23 9 20 24 -4 24 -11 0 -20 -7 -20
-15z"/>
<path d="M9847 14543 c-4 -3 -7 -11 -7 -17 0 -6 5 -5 12 2 6 6 9 14 7 17 -3 3
-9 2 -12 -2z"/>
<path d="M6695 14530 c-3 -5 1 -10 9 -10 9 0 16 5 16 10 0 6 -4 10 -9 10 -6 0
-13 -4 -16 -10z"/>
<path d="M7890 14515 c0 -8 2 -15 4 -15 2 0 6 7 10 15 3 8 1 15 -4 15 -6 0
-10 -7 -10 -15z"/>
<path d="M9340 14515 c0 -8 5 -15 10 -15 6 0 10 7 10 15 0 8 -4 15 -10 15 -5
0 -10 -7 -10 -15z"/>
<path d="M6498 14515 c-3 -3 -3 -17 0 -31 5 -30 30 -43 43 -23 12 19 11 25 -7
43 -16 17 -27 20 -36 11z"/>
<path d="M6570 14505 c0 -9 9 -15 24 -15 20 0 24 -6 30 -40 l6 -40 55 0 c41 0
55 4 55 14 0 19 -20 31 -43 28 -10 -2 -36 13 -58 32 -41 38 -69 46 -69 21z"/>
<path d="M6750 14501 c-16 -32 -12 -61 9 -61 11 0 22 -10 26 -22 6 -20 8 -21
12 -5 3 10 -3 27 -12 37 -10 11 -15 26 -11 36 6 15 8 15 31 0 22 -14 25 -14
25 -2 0 17 -29 36 -54 36 -8 0 -20 -9 -26 -19z"/>
<path d="M6870 14484 c0 -9 -9 -23 -21 -32 -13 -11 -18 -23 -14 -35 13 -31 39
-19 53 23 16 51 15 60 -3 60 -8 0 -15 -7 -15 -16z"/>
<path d="M6950 14485 c-7 -9 -11 -18 -8 -20 7 -8 38 5 38 15 0 17 -18 19 -30
5z"/>
<path d="M8030 14493 c0 -16 16 -30 38 -35 26 -7 29 4 6 26 -16 17 -44 22 -44
9z"/>
<path d="M8694 14485 c-4 -8 -3 -22 0 -31 10 -25 -4 -37 -19 -17 -12 15 -17
16 -34 6 -34 -21 -44 -16 -37 17 6 34 -8 40 -26 10 -17 -27 -31 -25 -22 2 6
21 6 21 -18 6 -14 -9 -35 -14 -51 -11 -21 4 -26 2 -22 -10 7 -16 56 -31 91
-28 24 2 54 -23 54 -45 0 -12 -4 -12 -20 -4 -12 6 -29 8 -39 5 -12 -3 -30 4
-48 19 -20 16 -34 22 -43 16 -8 -5 -17 -7 -21 -4 -4 2 -11 -1 -15 -7 -4 -8
-19 2 -40 27 -24 28 -36 36 -42 27 -6 -10 -12 -10 -28 2 -10 8 -27 15 -37 15
-15 0 -17 -7 -13 -50 4 -39 2 -50 -9 -50 -8 0 -19 -9 -25 -20 -6 -11 -17 -20
-26 -20 -11 0 -13 -7 -8 -27 l7 -28 -22 23 c-28 29 -41 28 -41 -3 0 -15 10
-31 26 -41 18 -13 24 -24 21 -40 -8 -44 9 -51 45 -18 51 47 98 35 103 -27 2
-23 -4 -38 -21 -54 -13 -12 -24 -26 -24 -31 0 -4 5 -3 11 3 6 6 18 9 25 6 8
-3 23 6 34 20 11 14 43 33 70 42 53 18 62 35 39 77 -15 27 -7 31 29 12 28 -13
31 -19 25 -46 l-6 -31 39 6 c25 4 49 17 67 37 26 28 56 33 40 7 -3 -7 3 -4 15
6 11 11 26 16 31 12 19 -11 12 -24 -14 -31 -14 -4 -24 -11 -22 -17 7 -23 27
-17 66 22 22 22 43 36 46 30 4 -5 2 -16 -4 -23 -8 -10 -7 -17 4 -26 11 -9 15
-9 15 -1 0 7 5 9 10 6 12 -8 13 5 1 24 -24 38 60 88 125 75 22 -4 34 0 48 15
11 12 29 21 40 21 38 1 74 24 110 73 35 46 38 67 3 27 -21 -25 -43 -26 -56 -2
-10 16 -10 16 -11 0 0 -10 -4 -18 -10 -18 -5 0 -10 8 -10 17 0 13 -3 14 -12 5
-7 -7 -20 -12 -30 -12 -10 0 -18 -6 -18 -14 0 -9 -13 -13 -40 -13 -22 0 -46
-6 -54 -12 -11 -9 -15 -8 -20 4 -3 8 -14 15 -24 15 -30 0 -48 26 -32 45 7 9
10 18 7 21 -3 4 -18 -8 -32 -25 -25 -29 -60 -47 -38 -18 6 6 13 22 16 35 4 19
2 22 -13 17 -10 -3 -21 -1 -25 5 -9 15 -35 12 -41 -5z m43 -47 c-15 -9 -19 -4
-11 16 5 14 9 15 15 5 5 -8 3 -17 -4 -21z m-413 -28 c30 -11 35 -40 8 -40 -11
0 -24 11 -30 25 -13 28 -13 29 22 15z m141 -19 c3 -5 1 -12 -5 -16 -5 -3 -10
1 -10 9 0 18 6 21 15 7z m345 -1 c0 -5 -2 -10 -4 -10 -3 0 -8 5 -11 10 -3 6
-1 10 4 10 6 0 11 -4 11 -10z m-130 -22 c0 -7 -5 -20 -10 -28 -12 -20 -33 0
-24 23 7 20 34 23 34 5z m-113 -21 c7 -5 10 -13 7 -18 -8 -13 -44 9 -44 27 0
15 10 13 37 -9z m170 6 c5 -14 -35 -24 -43 -11 -7 11 15 29 30 25 6 -2 11 -8
13 -14z m-436 -22 c23 -19 23 -20 6 -39 -10 -11 -27 -22 -39 -25 -17 -5 -19
-2 -12 21 4 15 7 35 8 45 0 22 8 22 37 -2z m143 3 c11 -27 7 -37 -9 -24 -16
14 -20 40 -6 40 5 0 12 -7 15 -16z m388 -26 c-6 -6 -15 -8 -19 -4 -4 4 -1 11
7 16 19 12 27 3 12 -12z m-465 -145 c-12 -13 -15 -13 -20 0 -3 9 1 21 9 27 8
7 15 20 15 29 1 9 4 3 6 -13 3 -17 -1 -35 -10 -43z"/>
<path d="M8877 14494 c-8 -8 1 -24 14 -24 5 0 9 7 9 15 0 15 -12 20 -23 9z"/>
<path d="M9524 14485 c-16 -12 -16 -14 -3 -15 9 0 22 7 29 15 16 19 0 19 -26
0z"/>
<path d="M5640 14481 c0 -5 7 -14 15 -21 9 -7 14 -21 13 -31 -4 -23 16 -30 20
-7 2 10 -5 29 -15 42 -18 26 -33 33 -33 17z"/>
<path d="M7700 14481 c0 -5 5 -13 10 -16 6 -3 10 -2 10 4 0 5 -4 13 -10 16 -5
3 -10 2 -10 -4z"/>
<path d="M9610 14483 c0 -5 5 -15 10 -23 7 -11 12 -12 21 -3 6 6 8 16 5 22 -8
12 -36 15 -36 4z"/>
<path d="M6462 14464 c4 -21 22 -23 26 -1 2 10 -3 17 -13 17 -10 0 -15 -6 -13
-16z"/>
<path d="M8940 14465 c0 -8 7 -15 15 -15 8 0 15 7 15 15 0 8 -7 15 -15 15 -8
0 -15 -7 -15 -15z"/>
<path d="M9283 14473 c-7 -3 -13 -13 -13 -24 0 -17 -3 -18 -21 -9 -11 7 -23 9
-26 6 -7 -7 26 -46 37 -46 9 0 70 55 70 63 0 7 -34 14 -47 10z"/>
<path d="M8146 14451 c-3 -4 0 -16 7 -25 12 -17 14 -17 27 -1 12 14 12 18 -1
26 -18 11 -26 11 -33 0z"/>
<path d="M6390 14440 c0 -5 5 -10 11 -10 5 0 7 5 4 10 -3 6 -8 10 -11 10 -2 0
-4 -4 -4 -10z"/>
<path d="M7955 14439 c-10 -15 3 -25 16 -12 7 7 7 13 1 17 -6 3 -14 1 -17 -5z"/>
<path d="M9800 14434 c0 -8 5 -12 10 -9 6 3 10 10 10 16 0 5 -4 9 -10 9 -5 0
-10 -7 -10 -16z"/>
<path d="M7014 14424 c3 -9 6 -17 6 -20 0 -2 7 -1 15 2 12 5 13 10 4 20 -16
19 -33 18 -25 -2z"/>
<path d="M9922 14428 c-17 -17 -15 -45 4 -52 9 -4 18 -5 18 -4 6 10 26 60 26
63 0 10 -37 4 -48 -7z"/>
<path d="M5765 14420 c-3 -6 1 -13 10 -16 19 -8 30 0 20 15 -8 14 -22 14 -30
1z"/>
<path d="M9635 14420 c3 -5 8 -10 11 -10 2 0 4 5 4 10 0 6 -5 10 -11 10 -5 0
-7 -4 -4 -10z"/>
<path d="M9672 14418 c6 -18 28 -21 28 -4 0 9 -7 16 -16 16 -9 0 -14 -5 -12
-12z"/>
<path d="M9737 14401 c-3 -12 -1 -21 3 -21 15 0 23 21 12 32 -6 6 -11 2 -15
-11z"/>
<path d="M6903 14398 c-11 -14 -2 -51 16 -62 6 -4 20 -2 31 4 32 17 24 64 -11
68 -14 2 -30 -3 -36 -10z"/>
<path d="M10000 14401 c0 -6 5 -13 10 -16 6 -3 10 1 10 9 0 9 -4 16 -10 16 -5
0 -10 -4 -10 -9z"/>
<path d="M5702 14388 c-14 -14 -16 -38 -3 -38 10 0 26 39 19 46 -2 2 -10 -2
-16 -8z"/>
<path d="M7997 14386 c-3 -8 -2 -18 3 -21 13 -8 24 15 12 27 -6 6 -11 4 -15
-6z"/>
<path d="M8044 14389 c-13 -22 12 -30 31 -9 18 19 18 20 -3 20 -11 0 -24 -5
-28 -11z"/>
<path d="M7960 14376 c0 -9 5 -16 10 -16 6 0 10 4 10 9 0 6 -4 13 -10 16 -5 3
-10 -1 -10 -9z"/>
<path d="M5817 14374 c-4 -4 -4 -10 -1 -15 6 -10 34 0 34 12 0 10 -24 12 -33
3z"/>
<path d="M6557 14358 c-10 -38 12 -57 57 -49 4 1 14 -3 21 -9 9 -7 16 -6 24 4
10 11 5 15 -26 23 -27 6 -38 14 -38 27 0 26 -32 29 -38 4z"/>
<path d="M7475 14370 c-3 -5 -1 -10 4 -10 6 0 11 5 11 10 0 6 -2 10 -4 10 -3
0 -8 -4 -11 -10z"/>
<path d="M6719 14357 c15 -19 41 -23 41 -7 0 6 -4 10 -9 10 -5 0 -18 3 -28 7
-16 6 -16 5 -4 -10z"/>
<path d="M9130 14360 c0 -5 4 -10 9 -10 6 0 13 5 16 10 3 6 -1 10 -9 10 -9 0
-16 -4 -16 -10z"/>
<path d="M9504 14354 c3 -9 6 -20 6 -25 0 -6 4 -8 9 -5 12 8 2 46 -11 46 -6 0
-7 -7 -4 -16z"/>
<path d="M5735 14349 c-9 -14 -2 -20 14 -10 8 6 9 11 3 15 -6 3 -14 1 -17 -5z"/>
<path d="M8017 14354 c-9 -9 4 -35 14 -28 5 3 9 12 9 20 0 14 -12 19 -23 8z"/>
<path d="M9645 14349 c-10 -15 3 -25 16 -12 7 7 7 13 1 17 -6 3 -14 1 -17 -5z"/>
<path d="M5995 14340 c3 -5 8 -10 11 -10 2 0 4 5 4 10 0 6 -5 10 -11 10 -5 0
-7 -4 -4 -10z"/>
<path d="M6060 14339 c0 -5 5 -7 10 -4 6 3 10 8 10 11 0 2 -4 4 -10 4 -5 0
-10 -5 -10 -11z"/>
<path d="M7160 14337 c0 -19 26 -41 40 -32 12 8 13 35 1 35 -5 0 -16 3 -25 6
-10 4 -16 1 -16 -9z"/>
<path d="M6852 14328 c3 -7 13 -15 22 -16 12 -3 17 1 14 10 -3 7 -13 15 -22
16 -12 3 -17 -1 -14 -10z"/>
<path d="M7237 14334 c-13 -13 -7 -24 14 -24 11 0 19 5 17 12 -5 14 -22 21
-31 12z"/>
<path d="M7946 14332 c-3 -6 -1 -14 5 -17 15 -10 25 3 12 16 -7 7 -13 7 -17 1z"/>
<path d="M7383 14313 c-3 -10 -8 -21 -10 -25 -2 -4 1 -9 6 -13 10 -6 51 32 51
47 0 16 -41 8 -47 -9z"/>
<path d="M7691 14307 c-26 -29 -26 -32 0 -58 26 -26 21 -40 -24 -62 -20 -10
-37 -23 -37 -28 0 -6 -9 -7 -20 -4 -24 8 -28 -20 -4 -29 25 -9 30 -8 64 20 41
35 75 106 62 131 -5 10 -7 23 -5 30 8 22 -14 22 -36 0z"/>
<path d="M7786 14321 c-3 -4 3 -16 13 -25 22 -20 40 -4 21 19 -14 17 -26 19
-34 6z"/>
<path d="M5760 14310 c0 -14 48 -35 58 -26 8 9 -26 36 -45 36 -7 0 -13 -5 -13
-10z"/>
<path d="M5856 14313 c-14 -14 -4 -33 17 -33 13 0 28 -5 35 -12 9 -9 12 -9 12
0 0 7 -4 12 -8 12 -5 0 -18 9 -29 19 -12 11 -24 17 -27 14z"/>
<path d="M9572 14313 c-11 -4 -42 -54 -42 -68 0 -13 19 7 39 40 11 19 19 35
18 34 -1 0 -8 -3 -15 -6z"/>
<path d="M7336 14303 c-11 -11 -6 -23 9 -23 8 0 15 4 15 9 0 13 -16 22 -24 14z"/>
<path d="M9235 14301 c-6 -11 9 -23 19 -14 9 9 7 23 -3 23 -6 0 -12 -4 -16 -9z"/>
<path d="M9401 14291 c2 -13 12 -29 21 -35 29 -18 30 0 3 30 -27 29 -27 29
-24 5z"/>
<path d="M6900 14280 c0 -13 11 -25 33 -33 43 -18 53 -1 17 29 -34 29 -50 30
-50 4z"/>
<path d="M5969 14270 c-13 -10 -19 -19 -12 -20 6 0 15 5 18 10 3 6 15 10 26
10 10 0 19 5 19 10 0 16 -26 11 -51 -10z"/>
<path d="M6420 14282 c0 -5 12 -14 27 -21 28 -13 28 -13 9 8 -20 22 -36 27
-36 13z"/>
<path d="M6980 14280 c0 -5 5 -10 10 -10 6 0 10 5 10 10 0 6 -4 10 -10 10 -5
0 -10 -4 -10 -10z"/>
<path d="M7590 14276 c0 -8 6 -16 13 -19 19 -7 41 8 33 22 -10 16 -46 14 -46
-3z"/>
<path d="M7914 14256 c1 -14 8 -21 20 -21 28 0 30 18 2 31 -20 9 -23 8 -22
-10z"/>
<path d="M8061 14266 c-10 -12 -18 -13 -33 -5 -11 6 -27 8 -36 4 -16 -6 -16
-7 -1 -15 13 -8 15 -18 9 -50 -6 -30 -4 -43 8 -52 13 -11 15 -10 10 9 -7 27
16 50 35 36 6 -6 25 -13 40 -15 43 -8 86 54 55 80 -25 19 -74 24 -87 8z m59
-48 c0 -11 -5 -15 -14 -12 -20 8 -29 36 -14 45 14 9 28 -7 28 -33z"/>
<path d="M8956 14264 c-21 -20 -22 -84 -2 -84 8 0 17 4 21 9 3 5 19 12 36 16
31 7 46 26 34 45 -4 6 -19 0 -41 -16 -32 -25 -34 -25 -34 -6 0 11 7 23 16 26
8 3 12 10 9 16 -9 14 -21 12 -39 -6z"/>
<path d="M9117 14273 c-12 -11 -8 -23 8 -23 25 0 17 -19 -11 -26 -16 -4 -24
-12 -22 -23 4 -18 82 -28 93 -11 3 5 -1 10 -9 10 -10 0 -16 9 -16 22 0 20 1
21 20 3 17 -16 20 -16 26 -2 7 19 -4 40 -17 32 -5 -4 -12 1 -15 9 -6 16 -45
22 -57 9z"/>
<path d="M6080 14256 c0 -9 5 -16 10 -16 6 0 10 4 10 9 0 6 -4 13 -10 16 -5 3
-10 -1 -10 -9z"/>
<path d="M9317 14256 c-10 -8 -27 -12 -37 -9 -15 4 -20 0 -20 -15 0 -11 -5
-22 -12 -24 -7 -3 -13 -21 -15 -42 -2 -30 1 -37 13 -32 9 3 22 6 30 6 8 0 14
10 14 23 0 32 11 67 20 67 5 0 16 -7 25 -16 8 -9 22 -13 30 -10 18 7 20 27 3
24 -7 -2 -14 7 -16 20 -4 25 -10 27 -35 8z"/>
<path d="M8875 14250 c3 -5 8 -10 11 -10 2 0 4 5 4 10 0 6 -5 10 -11 10 -5 0
-7 -4 -4 -10z"/>
<path d="M6850 14241 c0 -6 -11 -11 -25 -11 -14 0 -25 -4 -25 -9 0 -13 49 -20
53 -7 2 6 11 11 20 11 26 0 25 20 0 23 -13 2 -23 -1 -23 -7z"/>
<path d="M7820 14237 c0 -17 77 -83 87 -74 9 9 -38 78 -48 71 -6 -3 -16 0 -24
6 -12 10 -15 9 -15 -3z"/>
<path d="M6145 14220 c-10 -11 -13 -20 -8 -20 13 0 38 29 31 35 -3 3 -13 -4
-23 -15z"/>
<path d="M7755 14230 c-8 -13 45 -62 61 -56 20 8 17 36 -3 42 -10 3 -26 10
-35 15 -10 5 -19 5 -23 -1z"/>
<path d="M8844 14225 c-19 -14 -18 -14 4 -15 13 0 22 6 22 15 0 19 -1 19 -26
0z"/>
<path d="M6741 14209 c8 -16 14 -18 22 -10 9 9 8 14 -3 21 -24 16 -31 11 -19
-11z"/>
<path d="M9593 14194 c6 -46 19 -60 38 -38 11 14 11 18 -4 29 -10 7 -15 19
-11 29 4 11 1 16 -10 16 -13 0 -16 -8 -13 -36z"/>
<path d="M6450 14206 c0 -14 29 -31 38 -22 2 3 2 12 -1 21 -8 19 -37 20 -37 1z"/>
<path d="M8880 14205 c0 -10 7 -15 18 -13 21 4 19 22 -2 26 -10 2 -16 -3 -16
-13z"/>
<path d="M9660 14205 c-8 -9 -8 -15 -2 -15 12 0 26 19 19 26 -2 2 -10 -2 -17
-11z"/>
<path d="M6706 14195 c-3 -8 -1 -15 4 -15 13 0 22 18 11 24 -5 3 -11 -1 -15
-9z"/>
<path d="M6317 14173 c-13 -13 -19 -14 -29 -5 -16 16 -38 15 -38 -1 0 -16 56
-41 76 -33 19 7 29 35 17 47 -5 5 -15 2 -26 -8z"/>
<path d="M8492 14173 c-7 -13 -21 -23 -31 -23 -26 0 -30 -19 -14 -58 15 -36
40 -38 36 -3 -3 25 -4 25 37 5 27 -14 34 -14 41 -3 15 25 10 37 -20 44 -23 5
-31 13 -33 33 l-3 27 -13 -22z"/>
<path d="M9413 14178 c2 -7 12 -13 22 -13 10 0 20 6 23 13 2 7 -6 12 -23 12
-17 0 -25 -5 -22 -12z"/>
<path d="M8820 14164 c0 -17 22 -14 28 4 2 7 -3 12 -12 12 -9 0 -16 -7 -16
-16z"/>
<path d="M9374 14155 c-2 -26 11 -34 19 -12 5 14 -2 37 -12 37 -3 0 -7 -11 -7
-25z"/>
<path d="M6960 14162 c0 -14 39 -46 47 -39 3 4 -2 16 -12 27 -19 21 -35 26
-35 12z"/>
<path d="M8599 14154 c-12 -14 -10 -19 10 -35 23 -19 21 -39 -5 -39 -23 0 -16
-20 9 -21 28 -2 61 2 66 7 2 2 -2 10 -8 18 -11 13 -8 16 13 22 38 9 34 40 -6
47 -18 3 -40 8 -49 12 -9 3 -22 -1 -30 -11z"/>
<path d="M8043 14145 c-3 -9 -3 -18 0 -21 7 -8 47 15 47 26 0 16 -40 11 -47
-5z"/>
<path d="M8735 14150 c-3 -5 -1 -10 4 -10 6 0 11 5 11 10 0 6 -2 10 -4 10 -3
0 -8 -4 -11 -10z"/>
<path d="M6589 14134 c-6 -8 -8 -22 -4 -31 6 -17 7 -17 16 0 6 9 17 17 24 17
22 0 18 17 -5 23 -10 3 -24 -1 -31 -9z"/>
<path d="M8787 14143 c-12 -11 -8 -23 8 -23 8 0 15 7 15 15 0 16 -12 20 -23 8z"/>
<path d="M9006 14141 c-3 -5 1 -11 9 -15 8 -3 15 -1 15 4 0 13 -18 22 -24 11z"/>
<path d="M8160 14131 c0 -5 11 -21 25 -35 22 -22 27 -23 32 -10 3 9 2 24 -4
33 -11 18 -53 28 -53 12z"/>
<path d="M8900 14130 c0 -5 5 -10 10 -10 6 0 10 5 10 10 0 6 -4 10 -10 10 -5
0 -10 -4 -10 -10z"/>
<path d="M9148 14132 c-10 -2 -18 -8 -18 -13 0 -5 11 -7 24 -3 18 4 25 1 29
-15 7 -27 33 -27 40 -1 3 11 4 20 3 20 0 0 -15 4 -31 8 -17 5 -38 6 -47 4z"/>
<path d="M6400 14115 c-18 -22 -2 -40 20 -20 11 10 24 13 36 8 17 -6 17 -5 5
10 -17 21 -44 22 -61 2z"/>
<path d="M8761 14122 c0 -7 -5 -10 -11 -7 -5 3 -10 -3 -10 -14 0 -11 5 -23 10
-26 13 -8 23 18 17 42 -3 10 -5 12 -6 5z"/>
<path d="M8836 14104 c-8 -21 -1 -28 19 -20 9 3 15 11 13 18 -7 19 -25 20 -32
2z"/>
<path d="M8146 14091 c-3 -5 1 -11 9 -14 9 -4 12 -1 8 9 -6 16 -10 17 -17 5z"/>
<path d="M8251 14084 c0 -11 3 -14 6 -6 3 7 2 16 -1 19 -3 4 -6 -2 -5 -13z"/>
<path d="M8960 14089 c0 -4 7 -12 15 -19 12 -10 18 -10 30 0 8 7 12 16 9 21
-6 10 -54 8 -54 -2z"/>
<path d="M9317 14093 c-4 -3 -7 -15 -7 -25 0 -10 -7 -21 -15 -24 -24 -9 -17
-24 10 -24 18 0 25 5 25 20 0 15 7 20 25 20 31 0 33 25 3 34 -29 7 -33 7 -41
-1z"/>
<path d="M6815 14080 c-3 -5 -1 -10 4 -10 6 0 11 5 11 10 0 6 -2 10 -4 10 -3
0 -8 -4 -11 -10z"/>
<path d="M6717 14073 c-12 -12 -7 -22 8 -17 8 4 15 10 15 15 0 11 -14 12 -23
2z"/>
<path d="M8050 14075 c0 -7 39 -45 47 -45 1 0 3 9 3 21 0 11 -4 17 -10 14 -6
-4 -17 -1 -25 5 -8 7 -15 9 -15 5z"/>
<path d="M8316 14065 c-19 -15 -19 -15 -1 -28 13 -10 15 -16 6 -21 -6 -4 -18
-2 -26 4 -12 10 -16 9 -21 -5 -10 -26 15 -37 78 -32 76 6 86 14 57 41 -13 12
-32 25 -41 29 -10 3 -18 11 -18 17 0 14 -11 12 -34 -5z"/>
<path d="M6526 14051 c-35 -7 -43 -23 -21 -41 14 -12 20 -10 41 13 13 14 24
29 24 32 0 6 -2 5 -44 -4z"/>
<path d="M8941 14044 c0 -11 3 -14 6 -6 3 7 2 16 -1 19 -3 4 -6 -2 -5 -13z"/>
<path d="M6390 14034 c0 -8 5 -12 10 -9 6 3 10 10 10 16 0 5 -4 9 -10 9 -5 0
-10 -7 -10 -16z"/>
<path d="M9140 14031 c-14 -27 -13 -41 5 -41 10 0 15 10 15 30 0 35 -5 38 -20
11z"/>
<path d="M8206 14025 c-6 -16 21 -28 39 -17 10 5 8 10 -10 18 -18 9 -25 9 -29
-1z"/>
<path d="M8675 14030 c-7 -12 2 -30 16 -30 12 0 12 27 0 35 -5 3 -12 1 -16 -5z"/>
<path d="M8880 14030 c0 -5 5 -10 10 -10 6 0 10 5 10 10 0 6 -4 10 -10 10 -5
0 -10 -4 -10 -10z"/>
<path d="M6640 14019 c0 -5 5 -7 10 -4 6 3 10 8 10 11 0 2 -4 4 -10 4 -5 0
-10 -5 -10 -11z"/>
<path d="M6760 14019 c0 -5 5 -7 10 -4 6 3 10 8 10 11 0 2 -4 4 -10 4 -5 0
-10 -5 -10 -11z"/>
<path d="M8475 14020 c-18 -6 -18 -7 -1 -17 20 -11 56 -6 56 7 0 12 -33 18
-55 10z"/>
<path d="M8735 14020 c-3 -5 -1 -10 4 -10 6 0 11 5 11 10 0 6 -2 10 -4 10 -3
0 -8 -4 -11 -10z"/>
<path d="M9187 14023 c-13 -13 -7 -24 20 -34 36 -13 57 6 29 27 -21 15 -39 18
-49 7z"/>
<path d="M6350 14015 c0 -18 22 -44 34 -39 8 3 23 -5 35 -17 12 -13 21 -19 21
-15 0 5 7 3 15 -4 27 -22 29 -1 3 23 -14 13 -27 30 -30 38 -4 11 -8 11 -18 2
-10 -9 -18 -8 -36 4 -13 8 -24 12 -24 8z"/>
<path d="M6822 14008 c6 -18 28 -21 28 -4 0 9 -7 16 -16 16 -9 0 -14 -5 -12
-12z"/>
<path d="M8833 14012 c-7 -5 -3 -11 13 -19 26 -12 33 -3 11 15 -7 6 -18 8 -24
4z"/>
<path d="M8927 14000 c-3 -11 -2 -20 3 -20 12 0 21 28 11 35 -5 2 -11 -4 -14
-15z"/>
<path d="M8980 14011 c0 -5 7 -14 15 -21 18 -15 42 1 31 19 -8 13 -46 15 -46
2z"/>
<path d="M6885 13990 c3 -5 8 -10 11 -10 2 0 4 5 4 10 0 6 -5 10 -11 10 -5 0
-7 -4 -4 -10z"/>
<path d="M6531 13976 c-9 -10 -9 -16 -1 -21 13 -8 42 14 34 26 -8 13 -20 11
-33 -5z"/>
<path d="M8055 13979 c-10 -15 3 -25 16 -12 7 7 7 13 1 17 -6 3 -14 1 -17 -5z"/>
<path d="M8890 13971 c0 -12 5 -21 10 -21 6 0 10 6 10 14 0 8 -4 18 -10 21 -5
3 -10 -3 -10 -14z"/>
<path d="M8636 13954 c-4 -10 -1 -14 6 -12 15 5 23 28 10 28 -5 0 -13 -7 -16
-16z"/>
<path d="M8686 13962 c-8 -13 8 -28 31 -29 22 -2 39 22 23 32 -6 4 -10 1 -10
-6 0 -10 -3 -10 -12 -1 -14 14 -25 15 -32 4z"/>
<path d="M8196 13947 c-18 -13 -32 -87 -17 -87 4 0 18 11 31 25 30 32 49 32
43 1 -4 -21 -2 -24 15 -19 13 3 18 11 15 24 -7 27 -30 42 -53 36 -17 -4 -20
-2 -15 14 7 23 5 23 -19 6z"/>
<path d="M8795 13950 c-3 -5 -1 -10 4 -10 6 0 11 5 11 10 0 6 -2 10 -4 10 -3
0 -8 -4 -11 -10z"/>
<path d="M8575 13940 c3 -5 8 -10 11 -10 2 0 4 5 4 10 0 6 -5 10 -11 10 -5 0
-7 -4 -4 -10z"/>
<path d="M8990 13940 c0 -5 5 -10 10 -10 6 0 10 5 10 10 0 6 -4 10 -10 10 -5
0 -10 -4 -10 -10z"/>
<path d="M8305 13930 c3 -5 8 -10 11 -10 2 0 4 5 4 10 0 6 -5 10 -11 10 -5 0
-7 -4 -4 -10z"/>
<path d="M6715 13920 c3 -5 8 -10 11 -10 2 0 4 5 4 10 0 6 -5 10 -11 10 -5 0
-7 -4 -4 -10z"/>
<path d="M6912 13918 c5 -15 28 -18 29 -3 0 6 -7 12 -17 13 -10 3 -15 -1 -12
-10z"/>
<path d="M8350 13917 c0 -2 7 -18 16 -36 11 -23 20 -29 27 -22 5 5 23 7 38 4
32 -6 41 14 12 23 -10 4 -32 12 -50 20 -31 14 -43 17 -43 11z"/>
<path d="M7260 13890 c0 -5 5 -10 10 -10 6 0 10 5 10 10 0 6 -4 10 -10 10 -5
0 -10 -4 -10 -10z"/>
<path d="M8810 13892 c0 -5 -11 -14 -25 -20 -27 -13 -34 -32 -10 -32 7 0 18
-8 24 -17 5 -10 13 -14 17 -10 11 11 14 87 3 87 -5 0 -9 -4 -9 -8z"/>
<path d="M6740 13881 c0 -6 5 -13 10 -16 6 -3 10 1 10 9 0 9 -4 16 -10 16 -5
0 -10 -4 -10 -9z"/>
<path d="M6810 13865 c0 -8 5 -15 10 -15 6 0 10 7 10 15 0 8 -4 15 -10 15 -5
0 -10 -7 -10 -15z"/>
<path d="M7695 13860 c-3 -5 1 -10 10 -10 9 0 13 5 10 10 -3 6 -8 10 -10 10
-2 0 -7 -4 -10 -10z"/>
<path d="M7220 13851 c0 -5 7 -11 15 -15 9 -3 15 0 15 9 0 8 -7 15 -15 15 -8
0 -15 -4 -15 -9z"/>
<path d="M7295 13830 c-3 -5 -1 -10 4 -10 6 0 11 5 11 10 0 6 -2 10 -4 10 -3
0 -8 -4 -11 -10z"/>
<path d="M8482 13805 c2 -27 8 -40 18 -40 23 0 23 39 0 60 l-21 19 3 -39z"/>
<path d="M6990 13815 c0 -8 7 -15 16 -15 14 0 14 3 4 15 -7 8 -14 15 -16 15
-2 0 -4 -7 -4 -15z"/>
<path d="M7645 13809 c-6 -16 -1 -27 21 -44 16 -13 33 -21 37 -18 5 3 -1 12
-13 20 -12 8 -19 21 -16 28 3 8 -1 19 -9 25 -10 9 -15 6 -20 -11z"/>
<path d="M7832 13818 c5 -15 28 -18 29 -3 0 6 -7 12 -17 13 -10 3 -15 -1 -12
-10z"/>
<path d="M7990 13820 c0 -5 5 -10 10 -10 6 0 10 5 10 10 0 6 -4 10 -10 10 -5
0 -10 -4 -10 -10z"/>
<path d="M7090 13810 c0 -5 5 -10 11 -10 5 0 7 5 4 10 -3 6 -8 10 -11 10 -2 0
-4 -4 -4 -10z"/>
<path d="M7560 13800 c0 -13 5 -20 13 -17 6 2 12 10 12 17 0 7 -6 15 -12 18
-8 2 -13 -5 -13 -18z"/>
<path d="M7333 13795 c-3 -9 -3 -18 0 -22 10 -10 37 6 37 22 0 20 -29 20 -37
0z"/>
<path d="M8410 13795 c0 -15 26 -32 36 -23 2 3 2 13 -2 22 -8 20 -34 21 -34 1z"/>
<path d="M7949 13783 c-13 -17 -13 -17 6 -3 11 8 22 16 24 17 2 2 0 3 -6 3 -6
0 -17 -8 -24 -17z"/>
<path d="M7037 13776 c-3 -8 1 -22 8 -33 11 -15 16 -16 27 -5 9 9 10 17 2 29
-14 23 -30 27 -37 9z"/>
<path d="M8360 13771 c-9 -18 -5 -51 7 -51 11 0 32 35 33 53 0 23 -27 22 -40
-2z"/>
</g>
</svg>
