<?xml version="1.0" standalone="no"?>
<!DOCTYPE svg PUBLIC "-//W3C//DTD SVG 20010904//EN"
 "http://www.w3.org/TR/2001/REC-SVG-20010904/DTD/svg10.dtd">
<svg version="1.0" xmlns="http://www.w3.org/2000/svg"
 width="1500.000000pt" height="3334.000000pt" viewBox="0 0 1500.000000 3334.000000"
 preserveAspectRatio="xMidYMid meet">

<g transform="translate(0.000000,3334.000000) scale(0.100000,-0.100000)"
fill="#000000" stroke="none">
<path d="M7419 22418 c0 -2 -3 -19 -6 -38 -2 -19 -14 -45 -25 -56 -20 -23 -12
-39 15 -28 24 9 32 -17 11 -33 -18 -14 -18 -15 13 -41 25 -20 30 -31 23 -42
-5 -8 -10 -25 -10 -37 0 -14 -6 -23 -16 -23 -8 0 -12 -5 -9 -11 4 -5 12 -8 18
-6 7 2 19 1 28 -4 20 -10 14 -59 -7 -59 -13 0 -54 -55 -54 -72 0 -13 34 -9 55
6 13 9 28 11 43 5 32 -12 28 -31 -5 -23 -22 6 -25 4 -20 -10 4 -10 7 -32 7
-50 0 -26 5 -34 30 -43 34 -13 40 -33 10 -33 -11 0 -20 7 -20 15 0 8 -3 15 -8
15 -13 0 -62 -50 -62 -65 0 -7 -3 -21 -7 -31 -5 -15 -2 -16 24 -11 27 5 30 4
26 -13 -3 -11 0 -20 6 -20 6 0 14 14 18 30 5 26 28 50 47 50 3 0 6 -11 6 -24
0 -16 -7 -26 -22 -29 -21 -6 -21 -7 -5 -25 9 -10 17 -24 17 -31 0 -7 5 -9 10
-6 6 4 8 11 4 17 -3 5 5 22 19 36 14 15 28 41 31 57 2 17 5 32 5 35 1 2 8 -5
16 -17 9 -13 22 -20 30 -17 21 9 19 -3 -10 -40 -36 -47 -31 -66 7 -30 20 19
29 23 25 12 -5 -13 0 -19 18 -24 14 -3 25 -10 25 -14 0 -13 -34 -22 -38 -11
-7 22 -22 10 -22 -18 0 -17 -4 -33 -10 -36 -12 -8 -13 -25 -1 -25 4 0 35 28
67 62 89 92 97 100 145 138 24 19 100 89 169 155 69 66 155 140 192 165 37 25
68 48 68 51 0 8 -76 1 -165 -16 -72 -13 -351 -13 -411 0 -39 9 -144 -21 -144
-41 0 -21 -18 -17 -25 6 -3 11 -15 20 -25 20 -28 0 -51 28 -44 55 3 12 1 26
-5 29 -5 4 -7 22 -4 41 4 27 2 35 -9 35 -13 0 -14 8 -7 47 11 54 6 73 -16 73
-8 0 -15 -1 -16 -2z m147 -344 c-3 -9 -6 -22 -6 -30 0 -8 -9 -14 -20 -14 -25
0 -26 14 -2 39 21 24 36 26 28 5z m204 -333 c0 -12 -20 -25 -27 -18 -7 7 6 27
18 27 5 0 9 -4 9 -9z"/>
<path d="M7037 22346 c-14 -21 -14 -26 -2 -36 8 -7 15 -11 16 -9 3 20 6 69 4
69 -1 0 -10 -11 -18 -24z"/>
<path d="M6995 22331 c-3 -6 -15 -11 -26 -11 -10 0 -19 -7 -19 -15 0 -8 4 -15
9 -15 15 0 56 38 50 45 -4 3 -10 2 -14 -4z"/>
<path d="M6892 22318 c-16 -16 -15 -28 2 -28 16 0 29 27 17 34 -4 3 -13 0 -19
-6z"/>
<path d="M7127 22324 c-4 -4 -7 -14 -7 -23 0 -11 3 -12 11 -4 6 6 10 16 7 23
-2 6 -7 8 -11 4z"/>
<path d="M6830 22300 c0 -5 5 -10 10 -10 6 0 10 5 10 10 0 6 -4 10 -10 10 -5
0 -10 -4 -10 -10z"/>
<path d="M6783 22293 c-7 -2 -13 -11 -13 -18 0 -17 -26 -26 -54 -19 -14 3 -27
-1 -35 -10 -7 -8 -20 -12 -28 -9 -12 5 -15 2 -10 -9 4 -12 1 -14 -13 -11 -26
7 -67 -37 -67 -70 0 -15 3 -27 8 -27 17 0 9 -36 -13 -60 -21 -22 -22 -22 -29
-4 -4 13 0 26 13 41 20 21 20 21 0 32 -15 8 -23 7 -32 -4 -7 -8 -18 -15 -25
-15 -6 0 -20 -9 -30 -20 -12 -13 -22 -17 -28 -11 -16 16 -87 -50 -81 -75 4
-16 -2 -22 -31 -31 -20 -7 -43 -9 -51 -6 -12 4 -14 0 -8 -23 9 -36 13 -44 25
-44 5 0 9 9 9 20 0 13 7 20 19 20 30 0 36 -21 12 -39 -23 -17 -19 -34 5 -24
16 6 19 -13 4 -22 -13 -8 -13 -45 0 -45 5 0 15 10 21 23 17 32 18 32 35 11 15
-18 15 -18 10 6 -3 15 1 31 11 42 23 26 34 22 23 -8 -12 -31 -12 -34 0 -34 5
0 13 14 18 32 6 25 15 34 42 41 25 6 30 11 20 17 -21 13 -1 62 33 78 24 12 29
18 26 38 -1 12 26 24 43 18 19 -6 34 11 18 21 -15 9 -12 35 5 35 8 0 19 9 25
20 13 25 25 25 57 0 l25 -19 -33 4 c-20 2 -37 -1 -41 -8 -13 -21 -9 -27 15
-18 14 6 30 5 41 -1 13 -7 20 -7 25 1 4 7 16 9 27 5 15 -5 14 -1 -6 16 l-25
22 30 -7 c17 -3 38 -8 48 -11 9 -3 17 0 17 6 0 7 14 32 30 57 17 24 28 49 24
54 -9 16 -52 -29 -59 -62 -5 -20 -13 -29 -26 -29 -20 0 -23 8 -13 34 3 9 10
13 15 10 9 -5 14 19 9 41 -1 6 -2 20 -2 33 0 21 -10 26 -35 15z m-67 -64 c10
-17 -13 -36 -27 -22 -12 12 -4 33 11 33 5 0 12 -5 16 -11z m-87 -42 c12 -15 5
-27 -16 -27 -7 0 -13 9 -13 20 0 23 13 26 29 7z m121 -12 c0 -8 -4 -15 -9 -15
-13 0 -22 16 -14 24 11 11 23 6 23 -9z m-311 -124 c13 -8 12 -15 -4 -50 -19
-44 -15 -62 10 -41 11 9 15 9 15 1 0 -6 -8 -14 -17 -18 -10 -3 -26 -14 -36
-25 -21 -22 -37 -23 -37 -4 0 8 -5 16 -11 18 -18 6 0 48 19 48 9 0 23 4 31 9
12 8 12 12 2 25 -13 16 -9 46 6 46 4 0 14 -4 22 -9z m-49 -31 c0 -5 -7 -10
-15 -10 -8 0 -15 5 -15 10 0 6 7 10 15 10 8 0 15 -4 15 -10z"/>
<path d="M7087 22294 c-4 -4 -7 -14 -7 -23 0 -11 3 -12 11 -4 6 6 10 16 7 23
-2 6 -7 8 -11 4z"/>
<path d="M7220 22290 c0 -5 5 -10 10 -10 6 0 10 5 10 10 0 6 -4 10 -10 10 -5
0 -10 -4 -10 -10z"/>
<path d="M6900 22271 c0 -6 10 -17 22 -26 21 -14 23 -14 30 2 10 27 9 40 -3
23 -8 -11 -12 -12 -16 -2 -5 14 -33 17 -33 3z"/>
<path d="M7160 22270 c0 -5 5 -10 11 -10 5 0 7 5 4 10 -3 6 -8 10 -11 10 -2 0
-4 -4 -4 -10z"/>
<path d="M7020 22260 c0 -5 5 -10 10 -10 6 0 10 5 10 10 0 6 -4 10 -10 10 -5
0 -10 -4 -10 -10z"/>
<path d="M8825 22230 c-3 -5 -3 -15 1 -21 6 -11 23 6 24 24 0 10 -18 9 -25 -3z"/>
<path d="M6978 22203 c7 -3 16 -2 19 1 4 3 -2 6 -13 5 -11 0 -14 -3 -6 -6z"/>
<path d="M7420 22200 c0 -5 5 -10 10 -10 6 0 10 5 10 10 0 6 -4 10 -10 10 -5
0 -10 -4 -10 -10z"/>
<path d="M8760 22200 c-8 -5 -24 -10 -36 -10 -12 0 -26 -11 -34 -25 -7 -14
-21 -25 -31 -25 -9 0 -19 -10 -23 -22 -4 -17 -8 -20 -14 -10 -13 20 -82 -23
-82 -51 0 -19 1 -19 18 -4 25 23 32 21 32 -6 0 -13 5 -28 10 -33 8 -8 6 -15
-4 -23 -8 -7 -12 -19 -9 -28 5 -12 1 -14 -14 -9 -16 5 -22 1 -27 -16 -10 -38
-7 -42 14 -23 28 25 25 3 -3 -23 -27 -26 -37 -28 -37 -7 0 8 -4 15 -10 15 -5
0 -10 -7 -10 -15 0 -9 -7 -18 -16 -22 -8 -3 -13 -11 -10 -18 2 -6 0 -18 -4
-26 -5 -8 -5 -19 1 -26 15 -17 3 -32 -21 -26 -16 4 -20 0 -21 -18 -3 -57 -5
-64 -19 -64 -8 0 -17 -2 -20 -5 -3 -3 -29 -23 -57 -45 -29 -21 -53 -44 -53
-50 0 -10 -13 -19 -62 -43 -5 -2 -8 3 -8 12 0 21 -48 22 -56 1 -9 -23 -34 -18
-34 6 0 18 -4 20 -26 15 -24 -6 -25 -5 -19 24 4 18 3 30 -4 30 -12 0 -51 -53
-51 -72 -1 -7 -23 -31 -50 -53 -28 -22 -52 -48 -56 -57 -3 -11 -15 -18 -30
-18 -17 0 -30 -10 -44 -33 -11 -18 -39 -44 -62 -57 -24 -12 -51 -29 -60 -37
-9 -8 -21 -12 -26 -9 -5 3 -12 -3 -15 -13 -4 -16 -11 -18 -49 -14 -47 5 -74
-11 -47 -28 22 -14 29 -11 22 9 -6 15 -5 15 10 3 16 -13 16 -15 -5 -29 -31
-22 -47 -44 -48 -64 0 -10 -14 -24 -34 -32 -18 -8 -37 -19 -40 -25 -4 -6 -12
-9 -17 -6 -5 3 -6 -1 -3 -10 6 -15 -28 -51 -129 -137 -30 -26 -48 -51 -56 -80
-15 -49 -73 -123 -112 -143 -18 -10 -29 -25 -33 -49 -4 -19 -13 -37 -21 -40
-21 -8 -18 -23 6 -29 l20 -6 -20 -20 c-12 -12 -21 -25 -21 -30 0 -4 -9 -20
-20 -34 -21 -26 -21 -26 -40 -7 -21 21 -45 26 -54 11 -3 -5 -14 -7 -24 -4 -13
3 -18 -2 -20 -21 -2 -31 17 -45 25 -17 7 27 19 27 26 -1 4 -14 1 -26 -8 -31
-8 -4 -15 -16 -15 -26 0 -23 -84 -152 -108 -165 -9 -5 -18 -10 -19 -11 -2 -1
2 -16 7 -35 11 -39 4 -56 -16 -39 -12 9 -18 9 -27 0 -9 -9 -7 -13 11 -17 12
-4 22 -8 22 -10 0 -13 -97 -128 -115 -136 -13 -6 -26 -19 -29 -31 -4 -15 -10
-18 -28 -13 -13 3 -40 6 -60 6 -31 0 -38 4 -38 20 0 12 -14 34 -31 51 -25 24
-28 33 -19 44 10 12 9 16 -4 21 -24 9 -19 22 11 26 36 4 39 22 8 36 -31 14
-28 34 17 101 16 24 26 46 23 49 -8 8 -74 -71 -75 -90 0 -9 -4 -19 -10 -23 -5
-3 -6 -13 -3 -21 4 -10 -8 -28 -31 -50 -20 -19 -36 -40 -36 -47 0 -7 -7 -23
-16 -36 -13 -17 -23 -22 -43 -18 -64 13 -65 -34 -2 -70 31 -18 56 -23 111 -23
55 0 94 -8 163 -31 85 -30 94 -31 139 -19 44 11 54 10 96 -8 26 -12 59 -22 72
-25 14 -2 50 -11 80 -20 30 -8 82 -21 115 -27 108 -21 268 -62 355 -90 149
-48 254 -80 275 -84 11 -1 27 -5 35 -8 60 -22 200 -67 335 -109 88 -27 169
-54 180 -58 11 -5 58 -21 105 -36 47 -14 94 -31 105 -35 11 -5 43 -17 70 -25
28 -9 59 -20 70 -24 98 -42 190 -75 300 -110 72 -23 139 -46 150 -51 21 -10
186 -62 268 -85 26 -8 53 -18 60 -23 7 -5 28 -13 47 -17 19 -4 41 -11 50 -15
8 -5 56 -20 105 -35 50 -16 97 -31 105 -35 9 -4 31 -11 50 -15 19 -4 39 -10
45 -13 5 -3 16 -7 25 -8 8 -1 47 -12 85 -23 115 -35 496 -131 521 -131 13 0
26 -5 29 -10 4 -6 12 -10 18 -9 7 1 19 0 27 -4 8 -3 33 -11 55 -17 62 -19 329
-121 340 -130 6 -5 33 -17 61 -29 28 -11 104 -45 169 -76 103 -49 224 -89 408
-133 71 -18 210 -15 255 5 20 9 43 15 51 14 9 -2 12 3 7 15 -4 9 0 24 7 33 20
23 57 90 57 102 0 6 -12 1 -26 -10 -30 -24 -64 -27 -83 -8 -10 10 -11 9 -6 -4
5 -13 1 -15 -21 -11 -19 3 -25 1 -20 -7 4 -6 13 -11 20 -11 8 0 19 -7 26 -15
22 -27 -24 -18 -54 10 -32 29 -50 32 -42 7 4 -12 -1 -26 -14 -37 -21 -19 -23
-16 -20 23 1 20 -2 22 -24 16 -16 -4 -26 -2 -26 5 0 6 -7 11 -15 11 -8 0 -15
6 -15 13 0 7 -9 20 -19 29 -18 15 -20 15 -31 -13 -17 -40 -44 -39 -38 1 5 34
-16 43 -25 10 -3 -13 -14 -20 -28 -20 -21 0 -21 1 -5 19 21 23 13 49 -9 31
-10 -8 -15 -7 -19 2 -5 10 -7 10 -12 1 -3 -7 -14 -13 -24 -13 -10 0 -20 -5
-22 -11 -2 -6 -38 -12 -83 -14 -44 -1 -88 -6 -97 -10 -13 -5 -18 -2 -18 9 0
11 -9 16 -29 16 -16 0 -34 7 -41 15 -10 12 -7 17 16 26 l29 12 -40 8 c-22 4
-50 5 -63 2 -12 -3 -29 0 -37 7 -8 6 -18 9 -24 6 -5 -3 -11 -1 -13 6 -3 7 -10
8 -17 4 -11 -7 -11 -10 0 -17 18 -11 6 -21 -15 -13 -9 3 -13 11 -10 16 4 6 -2
8 -15 3 -14 -4 -21 -2 -21 8 0 23 -42 53 -98 72 -69 22 -77 13 -15 -19 58 -30
41 -35 -21 -5 -34 15 -46 28 -51 50 -8 37 2 52 31 45 18 -5 22 -3 18 9 -5 12
0 14 25 9 27 -6 31 -4 31 14 0 16 -9 24 -32 30 -38 10 -53 2 -62 -33 -4 -14
-13 -25 -21 -25 -8 0 -15 -9 -15 -20 0 -11 -5 -20 -11 -20 -5 0 -8 -4 -4 -9 6
-11 -110 20 -142 37 -11 6 -30 13 -44 15 -63 11 -91 21 -96 33 -4 10 -16 12
-46 7 -30 -4 -38 -3 -33 6 5 7 16 9 28 5 15 -4 19 -2 16 7 -3 8 -22 15 -43 17
-34 3 -37 2 -26 -12 16 -19 11 -19 -38 -6 -20 5 -48 12 -63 15 -17 3 -28 12
-29 23 0 15 -1 15 -7 1 -6 -15 -12 -15 -62 -2 -30 7 -56 18 -58 23 -2 6 -16
10 -31 10 -15 0 -41 11 -57 25 -33 29 -44 31 -44 10 0 -22 -31 -18 -37 5 -3
11 -12 20 -20 20 -8 0 -11 -5 -8 -10 7 -12 -11 -8 -103 20 -34 10 -58 24 -60
33 -2 9 -12 19 -22 22 -10 3 -21 13 -24 21 -7 18 -26 9 -26 -12 0 -8 9 -14 19
-14 11 0 23 -5 26 -10 7 -11 -38 -4 -60 9 -5 3 -14 6 -20 6 -5 1 -17 4 -25 7
-29 10 -176 60 -220 75 -71 23 -93 33 -87 40 4 3 22 -2 41 -11 19 -9 42 -16
53 -16 10 -1 29 -7 43 -15 29 -17 44 -19 36 -6 -14 21 -100 63 -137 65 -22 2
-45 8 -52 15 -6 6 -20 11 -30 11 -14 0 -17 3 -9 13 8 9 3 12 -21 12 -18 -1
-46 7 -64 17 -20 11 -35 14 -39 7 -10 -17 16 -38 55 -45 20 -4 47 -16 61 -26
l25 -20 -30 8 c-17 4 -31 11 -33 16 -2 4 -13 8 -25 8 -12 0 -33 6 -47 13 -14
7 -56 23 -95 36 -123 41 -170 67 -157 89 5 6 23 0 50 -19 44 -30 47 -19 5 14
-13 10 -23 25 -23 32 0 27 -18 25 -50 -5 l-32 -30 6 33 c4 22 1 40 -9 52 -8
11 -15 15 -15 8 0 -6 5 -15 10 -18 13 -8 -6 -45 -24 -45 -8 0 -20 8 -27 17
-12 15 -12 16 4 10 9 -3 17 -2 17 2 0 13 -60 49 -90 54 -14 3 -38 12 -55 21
-29 15 -30 15 -43 -10 -8 -15 -18 -22 -23 -17 -12 12 0 53 16 53 25 0 27 34 3
52 -13 10 -31 25 -40 34 -21 20 -48 12 -48 -14 0 -10 -9 -27 -20 -37 -11 -10
-20 -13 -20 -7 0 7 -7 12 -16 12 -24 0 -104 69 -98 85 3 7 0 16 -7 20 -7 5
-10 3 -7 -6 6 -18 -27 -53 -41 -44 -6 3 -11 14 -11 24 0 25 -45 44 -71 31 -14
-8 -19 -7 -19 3 0 18 -38 52 -48 43 -7 -8 -8 -12 -11 -40 -1 -17 -42 -29 -55
-16 -7 7 -2 10 12 10 12 0 22 3 22 8 -1 15 -28 42 -43 42 -26 0 -76 49 -79 78
-2 22 -8 27 -27 24 -17 -2 -22 2 -17 13 7 20 -33 38 -94 41 -26 2 -49 10 -56
18 -8 12 -18 13 -41 7 -20 -6 -35 -5 -42 2 -7 7 -18 7 -36 -1 -22 -10 -33 -9
-62 5 -20 9 -31 19 -25 21 6 2 20 -1 30 -7 23 -12 32 -5 32 25 0 13 10 30 21
38 14 9 19 21 15 31 -11 29 -35 10 -51 -39 -5 -18 -6 -18 -19 -1 -12 17 -15
17 -46 1 -48 -23 -62 -21 -58 11 2 15 -2 28 -9 30 -8 3 -13 -4 -13 -14 0 -16
-6 -19 -28 -15 -25 3 -28 8 -24 29 4 20 9 23 28 19 22 -6 23 -5 12 19 -13 29
-19 30 -58 10 -30 -15 -30 -15 -32 12 0 16 -1 34 -1 41 1 6 -6 12 -14 12 -11
0 -14 -7 -10 -27 6 -31 -1 -53 -15 -53 -6 0 -8 10 -5 23 4 15 -1 29 -20 47
-44 42 -57 67 -42 83 7 7 24 11 38 9 20 -4 23 -2 18 12 -8 20 8 56 24 56 7 0
9 -10 5 -25 -9 -35 15 -32 43 5 l22 30 -30 18 c-43 24 -55 55 -32 83 10 13 23
19 29 15 17 -10 15 -36 -3 -36 -8 0 -15 -4 -15 -10 0 -5 4 -10 9 -10 6 0 13 5
16 10 10 16 25 12 25 -6 0 -14 2 -15 17 -3 15 13 15 14 0 17 -21 4 -22 16 -2
32 8 7 15 17 15 22 0 6 -7 5 -16 -3 -13 -10 -17 -10 -25 2 -12 19 -11 31 5 52
18 23 24 22 28 -5 5 -39 23 -25 26 19 2 31 11 50 33 72 16 16 29 40 29 53 l1
23 19 -24 c11 -13 20 -30 20 -38 0 -8 5 -11 10 -8 6 4 8 15 5 25 -8 24 7 32
38 21 21 -8 26 -6 30 9 5 21 -10 40 -32 40 -23 1 17 30 40 30 10 0 24 7 33 15
18 19 46 9 46 -17 0 -10 4 -17 10 -13 5 3 7 12 4 19 -3 7 9 25 25 39 20 16 29
31 25 41 -7 19 -30 21 -37 4 -3 -8 -6 -6 -6 4 -1 20 40 52 49 38 4 -6 14 -4
26 5 26 19 74 20 74 0 0 -8 7 -15 15 -15 8 0 15 4 15 10 0 5 7 7 15 4 26 -10
16 14 -15 38 -16 12 -30 28 -30 35 0 16 26 17 35 3 5 -8 11 -8 19 -1 7 6 15 9
18 6 3 -3 11 1 18 10 7 8 27 15 46 15 18 0 36 5 39 10 3 6 1 10 -4 10 -6 0
-11 5 -11 11 0 5 5 7 10 4 6 -3 10 -1 10 5 0 6 10 24 22 40 24 33 17 51 -12
32 -17 -10 -20 -10 -20 3 0 17 56 55 83 55 9 0 17 5 17 11 0 7 11 9 29 6 23
-5 34 0 60 27 36 37 40 56 11 56 -22 0 -26 10 -9 27 7 7 7 13 1 17 -7 4 -6 16
4 34 14 28 0 48 -16 21 -7 -10 -11 -10 -24 0 -14 12 -16 10 -16 -8 0 -11 5
-21 10 -21 12 0 13 -10 1 -29 -10 -16 -51 -6 -51 12 0 7 9 29 20 50 20 37 20
37 1 37 -11 0 -24 -7 -28 -15 -8 -13 -11 -13 -31 1 -28 19 -29 37 -1 29 18 -6
19 -4 10 12 -8 16 -5 26 18 50 29 32 85 44 74 17 -3 -8 -16 -14 -30 -14 -13 0
-22 -4 -19 -9 4 -5 0 -11 -6 -14 -10 -3 -10 -8 -2 -17 9 -9 18 -8 38 5 21 14
29 15 41 5 20 -16 10 -30 -16 -23 -16 4 -20 2 -17 -8 6 -17 78 -25 78 -9 0 7
-9 25 -21 42 -12 16 -20 30 -18 31 49 26 65 39 67 57 4 25 29 37 45 21 13 -13
54 -15 62 -2 7 12 -26 31 -54 31 -28 0 -26 11 4 33 22 15 25 16 25 2 0 -8 8
-15 17 -15 13 0 14 3 5 12 -19 19 -14 34 13 46 14 7 30 23 35 37 6 17 20 27
40 31 33 7 41 30 13 37 -14 4 -12 5 5 6 12 0 22 7 22 14 0 15 55 47 82 47 23
0 68 38 68 58 0 6 7 12 15 12 8 0 15 -4 15 -9 0 -17 34 -18 53 -2 16 13 19 13
27 1 8 -12 10 -10 10 8 0 13 -6 22 -15 22 -20 0 -19 7 5 37 11 14 20 36 20 49
0 13 4 24 8 24 12 0 33 50 27 61 -4 5 -13 9 -22 9 -12 0 -9 7 10 26 27 27 43
61 33 71 -3 4 -1 12 6 20 9 12 7 13 -13 8 -20 -5 -28 -1 -38 19 -8 13 -21 27
-30 30 -9 3 -20 8 -26 11 -5 3 -17 0 -25 -5z m-130 -330 c0 -5 -7 -10 -16 -10
-8 0 -12 5 -9 10 3 6 10 10 16 10 5 0 9 -4 9 -10z m-50 -94 c0 -3 -4 -8 -10
-11 -5 -3 -10 -1 -10 4 0 6 5 11 10 11 6 0 10 -2 10 -4z m-315 -309 c13 -11
15 -16 6 -22 -7 -4 -18 -2 -24 4 -6 6 -19 11 -29 11 -10 0 -18 5 -18 10 0 15
43 12 65 -3z m-195 -166 c0 -12 -20 -25 -27 -18 -7 7 6 27 18 27 5 0 9 -4 9
-9z m25 -61 c3 -5 2 -10 -4 -10 -5 0 -13 5 -16 10 -3 6 -2 10 4 10 5 0 13 -4
16 -10z m-12 -35 c46 -35 61 -65 32 -65 -18 0 -20 20 -2 20 6 1 -3 7 -21 15
-18 8 -35 21 -38 30 -3 8 -12 15 -20 15 -8 0 -14 5 -14 10 0 16 13 11 63 -25z
m-69 -49 c-7 -18 -25 -17 -31 1 -2 6 4 13 14 15 23 5 25 4 17 -16z m-59 4 c3
-5 -1 -10 -9 -10 -9 0 -16 5 -16 10 0 6 4 10 9 10 6 0 13 -4 16 -10z m118 -10
c-3 -11 -9 -23 -14 -26 -16 -9 -10 -26 7 -20 11 4 14 1 12 -11 -4 -22 -38 -30
-38 -10 0 8 -7 17 -15 21 -22 8 -18 26 6 26 12 0 23 8 26 20 3 11 9 20 13 20
5 0 6 -9 3 -20z m-105 -59 c11 -7 11 -9 -1 -14 -16 -6 -27 0 -27 15 0 10 11
10 28 -1z m32 -37 c0 -13 -21 -44 -30 -44 -14 0 -12 24 2 38 13 13 28 16 28 6z
m30 -70 c0 -8 -5 -14 -12 -14 -6 0 -20 -7 -30 -17 -25 -23 -23 1 4 32 22 25
38 25 38 -1z m-95 -40 c-8 -16 -15 -23 -15 -16 0 17 20 55 26 49 2 -2 -2 -17
-11 -33z m-425 -9 c0 -8 -4 -15 -10 -15 -5 0 -10 7 -10 15 0 8 5 15 10 15 6 0
10 -7 10 -15z m-56 -24 c12 -18 -19 -38 -49 -31 l-30 6 30 17 c35 19 42 20 49
8z m343 -11 c22 0 14 -6 -19 -14 -22 -5 -28 -3 -28 10 0 11 5 14 16 10 9 -3
23 -6 31 -6z m103 0 c0 -5 -2 -10 -4 -10 -3 0 -8 5 -11 10 -3 6 -1 10 4 10 6
0 11 -4 11 -10z m-165 -40 c3 -5 1 -10 -4 -10 -6 0 -11 5 -11 10 0 6 2 10 4
10 3 0 8 -4 11 -10z m-376 -49 c22 -14 -6 -43 -37 -39 -33 4 -38 22 -10 36 29
14 30 14 47 3z m-51 -54 c7 -5 10 -12 7 -17 -7 -11 -65 8 -65 21 0 11 38 8 58
-4z m222 -7 c0 -5 -5 -10 -11 -10 -5 0 -7 5 -4 10 3 6 8 10 11 10 2 0 4 -4 4
-10z m88 -18 c2 -7 -3 -12 -12 -12 -9 0 -16 7 -16 16 0 17 22 14 28 -4z m84 3
c0 -5 -5 -11 -11 -13 -6 -2 -11 4 -11 13 0 9 5 15 11 13 6 -2 11 -8 11 -13z
m-412 -20 c10 -13 9 -15 -8 -15 -22 0 -36 13 -25 24 10 10 20 7 33 -9z m-51
-19 c7 -9 8 -17 2 -20 -14 -9 -41 4 -41 20 0 18 24 18 39 0z m391 4 c0 -5 -4
-10 -10 -10 -5 0 -10 5 -10 10 0 6 5 10 10 10 6 0 10 -4 10 -10z m-450 -64 c0
-8 3 -21 6 -30 4 -11 1 -16 -10 -16 -19 0 -31 23 -22 45 7 19 26 20 26 1z
m185 -156 c-3 -5 -11 -10 -16 -10 -6 0 -7 5 -4 10 3 6 11 10 16 10 6 0 7 -4 4
-10z m-5 -39 c0 -5 -7 -11 -15 -15 -15 -5 -20 5 -8 17 9 10 23 9 23 -2z m-332
-74 c2 -10 -3 -17 -12 -17 -18 0 -29 16 -21 31 9 14 29 6 33 -14z m280 -49
c16 -16 15 -28 -2 -28 -17 0 -38 24 -29 33 9 10 17 9 31 -5z m-18 -55 c0 -5
-3 -19 -7 -32 -6 -23 -7 -23 -13 -5 -4 10 -5 25 -3 32 5 13 23 17 23 5z m-51
-44 c-7 -14 -14 -18 -21 -11 -13 13 -2 32 18 32 12 0 13 -4 3 -21z m-40 -15
c3 -3 0 -9 -7 -16 -8 -8 -15 -8 -26 1 -8 7 -20 10 -26 6 -16 -10 -43 3 -35 16
6 9 82 4 94 -7z m-159 -14 c0 -5 -5 -10 -11 -10 -5 0 -7 5 -4 10 3 6 8 10 11
10 2 0 4 -4 4 -10z m200 -75 c26 -14 41 -35 24 -35 -12 0 -64 34 -64 42 0 11
7 10 40 -7z m694 -411 c26 -38 -1 -29 -45 17 -21 22 -39 42 -39 44 0 12 71
-40 84 -61z m61 -45 c11 -17 0 -20 -21 -4 -17 13 -17 14 -2 15 9 0 20 -5 23
-11z m522 -120 c16 -16 -8 -39 -42 -39 -24 0 -25 1 -11 16 9 8 16 20 16 25 0
13 24 11 37 -2z m-91 -46 c-7 -7 -26 7 -26 19 0 6 6 6 15 -2 9 -7 13 -15 11
-17z m-56 -13 c0 -5 -4 -10 -9 -10 -6 0 -13 5 -16 10 -3 6 1 10 9 10 9 0 16
-4 16 -10z m325 -110 c3 -6 -1 -10 -9 -10 -8 0 -20 9 -26 21 -11 19 -10 20 9
10 11 -6 23 -16 26 -21z m60 -30 c3 -5 1 -10 -4 -10 -6 0 -11 5 -11 10 0 6 2
10 4 10 3 0 8 -4 11 -10z m2350 -760 c3 -5 1 -10 -4 -10 -6 0 -11 5 -11 10 0
6 2 10 4 10 3 0 8 -4 11 -10z"/>
<path d="M6790 22060 c0 -5 5 -10 11 -10 5 0 7 5 4 10 -3 6 -8 10 -11 10 -2 0
-4 -4 -4 -10z"/>
<path d="M6830 22060 c0 -5 5 -10 11 -10 5 0 7 5 4 10 -3 6 -8 10 -11 10 -2 0
-4 -4 -4 -10z"/>
<path d="M6055 22052 c-2 -2 3 -15 12 -28 10 -15 13 -33 9 -50 -7 -26 9 -93
22 -95 54 -6 66 -3 86 24 11 16 21 32 21 35 0 4 3 12 7 18 11 16 -49 74 -70
67 -14 -5 -15 -3 -4 8 6 7 12 16 12 19 0 6 -88 8 -95 2z"/>
<path d="M6685 22049 c-4 -6 -5 -13 -2 -16 7 -7 27 6 27 18 0 12 -17 12 -25
-2z"/>
<path d="M6611 22027 c-14 -6 -26 -18 -27 -25 -1 -7 0 -8 3 -2 2 5 16 10 29
10 15 0 24 6 24 15 0 18 1 18 -29 2z"/>
<path d="M6750 22019 c0 -5 5 -7 10 -4 6 3 10 8 10 11 0 2 -4 4 -10 4 -5 0
-10 -5 -10 -11z"/>
<path d="M7256 22023 c-3 -3 -3 -10 0 -14 7 -12 34 -11 34 0 0 11 -26 22 -34
14z"/>
<path d="M6662 21975 c-12 -13 -18 -26 -13 -29 8 -6 46 42 39 49 -2 2 -13 -7
-26 -20z"/>
<path d="M8552 21989 c2 -6 8 -10 13 -10 5 0 11 4 13 10 2 6 -4 11 -13 11 -9
0 -15 -5 -13 -11z"/>
<path d="M6540 21970 c0 -6 4 -18 9 -28 16 -29 24 -56 22 -70 -1 -8 6 -20 16
-27 16 -12 19 -10 31 18 8 21 9 34 2 41 -5 5 -10 18 -10 29 0 10 -4 15 -10 12
-5 -3 -15 3 -22 15 -13 21 -38 27 -38 10z"/>
<path d="M6615 21970 c-3 -5 -1 -10 4 -10 6 0 11 5 11 10 0 6 -2 10 -4 10 -3
0 -8 -4 -11 -10z"/>
<path d="M6734 21966 c-8 -22 3 -33 18 -18 9 9 9 15 0 24 -9 9 -13 7 -18 -6z"/>
<path d="M7375 21950 c3 -5 8 -10 11 -10 2 0 4 5 4 10 0 6 -5 10 -11 10 -5 0
-7 -4 -4 -10z"/>
<path d="M8864 21938 l-19 -23 22 19 c19 15 25 16 38 6 8 -7 15 -8 15 -2 0 8
-22 22 -34 22 -2 0 -11 -10 -22 -22z"/>
<path d="M7412 21930 c-16 -27 -16 -27 18 -22 25 4 28 7 19 23 -12 24 -21 24
-37 -1z"/>
<path d="M6835 21930 c3 -5 10 -10 16 -10 5 0 9 5 9 10 0 6 -7 10 -16 10 -8 0
-12 -4 -9 -10z"/>
<path d="M7120 21930 c0 -5 7 -7 15 -4 8 4 15 8 15 10 0 2 -7 4 -15 4 -8 0
-15 -4 -15 -10z"/>
<path d="M6480 21885 c-14 -17 -5 -36 15 -28 16 6 21 43 6 43 -5 0 -14 -7 -21
-15z"/>
<path d="M6870 21881 c0 -5 5 -13 10 -16 6 -3 10 -2 10 4 0 5 -4 13 -10 16 -5
3 -10 2 -10 -4z"/>
<path d="M8880 21870 c0 -5 5 -10 10 -10 6 0 10 5 10 10 0 6 -4 10 -10 10 -5
0 -10 -4 -10 -10z"/>
<path d="M7092 21858 c3 -7 13 -15 24 -17 16 -3 17 -1 5 13 -16 19 -34 21 -29
4z"/>
<path d="M6231 21844 c0 -11 3 -14 6 -6 3 7 2 16 -1 19 -3 4 -6 -2 -5 -13z"/>
<path d="M6426 21811 c-22 -24 -20 -31 8 -31 19 0 36 16 36 35 0 13 -31 10
-44 -4z"/>
<path d="M6500 21822 c0 -6 9 -17 20 -24 14 -9 20 -24 20 -47 0 -45 18 -29 27
22 5 34 4 37 -19 37 -13 0 -29 5 -36 12 -9 9 -12 9 -12 0z"/>
<path d="M6655 21810 c3 -5 8 -10 11 -10 2 0 4 5 4 10 0 6 -5 10 -11 10 -5 0
-7 -4 -4 -10z"/>
<path d="M6100 21801 c0 -6 4 -13 10 -16 6 -3 7 1 4 9 -7 18 -14 21 -14 7z"/>
<path d="M6185 21790 c-3 -5 -2 -10 4 -10 5 0 13 5 16 10 3 6 2 10 -4 10 -5 0
-13 -4 -16 -10z"/>
<path d="M8710 21775 c0 -8 -8 -15 -17 -15 -16 0 -16 -1 -1 -16 16 -16 43 -11
33 7 -4 5 3 9 14 9 25 0 28 15 5 24 -25 10 -34 7 -34 -9z"/>
<path d="M6382 21730 c14 -22 24 -19 15 5 -4 8 -11 15 -17 15 -6 0 -6 -7 2
-20z"/>
<path d="M6196 21731 c-3 -5 -15 -7 -26 -4 -25 7 -25 -5 0 -37 18 -24 19 -24
25 -5 4 11 11 28 16 38 9 18 -5 25 -15 8z"/>
<path d="M6275 21719 c-10 -15 3 -25 16 -12 7 7 7 13 1 17 -6 3 -14 1 -17 -5z"/>
<path d="M8576 21713 c-11 -11 -6 -23 9 -23 8 0 15 4 15 9 0 13 -16 22 -24 14z"/>
<path d="M8620 21716 c0 -4 5 -16 10 -27 11 -20 44 -27 38 -7 -5 13 -48 44
-48 34z"/>
<path d="M6460 21700 c0 -5 5 -10 10 -10 6 0 10 5 10 10 0 6 -4 10 -10 10 -5
0 -10 -4 -10 -10z"/>
<path d="M6340 21691 c0 -5 5 -13 10 -16 6 -3 10 -2 10 4 0 5 -4 13 -10 16 -5
3 -10 2 -10 -4z"/>
<path d="M8710 21690 c0 -5 5 -10 11 -10 5 0 7 5 4 10 -3 6 -8 10 -11 10 -2 0
-4 -4 -4 -10z"/>
<path d="M6220 21665 c-10 -12 -10 -19 -2 -27 14 -14 17 -11 26 20 8 25 -5 29
-24 7z"/>
<path d="M7310 21669 c0 -5 5 -7 10 -4 6 3 10 8 10 11 0 2 -4 4 -10 4 -5 0
-10 -5 -10 -11z"/>
<path d="M8552 21640 c-12 -10 -19 -21 -14 -23 4 -3 18 5 31 19 27 28 16 32
-17 4z"/>
<path d="M7269 21633 c-13 -15 -12 -15 9 -4 23 12 28 21 13 21 -5 0 -15 -7
-22 -17z"/>
<path d="M7565 21640 c-3 -5 -2 -10 4 -10 5 0 13 5 16 10 3 6 2 10 -4 10 -5 0
-13 -4 -16 -10z"/>
<path d="M6685 21630 c3 -5 10 -10 16 -10 5 0 9 5 9 10 0 6 -7 10 -16 10 -8 0
-12 -4 -9 -10z"/>
<path d="M8685 21630 c-3 -5 -1 -10 4 -10 6 0 11 5 11 10 0 6 -2 10 -4 10 -3
0 -8 -4 -11 -10z"/>
<path d="M8246 21602 c-3 -6 -1 -14 5 -17 15 -10 25 3 12 16 -7 7 -13 7 -17 1z"/>
<path d="M6265 21590 c3 -5 8 -10 11 -10 2 0 4 5 4 10 0 6 -5 10 -11 10 -5 0
-7 -4 -4 -10z"/>
<path d="M7185 21590 c-3 -5 -1 -10 4 -10 6 0 11 5 11 10 0 6 -2 10 -4 10 -3
0 -8 -4 -11 -10z"/>
<path d="M6500 21580 c20 -13 33 -13 25 0 -3 6 -14 10 -23 10 -15 0 -15 -2 -2
-10z"/>
<path d="M7580 21576 c6 -8 18 -12 26 -9 19 7 7 23 -18 23 -17 0 -18 -3 -8
-14z"/>
<path d="M6236 21565 c27 -20 51 -20 34 0 -7 8 -22 15 -33 15 -20 0 -20 0 -1
-15z"/>
<path d="M6570 21569 c0 -5 5 -7 10 -4 6 3 10 8 10 11 0 2 -4 4 -10 4 -5 0
-10 -5 -10 -11z"/>
<path d="M8460 21550 c-12 -16 -20 -30 -17 -30 2 0 16 14 30 30 15 17 23 30
18 30 -5 0 -19 -13 -31 -30z"/>
<path d="M6490 21546 c0 -8 5 -18 10 -21 6 -3 10 1 10 9 0 8 -4 18 -10 21 -5
3 -10 -1 -10 -9z"/>
<path d="M8506 21551 c-4 -7 -5 -15 -2 -18 9 -9 19 4 14 18 -4 11 -6 11 -12 0z"/>
<path d="M6790 21520 c-34 -48 -16 -50 23 -3 11 12 14 23 8 27 -5 3 -19 -8
-31 -24z"/>
<path d="M6530 21520 c-12 -8 -9 -10 13 -10 15 0 27 5 27 10 0 13 -20 13 -40
0z"/>
<path d="M6848 21523 c7 -3 16 -2 19 1 4 3 -2 6 -13 5 -11 0 -14 -3 -6 -6z"/>
<path d="M6224 21514 c-11 -4 -8 -44 3 -44 13 0 52 34 47 41 -5 9 -31 11 -50
3z"/>
<path d="M6316 21512 c-3 -6 -1 -14 5 -17 15 -10 25 3 12 16 -7 7 -13 7 -17 1z"/>
<path d="M6355 21490 c3 -5 8 -10 11 -10 2 0 4 5 4 10 0 6 -5 10 -11 10 -5 0
-7 -4 -4 -10z"/>
<path d="M6306 21467 c3 -10 9 -15 12 -12 3 3 0 11 -7 18 -10 9 -11 8 -5 -6z"/>
<path d="M6677 21455 c-4 -8 -3 -16 1 -19 13 -8 35 11 28 23 -10 15 -23 14
-29 -4z"/>
<path d="M6730 21454 c0 -9 5 -14 12 -12 18 6 21 28 4 28 -9 0 -16 -7 -16 -16z"/>
<path d="M6750 21410 c0 -5 7 -10 15 -10 8 0 15 5 15 10 0 6 -7 10 -15 10 -8
0 -15 -4 -15 -10z"/>
<path d="M6695 21400 c-3 -5 1 -10 9 -10 9 0 16 5 16 10 0 6 -4 10 -9 10 -6 0
-13 -4 -16 -10z"/>
<path d="M6670 21354 c0 -8 5 -12 10 -9 6 4 8 11 5 16 -9 14 -15 11 -15 -7z"/>
<path d="M6770 21355 c0 -8 5 -15 10 -15 6 0 10 7 10 15 0 8 -4 15 -10 15 -5
0 -10 -7 -10 -15z"/>
<path d="M6720 21340 c0 -5 5 -10 10 -10 6 0 10 5 10 10 0 6 -4 10 -10 10 -5
0 -10 -4 -10 -10z"/>
<path d="M7646 21332 c-3 -6 -1 -14 5 -17 15 -10 25 3 12 16 -7 7 -13 7 -17 1z"/>
<path d="M6306 21315 c-10 -8 -16 -19 -14 -25 2 -7 9 -6 22 3 10 8 17 19 15
25 -3 7 -10 6 -23 -3z"/>
<path d="M6520 21290 c0 -5 4 -10 9 -10 6 0 13 5 16 10 3 6 -1 10 -9 10 -9 0
-16 -4 -16 -10z"/>
<path d="M6601 21283 c-1 -6 -4 -20 -7 -30 -5 -17 -5 -17 6 0 6 10 9 23 6 30
-3 9 -5 9 -5 0z"/>
<path d="M6455 21271 c-6 -11 9 -23 19 -14 9 9 7 23 -3 23 -6 0 -12 -4 -16 -9z"/>
<path d="M8345 21270 c3 -5 8 -10 11 -10 2 0 4 5 4 10 0 6 -5 10 -11 10 -5 0
-7 -4 -4 -10z"/>
<path d="M8290 21260 c0 -5 5 -10 10 -10 6 0 10 5 10 10 0 6 -4 10 -10 10 -5
0 -10 -4 -10 -10z"/>
<path d="M6622 21239 c-13 -5 -21 -13 -17 -19 4 -6 15 -4 31 6 37 25 30 31
-14 13z"/>
<path d="M8270 21230 c0 -5 7 -10 16 -10 8 0 12 5 9 10 -3 6 -10 10 -16 10 -5
0 -9 -4 -9 -10z"/>
<path d="M6715 21220 c-3 -5 1 -10 10 -10 9 0 13 5 10 10 -3 6 -8 10 -10 10
-2 0 -7 -4 -10 -10z"/>
<path d="M7555 21220 c-3 -5 -1 -10 4 -10 6 0 11 5 11 10 0 6 -2 10 -4 10 -3
0 -8 -4 -11 -10z"/>
<path d="M8320 21160 c0 -5 5 -10 11 -10 5 0 7 5 4 10 -3 6 -8 10 -11 10 -2 0
-4 -4 -4 -10z"/>
<path d="M6705 21141 c-8 -15 3 -31 21 -31 9 0 14 7 12 17 -4 20 -24 28 -33
14z"/>
<path d="M6611 21104 c-11 -15 -18 -31 -15 -36 7 -11 7 -12 27 30 19 39 15 41
-12 6z"/>
<path d="M6820 21060 c0 -5 5 -10 10 -10 6 0 10 5 10 10 0 6 -4 10 -10 10 -5
0 -10 -4 -10 -10z"/>
<path d="M6555 21050 c-3 -5 -1 -10 4 -10 6 0 11 5 11 10 0 6 -2 10 -4 10 -3
0 -8 -4 -11 -10z"/>
<path d="M6616 21013 c-6 -14 -5 -15 5 -6 7 7 10 15 7 18 -3 3 -9 -2 -12 -12z"/>
<path d="M6267 20968 c-5 -33 -2 -46 9 -36 10 11 15 68 6 68 -5 0 -12 -15 -15
-32z"/>
<path d="M8115 20989 c-10 -14 -1 -21 19 -13 9 3 13 10 10 15 -7 12 -21 11
-29 -2z"/>
<path d="M8350 20965 c0 -8 7 -15 15 -15 9 0 12 6 9 15 -4 8 -10 15 -15 15 -5
0 -9 -7 -9 -15z"/>
<path d="M8100 20950 c0 -6 7 -13 15 -17 24 -9 27 1 5 15 -13 8 -20 8 -20 2z"/>
<path d="M6620 20935 c-16 -19 -3 -40 16 -24 15 13 19 39 5 39 -5 0 -14 -7
-21 -15z"/>
<path d="M6560 20900 c0 -5 5 -10 10 -10 6 0 10 5 10 10 0 6 -4 10 -10 10 -5
0 -10 -4 -10 -10z"/>
<path d="M7970 20850 c0 -5 5 -10 10 -10 6 0 10 5 10 10 0 6 -4 10 -10 10 -5
0 -10 -4 -10 -10z"/>
<path d="M6923 20828 c-28 -31 -48 -71 -34 -67 11 4 67 89 58 89 -2 0 -13 -10
-24 -22z"/>
<path d="M8050 20835 c-18 -21 -3 -32 16 -13 10 9 12 18 6 22 -5 3 -15 -1 -22
-9z"/>
<path d="M6680 20820 c0 -5 7 -10 16 -10 8 0 12 5 9 10 -3 6 -10 10 -16 10 -5
0 -9 -4 -9 -10z"/>
<path d="M7990 20811 c0 -6 5 -13 10 -16 6 -3 10 1 10 9 0 9 -4 16 -10 16 -5
0 -10 -4 -10 -9z"/>
<path d="M8367 20779 c-9 -5 -21 -8 -26 -5 -14 9 -21 -20 -8 -33 24 -24 67 -5
67 31 0 20 -7 22 -33 7z"/>
<path d="M6550 20764 c0 -8 5 -12 10 -9 6 4 8 11 5 16 -9 14 -15 11 -15 -7z"/>
<path d="M7800 20766 c0 -15 24 -28 34 -19 7 7 -13 33 -25 33 -5 0 -9 -6 -9
-14z"/>
<path d="M7986 20771 c-4 -7 -5 -15 -2 -18 9 -9 19 4 14 18 -4 11 -6 11 -12 0z"/>
<path d="M6695 20760 c3 -5 8 -10 11 -10 2 0 4 5 4 10 0 6 -5 10 -11 10 -5 0
-7 -4 -4 -10z"/>
<path d="M6840 20755 c-6 -8 -9 -19 -5 -25 7 -11 34 15 35 33 0 12 -17 8 -30
-8z"/>
<path d="M8040 20760 c0 -5 5 -10 10 -10 6 0 10 5 10 10 0 6 -4 10 -10 10 -5
0 -10 -4 -10 -10z"/>
<path d="M8080 20743 c0 -5 5 -15 10 -23 7 -11 12 -12 21 -3 6 6 8 16 5 22 -8
12 -36 15 -36 4z"/>
<path d="M6495 20717 c-13 -40 -11 -52 10 -48 11 3 32 5 48 5 36 1 34 9 -12
39 l-39 26 -7 -22z"/>
<path d="M7930 20718 c0 -15 -6 -28 -14 -30 -20 -4 21 -53 53 -63 20 -6 22 -5
13 10 -5 10 -8 25 -6 34 2 9 -7 30 -21 46 l-25 30 0 -27z"/>
<path d="M6636 20715 c-8 -22 3 -40 16 -27 7 7 7 16 1 27 -9 16 -10 16 -17 0z"/>
<path d="M7784 20694 c3 -9 6 -18 6 -20 0 -2 5 -4 10 -4 6 0 10 9 10 20 0 12
-7 20 -16 20 -11 0 -14 -5 -10 -16z"/>
<path d="M7830 20700 c0 -5 5 -10 10 -10 6 0 10 5 10 10 0 6 -4 10 -10 10 -5
0 -10 -4 -10 -10z"/>
<path d="M6260 20679 c0 -18 2 -19 15 -9 15 12 12 30 -6 30 -5 0 -9 -10 -9
-21z"/>
<path d="M7056 20681 c-3 -5 1 -12 10 -15 20 -8 29 -1 19 13 -8 13 -22 14 -29
2z"/>
<path d="M6537 20604 c-11 -14 -16 -28 -13 -31 3 -4 7 -4 9 -2 1 2 13 16 26
32 17 18 20 27 10 27 -8 0 -22 -12 -32 -26z"/>
<path d="M7665 20620 c3 -5 8 -10 11 -10 2 0 4 5 4 10 0 6 -5 10 -11 10 -5 0
-7 -4 -4 -10z"/>
<path d="M6717 20613 c-4 -3 -7 -11 -7 -17 0 -6 5 -5 12 2 6 6 9 14 7 17 -3 3
-9 2 -12 -2z"/>
<path d="M6450 20596 c0 -9 5 -16 10 -16 6 0 10 4 10 9 0 6 -4 13 -10 16 -5 3
-10 -1 -10 -9z"/>
<path d="M6716 20533 c-6 -14 -5 -15 5 -6 7 7 10 15 7 18 -3 3 -9 -2 -12 -12z"/>
<path d="M6877 20533 c-2 -4 -1 -19 4 -32 7 -18 13 -21 20 -14 8 8 7 17 -4 33
-8 12 -17 18 -20 13z"/>
<path d="M8186 20523 c-9 -22 10 -41 25 -26 13 13 5 43 -10 43 -5 0 -12 -8
-15 -17z"/>
<path d="M7500 20505 c0 -25 14 -34 24 -16 8 12 -3 41 -15 41 -5 0 -9 -11 -9
-25z"/>
<path d="M7820 20500 c0 -5 7 -10 15 -10 8 0 15 5 15 10 0 6 -7 10 -15 10 -8
0 -15 -4 -15 -10z"/>
<path d="M6271 20484 c0 -11 3 -14 6 -6 3 7 2 16 -1 19 -3 4 -6 -2 -5 -13z"/>
<path d="M7490 20460 c0 -5 9 -10 20 -10 11 0 20 5 20 10 0 6 -9 10 -20 10
-11 0 -20 -4 -20 -10z"/>
<path d="M6850 20424 c0 -8 5 -12 10 -9 6 3 10 10 10 16 0 5 -4 9 -10 9 -5 0
-10 -7 -10 -16z"/>
<path d="M7624 20355 c-8 -21 -3 -25 32 -28 23 -2 29 2 29 18 0 26 -52 35 -61
10z"/>
<path d="M7536 20331 c-4 -5 -2 -12 3 -15 5 -4 12 -2 15 3 4 5 2 12 -3 15 -5
4 -12 2 -15 -3z"/>
<path d="M7942 20318 c6 -18 28 -21 28 -4 0 9 -7 16 -16 16 -9 0 -14 -5 -12
-12z"/>
<path d="M7432 20272 c-5 -16 -6 -35 -2 -42 11 -18 40 -5 40 18 0 10 5 23 12
30 8 8 9 12 1 12 -6 0 -18 3 -26 6 -10 3 -18 -4 -25 -24z"/>
<path d="M7510 20296 c0 -15 43 -47 56 -42 21 8 17 36 -5 36 -11 0 -26 3 -35
6 -9 3 -16 3 -16 0z"/>
<path d="M6730 20270 c0 -5 7 -10 15 -10 8 0 15 5 15 10 0 6 -7 10 -15 10 -8
0 -15 -4 -15 -10z"/>
<path d="M8480 20238 c0 -17 45 -59 53 -51 9 9 -25 63 -40 63 -7 0 -13 -6 -13
-12z"/>
<path d="M7605 20201 c-9 -16 3 -31 26 -31 14 0 19 6 17 17 -4 20 -33 29 -43
14z"/>
<path d="M6755 20190 c3 -5 11 -10 16 -10 6 0 7 5 4 10 -3 6 -11 10 -16 10 -6
0 -7 -4 -4 -10z"/>
<path d="M7455 20190 c-3 -5 -1 -10 4 -10 6 0 11 5 11 10 0 6 -2 10 -4 10 -3
0 -8 -4 -11 -10z"/>
<path d="M8555 20189 c-10 -15 1 -23 20 -15 9 3 13 10 10 16 -8 13 -22 13 -30
-1z"/>
<path d="M7375 20180 c-4 -6 -17 -10 -31 -10 -32 0 -31 -14 4 -38 54 -38 56
-38 49 -3 -4 20 -3 30 3 26 6 -3 10 0 10 8 0 18 -27 30 -35 17z"/>
<path d="M7440 20104 c-14 -8 -33 -14 -42 -14 -21 0 -32 -16 -17 -26 6 -3 15
0 20 7 7 11 12 12 29 2 11 -7 33 -13 49 -13 24 0 28 3 24 20 -8 30 -34 39 -63
24z"/>
<path d="M6370 20100 c0 -5 7 -10 16 -10 8 0 12 5 9 10 -3 6 -10 10 -16 10 -5
0 -9 -4 -9 -10z"/>
<path d="M7850 20090 c0 -5 5 -10 11 -10 5 0 7 5 4 10 -3 6 -8 10 -11 10 -2 0
-4 -4 -4 -10z"/>
<path d="M7520 19999 c11 -36 20 -49 20 -28 0 25 -12 59 -20 59 -5 0 -5 -14 0
-31z"/>
<path d="M6640 20012 c0 -14 11 -21 26 -15 8 3 11 9 8 14 -7 11 -34 12 -34 1z"/>
<path d="M7575 19997 c-4 -10 -5 -21 -1 -24 10 -10 18 4 13 24 -4 17 -4 17
-12 0z"/>
<path d="M7767 20003 c-12 -11 -8 -23 8 -23 8 0 15 7 15 15 0 16 -12 20 -23 8z"/>
<path d="M7914 19948 c-10 -15 42 -59 61 -52 25 10 17 29 -20 47 -24 12 -36
13 -41 5z"/>
<path d="M8100 19925 c0 -18 24 -30 40 -20 8 5 8 11 -1 21 -15 19 -39 18 -39
-1z"/>
<path d="M7670 19915 c0 -10 7 -15 18 -13 21 4 19 22 -2 26 -10 2 -16 -3 -16
-13z"/>
<path d="M7787 19924 c-8 -8 1 -24 14 -24 5 0 9 7 9 15 0 15 -12 20 -23 9z"/>
<path d="M7956 19821 c-5 -7 0 -18 10 -26 11 -8 15 -15 9 -15 -5 0 -3 -5 5
-10 36 -24 40 -3 7 36 -17 20 -26 24 -31 15z"/>
<path d="M9540 19771 c0 -5 7 -12 16 -15 14 -5 15 -4 4 9 -14 17 -20 19 -20 6z"/>
<path d="M8660 19761 c0 -6 5 -13 10 -16 6 -3 10 1 10 9 0 9 -4 16 -10 16 -5
0 -10 -4 -10 -9z"/>
<path d="M8172 19744 c1 -9 9 -19 16 -22 9 -3 13 2 10 14 -1 9 -9 19 -16 22
-9 3 -13 -2 -10 -14z"/>
<path d="M9610 19680 c0 -5 5 -10 11 -10 5 0 7 5 4 10 -3 6 -8 10 -11 10 -2 0
-4 -4 -4 -10z"/>
<path d="M9180 19595 c0 -8 5 -15 10 -15 6 0 10 7 10 15 0 8 -4 15 -10 15 -5
0 -10 -7 -10 -15z"/>
<path d="M8425 19580 c3 -5 10 -10 16 -10 5 0 9 5 9 10 0 6 -7 10 -16 10 -8 0
-12 -4 -9 -10z"/>
<path d="M9000 19556 c0 -2 7 -7 16 -10 8 -3 12 -2 9 4 -6 10 -25 14 -25 6z"/>
<path d="M8930 19535 c0 -7 84 -44 89 -39 8 8 -45 43 -66 44 -13 0 -23 -2 -23
-5z"/>
<path d="M9360 19530 c0 -5 7 -7 15 -4 8 4 15 8 15 10 0 2 -7 4 -15 4 -8 0
-15 -4 -15 -10z"/>
<path d="M9293 19518 c2 -7 10 -13 17 -13 7 0 15 6 18 13 2 7 -5 12 -18 12
-13 0 -20 -5 -17 -12z"/>
<path d="M8906 19481 c-4 -5 -2 -12 3 -15 5 -4 12 -2 15 3 4 5 2 12 -3 15 -5
4 -12 2 -15 -3z"/>
<path d="M9915 19460 c-3 -5 -1 -10 4 -10 6 0 11 5 11 10 0 6 -2 10 -4 10 -3
0 -8 -4 -11 -10z"/>
<path d="M9610 19438 c0 -5 5 -8 10 -8 6 0 10 -7 10 -15 0 -8 5 -15 10 -15 6
0 10 4 10 9 0 5 3 16 6 24 4 11 -1 15 -20 13 -14 0 -26 -4 -26 -8z"/>
<path d="M9800 19435 c0 -8 4 -15 10 -15 5 0 7 7 4 15 -4 8 -8 15 -10 15 -2 0
-4 -7 -4 -15z"/>
<path d="M8890 19425 c0 -8 7 -15 16 -15 14 0 14 3 4 15 -7 8 -14 15 -16 15
-2 0 -4 -7 -4 -15z"/>
<path d="M9536 19418 c-12 -46 3 -54 22 -13 15 33 15 35 -2 35 -7 0 -16 -10
-20 -22z"/>
<path d="M9596 19412 c-3 -6 -1 -14 5 -17 15 -10 25 3 12 16 -7 7 -13 7 -17 1z"/>
<path d="M9080 19397 c0 -15 42 -37 68 -36 12 0 11 3 -6 9 -12 5 -25 16 -28
25 -8 19 -34 20 -34 2z"/>
<path d="M9820 19394 c0 -8 5 -12 10 -9 6 3 10 10 10 16 0 5 -4 9 -10 9 -5 0
-10 -7 -10 -16z"/>
<path d="M9960 19385 c0 -8 7 -15 15 -15 8 0 15 7 15 15 0 8 -7 15 -15 15 -8
0 -15 -7 -15 -15z"/>
<path d="M9575 19370 c3 -5 8 -10 11 -10 2 0 4 5 4 10 0 6 -5 10 -11 10 -5 0
-7 -4 -4 -10z"/>
<path d="M9756 19371 c-4 -5 -2 -12 3 -15 5 -4 12 -2 15 3 4 5 2 12 -3 15 -5
4 -12 2 -15 -3z"/>
<path d="M9500 19352 c0 -12 19 -26 26 -19 2 2 -2 10 -11 17 -9 8 -15 8 -15 2z"/>
<path d="M9172 19328 c5 -15 28 -23 28 -10 0 5 -7 13 -16 16 -10 4 -14 1 -12
-6z"/>
<path d="M9460 19315 c0 -16 25 -55 36 -55 9 0 9 7 -2 30 -13 25 -34 41 -34
25z"/>
<path d="M9596 19311 c-4 -6 4 -20 18 -32 14 -12 23 -26 21 -30 -3 -4 4 -10
15 -14 11 -3 20 -13 20 -21 0 -8 8 -14 18 -14 10 0 23 -5 30 -12 9 -9 12 -9
12 3 0 8 -13 20 -30 26 -16 6 -30 18 -30 27 0 8 -6 19 -12 23 -7 4 -18 17 -24
27 -13 24 -30 31 -38 17z"/>
<path d="M8960 19290 c0 -5 5 -10 10 -10 6 0 10 5 10 10 0 6 -4 10 -10 10 -5
0 -10 -4 -10 -10z"/>
<path d="M9255 19271 c10 -12 24 -21 30 -21 7 0 18 -7 25 -15 14 -17 40 -20
40 -5 0 10 -39 32 -87 51 -27 10 -27 10 -8 -10z"/>
<path d="M9756 19241 c-4 -5 -2 -12 3 -15 5 -4 12 -2 15 3 4 5 2 12 -3 15 -5
4 -12 2 -15 -3z"/>
<path d="M10213 19205 c-3 -9 -3 -18 0 -21 9 -9 27 6 27 22 0 19 -19 18 -27
-1z"/>
<path d="M10020 19191 c0 -5 5 -13 10 -16 6 -3 10 -2 10 4 0 5 -4 13 -10 16
-5 3 -10 2 -10 -4z"/>
<path d="M9887 19183 c-9 -9 -9 -34 1 -31 4 1 18 -4 31 -11 20 -11 25 -11 32
0 13 21 11 29 -10 29 -11 0 -23 5 -26 10 -7 12 -19 13 -28 3z"/>
<path d="M9977 19183 c-4 -3 -7 -11 -7 -17 0 -6 5 -5 12 2 6 6 9 14 7 17 -3 3
-9 2 -12 -2z"/>
<path d="M9735 19160 c3 -5 8 -10 11 -10 2 0 4 5 4 10 0 6 -5 10 -11 10 -5 0
-7 -4 -4 -10z"/>
<path d="M10090 19160 c0 -5 5 -10 10 -10 6 0 10 5 10 10 0 6 -4 10 -10 10 -5
0 -10 -4 -10 -10z"/>
<path d="M9800 19126 c0 -2 7 -9 15 -16 9 -7 15 -8 15 -2 0 5 -7 12 -15 16 -8
3 -15 4 -15 2z"/>
<path d="M9580 19111 c0 -6 5 -13 10 -16 6 -3 10 1 10 9 0 9 -4 16 -10 16 -5
0 -10 -4 -10 -9z"/>
<path d="M10155 19080 c-3 -5 -1 -10 4 -10 6 0 11 5 11 10 0 6 -2 10 -4 10 -3
0 -8 -4 -11 -10z"/>
<path d="M9993 19068 c2 -7 10 -13 17 -13 7 0 15 6 18 13 2 7 -5 12 -18 12
-13 0 -20 -5 -17 -12z"/>
<path d="M10050 19071 c0 -8 52 -31 71 -31 5 0 9 6 9 14 0 7 -14 16 -31 20
-42 8 -49 8 -49 -3z"/>
<path d="M10285 19067 c-4 -10 -5 -21 -1 -24 10 -10 18 4 13 24 -4 17 -4 17
-12 0z"/>
<path d="M9725 19030 c-7 -11 18 -24 35 -18 6 2 1 9 -9 15 -13 8 -22 9 -26 3z"/>
<path d="M10232 19014 c2 -11 11 -20 22 -22 13 -3 17 1 14 14 -2 11 -11 20
-22 22 -13 3 -17 -1 -14 -14z"/>
<path d="M10330 19016 c0 -9 5 -16 10 -16 6 0 10 4 10 9 0 6 -4 13 -10 16 -5
3 -10 -1 -10 -9z"/>
<path d="M10074 19005 c21 -16 32 -13 21 4 -3 6 -14 11 -23 11 -15 -1 -15 -2
2 -15z"/>
<path d="M10127 19002 c-16 -18 -16 -19 8 -30 48 -22 57 -13 27 26 -18 23 -18
23 -35 4z"/>
<path d="M10280 19000 c0 -13 5 -20 13 -17 6 2 12 10 12 17 0 7 -6 15 -12 18
-8 2 -13 -5 -13 -18z"/>
<path d="M10200 18980 c0 -5 5 -10 10 -10 6 0 10 5 10 10 0 6 -4 10 -10 10 -5
0 -10 -4 -10 -10z"/>
<path d="M10000 18961 c0 -5 7 -11 15 -15 8 -3 15 -1 15 3 0 5 -7 11 -15 15
-8 3 -15 1 -15 -3z"/>
<path d="M10243 18962 c-9 -5 -3 -17 18 -40 34 -36 44 -39 53 -16 5 13 9 14
21 4 29 -24 26 -2 -4 31 -17 18 -31 29 -31 23 0 -5 5 -15 12 -22 6 -6 9 -14 5
-18 -3 -3 -17 6 -30 20 -27 29 -27 29 -44 18z"/>
<path d="M10396 18957 c3 -10 9 -15 12 -12 3 3 0 11 -7 18 -10 9 -11 8 -5 -6z"/>
<path d="M10365 18950 c3 -5 8 -10 11 -10 2 0 4 5 4 10 0 6 -5 10 -11 10 -5 0
-7 -4 -4 -10z"/>
<path d="M10540 18902 c0 -5 9 -20 20 -33 l20 -24 -2 30 c-2 19 -9 31 -20 33
-10 2 -18 -1 -18 -6z"/>
<path d="M10410 18874 c0 -8 9 -14 20 -14 11 0 20 4 20 9 0 5 -9 11 -20 14
-13 3 -20 0 -20 -9z"/>
<path d="M10502 18839 c2 -7 10 -15 17 -17 8 -3 12 1 9 9 -2 7 -10 15 -17 17
-8 3 -12 -1 -9 -9z"/>
<path d="M10575 18810 c-8 -12 20 -24 35 -15 5 3 10 10 10 16 0 12 -37 12 -45
-1z"/>
<path d="M10545 18800 c3 -5 8 -10 11 -10 2 0 4 5 4 10 0 6 -5 10 -11 10 -5 0
-7 -4 -4 -10z"/>
<path d="M10663 18793 c-24 -5 -32 -23 -10 -23 26 0 57 13 51 21 -3 5 -8 8
-12 8 -4 -1 -17 -4 -29 -6z"/>
<path d="M10960 18675 c7 -8 19 -15 27 -15 13 0 13 3 3 15 -7 8 -19 15 -27 15
-13 0 -13 -3 -3 -15z"/>
<path d="M11939 18579 c-13 -26 -11 -29 24 -22 32 6 34 14 7 30 -17 11 -21 10
-31 -8z"/>
<path d="M7113 15593 c-20 -7 -15 -30 10 -50 25 -22 67 -94 67 -118 0 -8 4
-23 10 -33 5 -9 23 -48 41 -86 17 -39 42 -87 56 -109 13 -21 22 -45 19 -52 -3
-8 10 -23 30 -37 18 -12 34 -29 34 -36 0 -7 4 -20 9 -30 5 -9 15 -38 22 -64 6
-27 16 -48 21 -48 5 0 7 -13 3 -30 -6 -26 -4 -30 14 -30 12 0 21 -6 21 -14 0
-7 7 -19 15 -26 11 -9 12 -16 5 -25 -8 -10 -4 -18 17 -34 44 -33 63 -53 63
-69 0 -9 13 -27 29 -41 24 -22 40 -55 42 -88 0 -5 6 -15 14 -23 7 -8 34 -59
59 -112 26 -54 52 -98 57 -98 6 0 9 -8 8 -17 -2 -19 3 -34 32 -100 10 -24 19
-51 19 -60 0 -10 11 -36 25 -58 13 -22 25 -47 25 -56 0 -9 10 -19 21 -22 16
-4 20 -11 16 -28 -7 -26 14 -51 33 -39 18 11 16 56 -4 75 -26 26 -20 38 16 31
l32 -6 -24 25 c-15 16 -32 24 -42 22 -23 -6 -32 7 -14 22 11 9 22 7 50 -10 30
-17 36 -18 36 -6 0 9 -9 19 -20 22 -27 8 -25 23 3 28 20 3 20 4 3 12 -12 5
-21 3 -26 -5 -4 -7 -15 -10 -24 -7 -15 6 -15 9 0 32 9 14 20 23 24 20 19 -11
18 14 0 30 -14 12 -18 25 -14 42 5 19 2 25 -16 30 -18 5 -21 11 -16 36 3 17 9
33 12 36 10 10 54 -53 48 -71 -5 -17 31 -94 43 -91 14 4 29 60 28 106 0 42 2
47 21 47 28 0 39 28 19 50 -13 14 -13 19 1 38 10 15 13 38 11 77 -3 42 -1 55
9 55 8 0 14 -5 14 -11 0 -5 8 -9 18 -8 32 3 36 -1 16 -15 -24 -18 -13 -30 20
-22 19 5 25 12 25 34 -1 15 1 35 3 44 4 19 46 68 57 66 21 -2 36 6 63 35 28
30 30 31 23 7 -4 -14 -10 -31 -12 -37 -3 -7 13 6 36 28 23 23 41 46 41 53 0 6
-5 4 -10 -4 -7 -11 -12 -12 -21 -3 -14 14 -3 33 21 33 10 0 21 7 24 16 4 9 13
14 21 10 12 -4 14 0 10 17 -5 18 2 25 35 41 22 11 40 25 40 33 0 7 6 13 13 13
8 0 27 6 43 14 16 8 47 13 69 12 41 -3 115 26 115 44 0 6 7 10 15 10 11 0 15
-8 13 -27 -2 -19 2 -28 14 -31 14 -3 16 3 13 33 -4 27 1 45 16 66 11 16 16 29
10 29 -5 0 -15 -8 -20 -17 -9 -15 -10 -13 -11 12 0 17 7 41 16 53 9 13 14 29
11 36 -6 16 -62 9 -78 -10 -6 -8 -16 -14 -22 -14 -6 0 -20 -9 -31 -19 -12 -10
-43 -31 -71 -45 -69 -37 -89 -50 -97 -60 -3 -5 -21 -2 -41 7 -19 10 -43 17
-52 17 -13 0 -16 6 -11 24 7 29 -7 42 -24 21 -9 -11 -17 -12 -31 -4 -10 5 -19
6 -19 2 0 -4 -5 -2 -12 5 -7 7 -18 12 -26 12 -7 0 -38 12 -69 26 -53 26 -55
27 -33 39 19 10 20 13 6 18 -10 4 -20 -1 -26 -13 -11 -20 -54 -28 -64 -11 -3
5 -22 12 -41 15 -26 5 -35 12 -35 26 0 24 -31 42 -50 30 -22 -14 -70 16 -70
44 0 36 -24 49 -76 43 -37 -4 -50 -1 -66 15 -13 13 -29 18 -44 15 -14 -2 -27
0 -30 4 -3 5 -16 9 -29 9 -37 0 -105 30 -105 46 0 10 -10 14 -29 12 -18 -1
-38 6 -51 17 -12 11 -36 19 -53 20 -29 0 -32 3 -32 33 0 35 -6 40 -25 17 -7
-8 -29 -15 -50 -15 -34 0 -38 3 -43 29 -4 17 -16 35 -27 41 -26 14 -38 6 -22
-13 7 -8 9 -17 6 -20 -4 -4 -15 5 -26 18 -11 14 -28 25 -39 25 -10 0 -19 5
-19 11 0 7 -9 9 -22 6 -12 -4 -27 -2 -32 2 -6 5 -17 6 -23 4z m1109 -895 c-7
-7 -12 -8 -12 -2 0 14 12 26 19 19 2 -3 -1 -11 -7 -17z m-152 -206 c0 -5 -7
-17 -16 -28 -8 -10 -14 -14 -11 -9 2 6 7 18 10 28 7 17 17 23 17 9z m0 -82 c0
-5 -4 -10 -10 -10 -5 0 -10 5 -10 10 0 6 5 10 10 10 6 0 10 -4 10 -10z m-207
-63 c4 3 7 -3 7 -14 0 -31 -11 -34 -35 -11 -28 26 -23 58 5 33 9 -8 20 -12 23
-8z m67 -97 c0 -5 -5 -10 -11 -10 -5 0 -7 5 -4 10 3 6 8 10 11 10 2 0 4 -4 4
-10z m-60 -40 c0 -5 -7 -10 -15 -10 -8 0 -15 5 -15 10 0 6 7 10 15 10 8 0 15
-4 15 -10z m10 -70 c0 -11 -7 -20 -15 -20 -15 0 -21 21 -8 33 12 13 23 7 23
-13z"/>
<path d="M6870 15410 c0 -5 -12 -20 -27 -34 -21 -19 -30 -23 -40 -14 -11 9
-12 13 -1 19 10 6 10 9 1 9 -20 0 -36 -39 -23 -55 7 -8 9 -18 6 -24 -4 -5 1
-16 9 -25 13 -13 13 -19 3 -36 -11 -17 -10 -22 10 -35 12 -9 22 -27 22 -40 0
-13 5 -27 10 -30 13 -8 13 -45 1 -45 -5 0 -13 9 -16 20 -3 11 -12 20 -20 20
-7 0 -15 9 -18 20 -5 18 -7 19 -34 5 -15 -8 -36 -15 -45 -15 -22 0 -28 -11
-21 -38 8 -34 38 -27 50 11 9 28 11 30 17 12 4 -11 12 -28 17 -37 7 -14 5 -18
-10 -18 -29 0 -35 -17 -11 -32 11 -7 20 -18 20 -25 0 -21 -19 -25 -42 -9 -12
9 -26 16 -30 16 -11 0 13 -43 30 -53 17 -11 15 -25 -5 -30 -14 -4 -12 -5 5 -6
23 -1 32 -34 12 -46 -11 -7 -4 -25 10 -25 5 0 7 7 4 15 -9 23 17 18 59 -10 41
-28 47 -45 18 -45 -11 0 -23 -4 -26 -10 -3 -5 3 -10 14 -10 32 0 25 -30 -9
-43 -33 -13 -38 -22 -14 -31 10 -4 13 -13 9 -26 -5 -16 -2 -20 14 -20 29 0 26
-13 -9 -51 -16 -18 -27 -36 -24 -41 8 -13 34 -9 40 7 8 20 23 19 46 -2 16 -15
21 -15 28 -3 5 8 12 11 16 7 13 -13 -18 -37 -41 -31 -24 6 -49 -16 -27 -24 15
-5 16 -32 1 -32 -6 0 -8 -9 -4 -20 4 -11 2 -20 -4 -20 -6 0 -11 5 -11 11 0 6
-8 9 -17 7 -20 -4 -37 -58 -23 -72 7 -7 10 -4 10 6 0 17 24 31 34 21 3 -4 6
-14 6 -24 0 -11 11 -20 30 -24 17 -4 30 -13 30 -20 0 -18 -37 -11 -61 11 -11
10 -25 13 -38 9 -27 -8 -18 -25 9 -18 16 4 20 0 20 -20 0 -14 5 -29 10 -32 15
-9 12 -35 -3 -29 -21 8 -62 -30 -54 -50 5 -13 16 -16 52 -12 26 2 45 0 45 -6
0 -5 6 -8 13 -5 6 2 12 11 12 21 0 18 21 36 44 36 11 0 11 -4 -2 -18 -10 -10
-17 -24 -17 -30 0 -16 -17 -24 -63 -28 -23 -2 -48 -4 -54 -5 -15 -3 -18 -29
-3 -29 6 0 10 -7 10 -15 0 -8 -7 -15 -15 -15 -9 0 -18 7 -21 15 -7 16 -34 21
-34 6 0 -5 7 -14 16 -21 27 -23 37 -50 23 -66 -18 -22 -32 -17 -25 10 5 19 1
26 -14 31 -11 3 -20 11 -20 16 0 17 -19 9 -30 -12 -9 -16 -8 -23 5 -33 15 -11
15 -15 -5 -49 -12 -20 -28 -37 -36 -37 -8 0 -13 -3 -13 -7 3 -20 -2 -27 -11
-13 -5 8 -12 11 -16 7 -4 -4 -2 -13 4 -19 9 -9 15 -9 24 0 7 7 22 12 34 12 13
0 25 8 29 18 4 16 43 42 60 42 3 0 5 -12 5 -27 0 -16 -12 -39 -27 -56 -16 -17
-23 -27 -17 -24 21 12 53 -26 47 -56 -7 -37 4 -77 22 -77 18 0 18 5 4 32 -9
17 -8 19 8 16 11 -2 18 -12 17 -26 0 -15 5 -22 18 -22 19 0 24 15 8 25 -5 3
-6 13 -3 21 4 10 -2 17 -16 21 -22 6 -28 27 -10 38 6 4 33 -5 61 -19 27 -14
58 -26 68 -26 22 0 39 -22 22 -28 -7 -2 -12 -12 -12 -22 0 -24 -27 -33 -33
-11 -2 10 -14 20 -25 23 -18 5 -19 3 -10 -18 6 -13 15 -24 19 -24 5 0 3 -11
-3 -25 -15 -34 -8 -38 32 -19 31 16 34 16 46 -1 11 -14 11 -22 2 -33 -10 -12
-7 -13 22 -11 29 3 34 1 32 -13 -2 -15 38 -49 71 -61 15 -5 -5 -36 -21 -34
-10 1 -19 -2 -22 -8 -3 -5 5 -11 17 -13 14 -2 26 4 33 18 8 16 19 21 35 18 13
-3 30 -1 37 3 7 5 20 1 30 -8 23 -21 23 -35 1 -32 -36 3 -37 -1 -3 -20 24 -12
36 -26 38 -45 4 -28 -15 -36 -24 -11 -4 9 -15 20 -26 26 -16 9 -23 7 -35 -10
-8 -12 -20 -21 -28 -21 -8 0 -31 -7 -52 -16 -21 -9 -53 -23 -70 -30 -19 -8
-33 -21 -33 -31 0 -14 -4 -13 -25 7 -14 13 -27 21 -30 18 -7 -7 5 -58 14 -58
10 0 121 46 128 54 3 3 18 6 33 6 14 0 31 5 38 12 9 9 12 7 12 -9 0 -25 22
-45 42 -38 9 4 31 -9 54 -32 42 -41 73 -45 107 -15 16 14 18 14 31 -3 9 -12
19 -16 31 -11 16 6 15 9 -10 36 -16 17 -37 30 -47 30 -10 0 -18 4 -18 9 0 16
33 36 53 33 10 -2 29 6 42 18 18 17 30 20 58 15 21 -4 37 -3 41 4 4 6 15 11
24 11 13 -1 10 -6 -10 -23 -35 -29 -35 -37 2 -72 36 -35 40 -59 8 -50 -25 8
-57 43 -58 62 0 14 -38 28 -48 18 -4 -4 1 -12 11 -19 22 -17 22 -22 -3 -29
-27 -7 -25 -29 3 -27 39 4 43 1 41 -28 -2 -37 -24 -72 -46 -73 -10 -1 -23 -2
-30 -3 -22 -2 -19 22 4 26 15 2 24 11 26 26 3 23 -12 30 -23 11 -4 -6 -13 -8
-20 -5 -7 2 -17 0 -23 -6 -6 -6 -16 -7 -24 -2 -21 14 -36 13 -49 -2 -18 -22
-36 -17 -66 20 -32 41 -43 38 -43 -11 0 -31 2 -34 16 -22 14 11 19 9 34 -11
14 -18 21 -21 32 -13 7 5 23 12 35 15 16 5 23 0 27 -18 6 -24 -17 -83 -38 -96
-8 -5 -8 -10 1 -19 9 -9 17 -1 34 34 24 49 64 69 85 42 9 -12 14 -12 33 1 21
15 24 14 49 -12 19 -19 23 -28 14 -31 -10 -4 -8 -9 5 -19 17 -13 17 -14 0 -25
-13 -8 -17 -18 -13 -34 7 -29 -16 -55 -44 -48 -19 5 -19 6 4 24 14 11 24 29
24 44 0 28 -14 31 -42 10 -11 -8 -27 -15 -36 -15 -17 0 -56 -57 -46 -67 3 -4
19 6 35 21 16 16 31 23 35 18 9 -15 -60 -82 -84 -82 -11 0 -23 0 -27 -1 -4 0
-9 5 -11 13 -3 11 -2 11 6 0 7 -10 12 -6 21 17 11 25 10 33 -2 51 -13 19 -16
19 -30 5 -9 -8 -22 -15 -30 -15 -8 0 -17 -12 -20 -27 -7 -36 -1 -42 18 -17 8
10 15 14 15 7 0 -6 -5 -15 -11 -18 -6 -4 -7 -19 -4 -35 5 -22 0 -34 -20 -54
-31 -31 -60 -28 -71 7 -9 30 -51 70 -64 62 -5 -3 -10 -1 -10 6 0 20 -26 -8
-45 -47 -9 -20 -19 -33 -22 -30 -3 3 -14 1 -25 -5 -15 -8 -23 -6 -37 12 -17
22 -18 22 -32 3 -8 -10 -23 -24 -34 -30 -11 -6 -20 -17 -21 -25 -1 -17 -15
-59 -20 -59 -1 0 -14 4 -28 10 -23 8 -25 12 -14 35 6 14 19 25 30 25 19 0 25
25 8 35 -5 3 -10 -1 -10 -9 0 -9 -7 -16 -15 -16 -8 0 -15 9 -15 19 0 12 -8 21
-20 23 -33 5 -22 23 13 22 18 -1 38 -3 46 -5 8 -2 20 7 27 19 19 38 31 47 47
34 10 -9 16 -9 25 0 17 17 28 -18 12 -37 -10 -12 -9 -15 4 -15 15 0 46 46 35
53 -42 24 -100 48 -108 42 -6 -3 -11 -15 -11 -25 0 -19 -17 -36 -27 -27 -3 3
0 21 6 40 6 19 9 41 6 49 -9 23 -55 10 -66 -19 -15 -41 -10 -45 23 -22 l31 23
-23 -32 c-13 -18 -30 -30 -37 -28 -7 3 -13 1 -13 -5 0 -6 -9 -22 -20 -36 -11
-14 -20 -34 -20 -44 0 -11 -7 -19 -17 -19 -21 0 -103 42 -103 52 0 13 34 9 57
-7 34 -24 42 3 9 32 -35 30 -52 29 -69 -3 -12 -22 -15 -23 -26 -10 -10 12 -9
18 8 35 26 26 26 31 3 31 -23 0 -52 -30 -52 -54 0 -9 -4 -14 -10 -11 -5 3 -10
15 -10 26 0 34 -17 20 -24 -20 -4 -29 -12 -40 -28 -44 -30 -8 -35 -1 -15 21
21 23 21 32 2 32 -13 0 -10 9 11 45 20 35 23 49 15 59 -6 7 -9 21 -5 30 3 9 2
16 -4 16 -5 0 -12 -6 -15 -14 -3 -8 -14 -16 -24 -19 -11 -2 -9 -3 5 -2 12 1
22 -1 22 -4 0 -15 -25 -31 -47 -31 -20 0 -22 -3 -14 -18 17 -32 2 -62 -31 -62
-19 0 -28 4 -25 13 2 6 13 11 25 9 19 -3 21 2 19 37 -1 23 -2 41 -3 41 -10 0
-96 -32 -138 -51 -23 -11 -50 -4 -116 30 -9 5 -20 3 -28 -5 -9 -10 -9 -14 -1
-14 11 0 48 -39 49 -52 0 -11 -84 30 -89 43 -2 6 3 15 10 20 7 4 10 11 6 15
-3 4 -14 1 -22 -6 -14 -11 -17 -10 -22 8 -6 25 -14 27 -31 10 -8 -8 -15 -9
-20 -3 -7 10 -48 35 -57 35 -3 0 -5 -6 -5 -12 1 -19 77 -68 95 -62 8 4 15 1
15 -5 0 -6 -5 -11 -11 -11 -16 0 -5 -25 12 -26 43 -1 70 -44 28 -44 -15 0 -19
5 -15 15 4 10 -1 15 -15 15 -11 0 -31 11 -45 25 l-25 25 -29 -31 c-15 -18 -26
-38 -23 -45 6 -17 -23 -19 -33 -3 -10 16 27 89 45 90 9 0 -2 7 -23 15 -49 18
-54 23 -36 34 13 8 13 13 2 30 -7 11 -10 25 -7 30 8 12 -17 50 -32 50 -16 0
-17 -12 0 -29 9 -11 9 -14 0 -18 -8 -3 -11 -14 -7 -27 4 -16 0 -25 -11 -29
-13 -5 -14 -11 -5 -27 6 -11 19 -20 28 -20 10 0 23 -5 29 -11 12 -12 7 -39 -8
-39 -4 0 -6 6 -3 14 9 24 -15 28 -37 7 -26 -24 -41 -18 -33 13 4 17 -1 25 -21
34 -27 13 -40 2 -33 -29 2 -10 -5 -13 -26 -11 -44 5 -27 -22 19 -28 26 -3 39
-10 41 -22 4 -31 -15 -31 -71 -2 l-54 29 -38 -36 c-39 -38 -63 -41 -63 -9 0
11 8 20 22 22 12 2 23 9 26 17 4 13 -1 13 -64 -2 -27 -7 -49 -42 -49 -79 0
-21 -4 -38 -9 -38 -5 0 -24 -11 -42 -25 -18 -14 -35 -21 -38 -16 -3 5 1 11 9
15 27 10 16 26 -14 20 -20 -4 -30 -2 -34 10 -7 17 -37 22 -37 7 0 -6 -14 -11
-32 -13 -35 -3 -52 -28 -20 -28 11 0 22 5 24 11 5 15 63 -14 71 -36 9 -22 -40
-44 -110 -48 -33 -2 -68 -9 -78 -15 -12 -6 -24 -7 -34 0 -20 12 -71 -6 -71
-26 0 -9 -7 -12 -20 -9 -14 4 -22 -1 -29 -18 -6 -18 -16 -24 -37 -24 -23 0
-30 -5 -32 -23 -3 -19 -8 -23 -26 -18 -26 6 -80 -38 -70 -57 4 -7 -4 -3 -17 9
-28 25 -59 37 -59 24 0 -5 9 -14 20 -20 11 -6 20 -14 20 -19 0 -9 -62 -6 -96
4 -23 7 -42 -9 -24 -20 15 -10 12 -41 -7 -56 -13 -11 -17 -11 -20 -1 -6 17
-23 15 -37 -4 -10 -13 -16 -13 -39 -3 -24 11 -29 9 -56 -20 -16 -17 -39 -31
-52 -31 -38 0 -108 -31 -114 -51 -4 -12 -16 -19 -31 -19 -14 0 -27 -6 -30 -13
-3 -8 -21 -14 -42 -14 -81 -1 -93 -4 -114 -28 -12 -14 -27 -25 -34 -25 -6 0
-14 -6 -17 -14 -3 -7 -17 -13 -32 -13 -14 0 -33 -7 -43 -16 -9 -8 -35 -19 -57
-22 -22 -4 -44 -10 -50 -14 -5 -3 -32 -7 -60 -8 -27 -1 -56 -2 -62 -2 -7 -1
-13 -7 -13 -13 0 -14 -43 -15 -74 -2 -13 5 -21 3 -24 -4 -5 -16 -34 -15 -51 1
-10 8 -12 9 -7 0 4 -8 -6 -14 -31 -19 -21 -4 -45 -17 -55 -29 -12 -15 -33 -24
-66 -29 -26 -3 -58 -13 -71 -22 -20 -14 -29 -15 -65 -4 -22 7 -51 17 -63 22
-11 6 -27 7 -33 3 -7 -4 -16 -2 -20 5 -12 19 -117 12 -130 -10 -5 -8 -18 -10
-39 -5 -24 5 -31 3 -31 -9 0 -21 46 -65 73 -70 104 -21 222 -24 327 -7 41 6
114 16 161 21 47 5 191 27 320 49 518 89 628 103 902 117 75 4 137 10 137 14
0 4 26 8 58 9 31 0 75 3 97 6 43 5 388 41 470 49 28 3 88 9 135 15 47 5 120
11 163 13 43 1 80 5 83 9 2 3 29 7 60 8 31 0 59 3 63 5 4 3 85 8 181 11 96 4
177 11 180 15 3 5 12 8 20 7 18 -2 240 13 290 19 179 22 337 34 448 34 72 0
132 4 132 9 0 19 416 29 695 17 86 -4 116 -1 214 24 125 32 122 30 214 148 27
34 43 63 37 67 -5 3 -10 2 -10 -4 0 -14 -45 -61 -58 -61 -5 0 -8 9 -5 21 4 12
0 25 -8 30 -19 12 -59 11 -59 -1 0 -5 -9 -10 -20 -10 -16 0 -20 7 -20 33 0 21
-11 51 -30 78 -16 24 -30 50 -30 57 0 6 -4 12 -9 12 -6 0 -7 -16 -4 -35 4 -28
2 -35 -11 -35 -20 0 -21 -19 -1 -26 28 -11 17 -41 -16 -48 -26 -5 -29 -8 -19
-21 17 -20 -12 -50 -36 -37 -15 8 -15 10 0 15 28 11 18 34 -14 34 -32 0 -37
-6 -18 -25 9 -9 9 -12 -1 -12 -7 0 -21 -10 -31 -22 -24 -30 -33 -19 -34 39 -2
55 -9 71 -34 73 -9 0 -33 2 -52 3 -46 3 -50 19 -8 33 40 14 51 44 16 44 -23 0
-48 16 -48 31 0 3 14 9 30 13 17 3 30 12 30 20 0 13 -34 90 -66 146 -14 25
-41 35 -37 13 2 -9 -4 -10 -22 -3 -18 7 -32 6 -45 -2 -25 -16 -34 -5 -23 28
13 38 41 55 54 32 12 -21 39 -24 39 -5 0 18 -41 41 -67 38 -25 -3 -35 10 -23
29 8 13 16 12 57 -3 l48 -17 -30 29 c-16 17 -36 37 -43 46 -7 8 -24 15 -37 15
-25 0 -35 15 -14 22 7 2 7 12 -2 31 -15 34 -8 42 36 39 34 -3 35 -2 28 30 -3
18 -12 37 -20 41 -7 4 -13 17 -13 28 0 11 -5 30 -11 41 -9 16 -7 26 10 49 25
33 20 49 -14 49 -36 0 -152 122 -162 170 -4 21 -11 30 -25 30 -15 0 -18 4 -12
18 4 9 7 28 6 42 0 14 5 31 11 38 8 10 5 14 -11 19 -12 3 -22 9 -22 14 0 5 -7
9 -15 9 -8 0 -15 -7 -15 -15 0 -8 -4 -15 -9 -15 -15 0 -23 18 -11 25 5 3 10
13 10 21 0 12 -3 12 -20 2 -11 -7 -20 -22 -20 -33 -1 -18 -2 -18 -10 -3 -10
17 1 60 22 86 9 10 13 11 19 0 7 -10 11 -10 21 0 19 19 30 14 18 -9 -15 -26
-7 -34 19 -20 17 9 20 9 15 -3 -9 -23 14 -28 26 -6 6 11 18 20 26 20 8 0 27
14 41 30 13 17 31 30 39 30 8 0 14 5 14 10 0 6 -7 10 -16 10 -11 0 -14 5 -9
18 16 38 15 48 -9 77 -22 27 -27 29 -46 17 -28 -17 -63 -6 -55 18 6 19 -46 80
-69 80 -16 0 -46 -32 -46 -48 0 -22 -20 -12 -30 14 -14 36 -12 54 5 54 8 0 15
5 15 11 0 6 9 9 20 6 10 -3 27 1 37 9 17 13 17 13 0 14 -24 0 -30 21 -17 55 9
22 7 31 -6 46 -9 10 -21 16 -27 12 -6 -4 -8 2 -5 15 4 15 2 22 -8 22 -8 0 -14
-7 -14 -16 0 -12 -7 -14 -32 -9 -71 16 -95 33 -68 50 17 11 0 26 -22 20 -12
-4 -27 0 -38 10 -14 13 -23 14 -39 6 -26 -14 -31 -14 -31 2 0 8 9 22 20 32 18
16 20 16 36 1 9 -9 19 -14 23 -11 3 4 -2 11 -11 16 -10 6 -15 16 -11 25 4 10
-6 26 -26 45 -18 16 -28 29 -24 29 5 0 14 14 20 30 7 19 18 30 31 30 20 0 21
9 7 68 -4 19 -16 39 -26 45 -20 13 -26 37 -9 37 6 0 10 7 10 15 0 8 -4 15 -10
15 -5 0 -10 -4 -10 -10 0 -5 -5 -10 -11 -10 -6 0 -9 6 -6 14 8 20 -3 27 -25
15 -15 -8 -29 -4 -69 21 -29 20 -49 39 -49 50 0 11 -9 25 -21 33 -16 12 -20
23 -17 53 3 34 6 39 27 36 20 -2 22 0 11 13 -10 12 -10 19 -2 27 17 17 15 28
-7 28 -10 0 -21 7 -25 15 -4 11 1 15 19 15 33 0 39 16 15 40 -11 11 -20 27
-20 35 0 25 -35 0 -50 -35 -12 -29 -11 -33 15 -60 33 -34 29 -45 -8 -31 -34
13 -53 47 -36 67 9 11 7 14 -15 14 -21 0 -26 5 -26 25 0 18 -5 25 -19 25 -12
0 -23 9 -27 23 -11 36 -38 66 -58 67 -11 0 -16 5 -13 14 3 8 -1 17 -9 20 -8 3
-14 1 -14 -4z m45 -261 c-10 -15 -25 -10 -19 6 4 8 10 12 15 9 5 -3 7 -10 4
-15z m-36 -70 c-19 -12 -24 -2 -8 17 9 11 14 13 17 4 3 -7 -2 -16 -9 -21z
m-39 -43 c0 -21 -21 -31 -31 -15 -14 22 -11 29 11 29 11 0 20 -6 20 -14z m103
-16 c-6 -23 -33 -27 -33 -6 0 13 13 23 32 25 3 1 4 -8 1 -19z m45 -48 c3 -9
-2 -13 -14 -10 -9 1 -19 9 -22 16 -3 9 2 13 14 10 9 -1 19 -9 22 -16z m-148
-81 c17 -14 20 -21 10 -20 -8 0 -27 11 -42 24 -51 44 -25 41 32 -4z m240 -31
c0 -5 -5 -10 -11 -10 -5 0 -7 5 -4 10 3 6 8 10 11 10 2 0 4 -4 4 -10z m-110
-50 c0 -5 -5 -10 -11 -10 -5 0 -7 5 -4 10 3 6 8 10 11 10 2 0 4 -4 4 -10z m56
-5 c-8 -8 -17 -15 -20 -15 -3 0 -6 7 -6 15 0 9 9 15 21 15 18 0 19 -2 5 -15z
m-109 -25 c6 0 16 -7 23 -15 11 -13 9 -15 -13 -15 -14 0 -28 7 -31 17 -5 12
-9 14 -18 5 -7 -7 -16 -12 -20 -12 -12 0 -10 24 4 38 9 9 15 8 28 -3 9 -8 21
-15 27 -15z m93 -101 c0 -6 -7 -6 -20 1 -11 6 -20 15 -20 21 0 6 7 6 20 -1 11
-6 20 -15 20 -21z m-110 -25 c0 -17 -22 -14 -28 4 -2 7 3 12 12 12 9 0 16 -7
16 -16z m310 -34 c0 -5 -7 -10 -15 -10 -8 0 -15 5 -15 10 0 6 7 10 15 10 8 0
15 -4 15 -10z m-134 -124 c15 -14 22 -26 16 -26 -6 0 -14 5 -17 10 -10 17 -45
12 -39 -5 4 -8 2 -15 -4 -15 -5 0 -13 12 -16 26 -7 25 -8 26 -21 8 -10 -14
-17 -16 -25 -8 -9 9 -6 15 10 27 30 21 65 15 96 -17z m-129 -32 c29 -8 20 -24
-13 -24 -15 0 -24 6 -24 15 0 17 4 18 37 9z m63 -21 c0 -20 -24 -11 -28 10 -2
12 1 15 12 11 9 -3 16 -13 16 -21z m490 -23 c0 -5 -4 -10 -10 -10 -5 0 -10 5
-10 10 0 6 5 10 10 10 6 0 10 -4 10 -10z m-335 -60 c3 -5 1 -10 -4 -10 -6 0
-11 5 -11 10 0 6 2 10 4 10 3 0 8 -4 11 -10z m153 -8 c6 -18 -15 -14 -22 4 -4
10 -1 14 6 12 6 -2 14 -10 16 -16z m-202 -14 c9 -15 -18 -29 -41 -22 -26 8
-28 11 -21 22 8 13 55 12 62 0z m414 -13 c0 -26 -14 -33 -25 -15 -9 14 1 40
15 40 5 0 10 -11 10 -25z m-635 5 c3 -5 1 -10 -4 -10 -6 0 -11 5 -11 10 0 6 2
10 4 10 3 0 8 -4 11 -10z m345 -4 c0 -3 -4 -8 -10 -11 -5 -3 -10 -1 -10 4 0 6
5 11 10 11 6 0 10 -2 10 -4z m-242 -84 c2 -7 -2 -10 -12 -6 -9 3 -16 11 -16
16 0 13 23 5 28 -10z m57 -2 c-3 -5 -10 -10 -16 -10 -5 0 -9 5 -9 10 0 6 7 10
16 10 8 0 12 -4 9 -10z m-77 -25 c11 -14 27 -25 36 -25 9 0 16 -7 16 -15 0 -8
-7 -15 -15 -15 -26 0 -16 -21 15 -31 17 -6 30 -17 30 -25 0 -21 -28 -17 -47 6
-10 11 -24 20 -31 20 -10 0 -12 8 -7 30 6 26 4 30 -14 30 -23 0 -35 15 -27 35
8 22 22 18 44 -10z m450 -2 c-2 -10 -11 -19 -21 -21 -16 -3 -17 -1 -5 17 16
25 31 27 26 4z m-360 -11 c2 -7 -2 -10 -12 -6 -9 3 -16 11 -16 16 0 13 23 5
28 -10z m200 -31 c3 -8 -1 -12 -9 -9 -7 2 -15 10 -17 17 -3 8 1 12 9 9 7 -2
15 -10 17 -17z m-82 -28 c-6 -6 -46 20 -46 30 0 4 11 0 25 -9 14 -9 24 -19 21
-21z m-261 9 c-3 -3 -11 0 -18 7 -9 10 -8 11 6 5 10 -3 15 -9 12 -12z m430
-11 c-3 -6 -11 -11 -17 -11 -6 0 -6 6 2 15 14 17 26 13 15 -4z m-215 -6 c0 -6
-8 -15 -18 -21 -15 -10 -22 -8 -40 11 l-22 22 40 -1 c22 0 40 -5 40 -11z m354
-18 c3 -12 1 -26 -4 -31 -7 -7 -10 -2 -10 13 0 16 -4 21 -15 17 -17 -6 -18 -4
-9 18 8 20 31 10 38 -17z m-174 13 c0 -5 -4 -10 -10 -10 -5 0 -10 5 -10 10 0
6 5 10 10 10 6 0 10 -4 10 -10z m90 -10 c0 -21 -24 -28 -35 -10 -8 14 3 30 21
30 8 0 14 -9 14 -20z m-554 -2 c4 -6 2 -14 -4 -16 -7 -2 -12 -9 -12 -15 0 -15
-39 -41 -48 -32 -4 3 -1 14 6 23 7 9 15 25 18 35 7 20 29 23 40 5z m108 -7 c4
-5 1 -11 -5 -13 -12 -4 -2 -58 12 -58 4 0 15 10 23 22 14 20 16 20 16 4 0 -27
-84 -106 -101 -96 -10 7 -7 14 15 35 35 32 30 49 -18 53 -35 3 -36 2 -30 -22
7 -30 -10 -35 -42 -12 -18 14 -18 15 9 25 16 6 26 15 23 20 -8 13 21 34 39 27
8 -3 21 1 27 9 15 17 25 18 32 6z m396 -22 c0 -5 -7 -9 -15 -9 -15 0 -20 12
-9 23 8 8 24 -1 24 -14z m-175 1 c3 -5 2 -10 -4 -10 -5 0 -13 5 -16 10 -3 6
-2 10 4 10 5 0 13 -4 16 -10z m129 -8 c9 -15 -34 -44 -52 -36 -14 6 -13 8 6
11 12 3 22 11 22 19 0 15 16 19 24 6z m-226 -41 c3 -9 -2 -11 -17 -6 -13 4
-21 2 -21 -5 0 -14 -38 -55 -45 -48 -11 10 11 49 35 63 29 15 42 14 48 -4z
m652 9 c0 -5 -5 -10 -11 -10 -5 0 -7 5 -4 10 3 6 8 10 11 10 2 0 4 -4 4 -10z
m-410 -30 c0 -5 -4 -10 -9 -10 -6 0 -13 5 -16 10 -3 6 1 10 9 10 9 0 16 -4 16
-10z m185 -21 c-6 -9 -35 -1 -35 10 0 4 3 11 7 14 8 9 34 -13 28 -24z m-385 2
c0 -6 -4 -13 -10 -16 -5 -3 -10 1 -10 9 0 9 5 16 10 16 6 0 10 -4 10 -9z m578
-10 c3 -8 -1 -12 -9 -9 -7 2 -15 10 -17 17 -3 8 1 12 9 9 7 -2 15 -10 17 -17z
m-843 -12 c6 -8 -63 -65 -69 -58 -8 8 -8 34 -1 55 5 16 13 19 36 16 16 -2 32
-8 34 -13z m345 14 c0 -5 -7 -16 -15 -27 -19 -24 -39 -12 -22 14 11 19 37 28
37 13z m70 -3 c0 -5 -4 -10 -9 -10 -6 0 -13 5 -16 10 -3 6 1 10 9 10 9 0 16
-4 16 -10z m200 -40 c19 0 29 6 33 20 3 11 10 20 16 20 17 0 13 -12 -12 -44
-21 -26 -26 -28 -48 -16 -37 20 -59 42 -52 53 4 6 12 2 21 -11 9 -14 25 -22
42 -22z m-541 -25 c8 -8 13 -17 10 -19 -7 -8 -79 27 -79 37 0 13 52 -1 69 -18z
m56 14 c4 -5 21 -9 37 -7 42 4 45 -14 7 -31 -30 -13 -33 -12 -50 10 -10 13
-19 27 -19 32 0 11 18 9 25 -4z m135 -9 c0 -5 -4 -10 -10 -10 -5 0 -10 5 -10
10 0 6 5 10 10 10 6 0 10 -4 10 -10z m242 -12 c-7 -7 -12 -8 -12 -2 0 14 12
26 19 19 2 -3 -1 -11 -7 -17z m-197 -24 c-9 -9 -19 -13 -23 -10 -3 4 0 11 8
16 24 15 33 11 15 -6z m105 6 c0 -5 -2 -10 -4 -10 -3 0 -8 5 -11 10 -3 6 -1
10 4 10 6 0 11 -4 11 -10z m-170 -37 c0 -10 -6 -13 -16 -9 -9 4 -23 1 -30 -5
-21 -17 -18 10 3 33 12 14 19 15 30 7 7 -6 13 -18 13 -26z m88 -14 c-2 -6 -8
-10 -13 -10 -5 0 -11 4 -13 10 -2 6 4 11 13 11 9 0 15 -5 13 -11z m167 -8 c0
-23 -22 -24 -28 -1 -4 16 -1 20 11 18 9 -2 17 -10 17 -17z m-245 -11 c0 -5 -2
-10 -4 -10 -3 0 -8 5 -11 10 -3 6 -1 10 4 10 6 0 11 -4 11 -10z m-90 -28 c0
-4 -9 -13 -20 -20 -17 -10 -20 -10 -20 2 0 8 8 17 18 19 9 3 18 5 20 6 1 0 2
-2 2 -7z m387 2 c-3 -3 -12 -4 -19 -1 -8 3 -5 6 6 6 11 1 17 -2 13 -5z m181
-6 c-6 -18 -28 -21 -28 -4 0 9 7 16 16 16 9 0 14 -5 12 -12z m-388 -17 c0 -5
-7 -14 -15 -21 -12 -10 -15 -10 -15 2 0 8 3 18 7 21 9 10 23 9 23 -2z m280 -1
c13 -8 13 -10 -2 -10 -9 0 -20 5 -23 10 -8 13 5 13 25 0z m-195 -30 c3 -11 15
-25 26 -30 16 -9 21 -6 31 15 13 29 23 32 32 9 14 -37 7 -44 -35 -39 -34 4
-45 1 -56 -15 -8 -11 -19 -20 -25 -20 -6 0 -4 8 5 18 21 23 21 36 2 52 -19 16
-19 30 -1 30 8 0 18 -9 21 -20z m-255 0 c0 -5 7 -10 16 -10 8 0 12 -5 9 -10
-4 -7 -13 -7 -26 0 -20 11 -26 30 -9 30 6 0 10 -4 10 -10z m210 -10 c0 -5 -4
-10 -9 -10 -6 0 -13 5 -16 10 -3 6 1 10 9 10 9 0 16 -4 16 -10z m327 -27 c-3
-3 -11 -2 -17 2 -9 6 -9 10 1 16 14 8 27 -7 16 -18z m-89 6 c-2 -6 -8 -10 -13
-10 -5 0 -11 4 -13 10 -2 6 4 11 13 11 9 0 15 -5 13 -11z m76 -35 c4 -9 4 -19
1 -22 -7 -8 -35 19 -29 29 8 14 21 11 28 -7z m51 -14 c-3 -5 -10 -10 -16 -10
-5 0 -9 5 -9 10 0 6 7 10 16 10 8 0 12 -4 9 -10z m-240 -9 c3 -5 1 -12 -5 -16
-5 -3 -10 1 -10 9 0 18 6 21 15 7z m-105 -47 c0 -14 -3 -14 -15 -4 -8 7 -15
14 -15 16 0 2 7 4 15 4 8 0 15 -7 15 -16z m39 -44 c-10 -28 -29 -41 -29 -20 0
6 5 10 11 10 6 0 8 9 4 20 -4 14 -2 20 9 20 12 0 13 -5 5 -30z m411 -15 c0
-13 -4 -13 -22 -3 -13 7 -25 14 -27 15 -1 1 0 6 4 12 9 15 45 -5 45 -24z
m-300 -4 c-10 -20 -30 -29 -30 -14 0 10 33 44 37 39 3 -2 0 -14 -7 -25z m237
13 c2 -5 -3 -18 -10 -28 -11 -15 -17 -16 -40 -5 -15 7 -27 16 -27 20 0 13 18
20 25 9 10 -15 25 -12 25 6 0 16 21 15 27 -2z m187 -19 c3 -9 0 -15 -9 -15 -8
0 -15 7 -15 15 0 8 4 15 9 15 5 0 11 -7 15 -15z m-493 -17 c-9 -25 -41 -37
-41 -16 0 17 20 38 37 38 9 0 10 -7 4 -22z m29 -29 c0 -5 -7 -9 -15 -9 -15 0
-20 12 -9 23 8 8 24 -1 24 -14z m351 -16 c-10 -17 -10 -16 -11 3 0 23 13 41
18 25 2 -6 -1 -18 -7 -28z m-43 -5 c-6 -18 -28 -21 -28 -4 0 9 7 16 16 16 9 0
14 -5 12 -12z m-338 -5 c-1 -18 -19 -35 -29 -28 -9 5 -7 11 6 21 21 16 23 16
23 7z m-4 -99 c-4 -13 -13 -24 -22 -24 -13 0 -13 2 -1 21 8 11 13 30 10 42 -4
20 -3 20 7 4 7 -10 9 -29 6 -43z m-36 26 c6 -11 7 -20 2 -20 -10 0 -32 21 -32
32 0 16 19 8 30 -12z m322 6 c42 -18 64 -41 48 -51 -7 -4 -18 2 -26 13 -8 11
-24 22 -36 24 -12 2 -23 9 -26 16 -5 15 -2 15 40 -2z m227 -12 c8 -7 -12 -24
-30 -24 -13 0 -19 7 -19 21 0 16 4 19 23 13 12 -3 24 -8 26 -10z m-135 -19 c3
-8 13 -15 23 -15 12 0 14 -3 6 -11 -6 -6 -16 -8 -22 -5 -16 10 -33 46 -22 46
5 0 11 -7 15 -15z m86 -28 c0 -7 -5 -18 -12 -25 -9 -9 -7 -13 5 -18 21 -8 22
-24 2 -24 -8 0 -15 5 -15 10 0 6 -11 10 -25 10 -32 0 -31 5 3 35 31 28 42 31
42 12z m-167 -34 c-7 -2 -19 -2 -25 0 -7 3 -2 5 12 5 14 0 19 -2 13 -5z m76
-25 c10 -27 -6 -43 -26 -26 -9 7 -10 15 -2 29 13 25 18 24 28 -3z m-149 -33
c8 -9 8 -15 2 -15 -18 0 -42 12 -42 21 0 14 26 10 40 -6z m70 5 c0 -5 -2 -10
-4 -10 -3 0 -8 5 -11 10 -3 6 -1 10 4 10 6 0 11 -4 11 -10z m170 -8 c0 -12
-23 -32 -37 -32 -17 0 -17 27 0 33 19 8 37 8 37 -1z m-115 -40 c0 -18 -20 -15
-23 4 -3 10 1 15 10 12 7 -3 13 -10 13 -16z m125 -29 c0 -26 -1 -26 -14 -8
-14 20 -12 35 5 35 5 0 9 -12 9 -27z m-40 -48 c0 -21 -17 -18 -30 4 -15 28
-13 33 10 21 11 -6 20 -17 20 -25z m-119 -31 c62 -39 77 -61 33 -50 -16 4 -32
2 -42 -6 -13 -11 -15 -10 -10 10 9 34 -18 27 -31 -8 -5 -16 -15 -30 -20 -30
-14 0 -14 6 2 31 10 17 9 22 -13 40 -24 19 -25 20 -6 34 11 8 22 15 24 15 2 0
31 -16 63 -36z m-1251 -44 c8 -5 12 -11 9 -14 -3 -3 -14 1 -25 9 -21 16 -8 20
16 5z m1163 -6 c8 -8 -3 -34 -14 -34 -5 0 -9 9 -9 20 0 19 11 26 23 14z m57
-44 c0 -5 -5 -10 -11 -10 -5 0 -7 5 -4 10 3 6 8 10 11 10 2 0 4 -4 4 -10z m95
0 c-3 -5 -11 -10 -16 -10 -6 0 -7 5 -4 10 3 6 11 10 16 10 6 0 7 -4 4 -10z
m45 -16 c0 -8 -4 -14 -10 -14 -5 0 -10 9 -10 21 0 11 5 17 10 14 6 -3 10 -13
10 -21z m200 7 c0 -11 -4 -22 -9 -25 -5 -3 -8 6 -8 19 0 14 3 25 8 25 5 0 9
-9 9 -19z m-102 -8 c-2 -10 -11 -19 -21 -21 -16 -3 -17 -1 -7 17 13 25 33 28
28 4z m-1818 -23 c0 -11 -6 -20 -14 -20 -21 0 -31 21 -15 31 22 14 29 11 29
-11z m1328 -2 c2 -11 -4 -15 -20 -13 -32 3 -32 3 -18 20 15 18 34 15 38 -7z
m242 7 c14 -8 35 -14 47 -15 25 0 56 -27 47 -41 -3 -5 -10 -7 -15 -3 -5 3 -7
10 -4 15 4 5 -8 9 -25 9 -37 0 -100 25 -100 39 0 15 20 13 50 -4z m-427 -19
c10 -3 17 -11 15 -18 -5 -15 -85 -21 -94 -7 -9 16 28 47 46 38 8 -4 23 -10 33
-13z m-1438 4 c3 -5 2 -10 -4 -10 -5 0 -13 5 -16 10 -3 6 -2 10 4 10 5 0 13
-4 16 -10z m100 0 c3 -5 2 -10 -4 -10 -5 0 -13 5 -16 10 -3 6 -2 10 4 10 5 0
13 -4 16 -10z m-178 -30 c-12 -21 -28 -25 -41 -13 -8 9 35 43 46 37 4 -3 2
-14 -5 -24z m957 -1 c-9 -15 -34 -10 -28 5 3 8 12 12 20 9 8 -3 11 -9 8 -14z
m906 8 c0 -8 -9 -22 -20 -32 -23 -20 -24 -17 -10 19 10 27 30 35 30 13z m270
3 c8 -5 11 -12 8 -16 -10 -9 -38 3 -38 16 0 12 10 13 30 0z m135 -1 c12 -12
-21 -27 -47 -22 -41 8 -35 30 6 29 19 -1 38 -4 41 -7z m-1098 -59 c-6 -22 -14
-35 -17 -29 -5 8 -5 57 -1 88 1 2 7 -2 15 -8 10 -9 11 -20 3 -51z m753 50 c8
-5 12 -11 10 -14 -3 -2 -14 2 -24 10 -22 15 -10 19 14 4z m390 0 c0 -5 -4 -10
-10 -10 -5 0 -10 5 -10 10 0 6 5 10 10 10 6 0 10 -4 10 -10z m-532 -28 c2 -14
-2 -22 -11 -22 -17 0 -26 19 -19 38 7 19 27 9 30 -16z m316 12 c8 -21 3 -26
-18 -18 -9 3 -16 12 -16 20 0 19 26 18 34 -2z m-1394 -4 c0 -5 -4 -10 -10 -10
-5 0 -10 5 -10 10 0 6 5 10 10 10 6 0 10 -4 10 -10z m1300 0 c0 -5 -5 -10 -11
-10 -5 0 -7 5 -4 10 3 6 8 10 11 10 2 0 4 -4 4 -10z m-2083 -6 c-3 -3 -12 -4
-19 -1 -8 3 -5 6 6 6 11 1 17 -2 13 -5z m1521 -2 c17 -11 4 -42 -18 -42 -13 0
-16 6 -12 25 5 27 10 29 30 17z m722 -12 c0 -5 -4 -10 -9 -10 -6 0 -13 5 -16
10 -3 6 1 10 9 10 9 0 16 -4 16 -10z m-815 -22 c72 -35 50 -55 -23 -21 -47 21
-45 20 -37 32 8 14 7 14 60 -11z m-225 -18 c0 -5 -9 -10 -21 -10 -11 0 -17 5
-14 10 3 6 13 10 21 10 8 0 14 -4 14 -10z m-800 -10 c0 -5 -5 -10 -11 -10 -5
0 -7 5 -4 10 3 6 8 10 11 10 2 0 4 -4 4 -10z m-60 -20 c0 -5 -2 -10 -4 -10 -3
0 -8 5 -11 10 -3 6 -1 10 4 10 6 0 11 -4 11 -10z m-525 -50 c3 -5 1 -10 -4
-10 -6 0 -11 5 -11 10 0 6 2 10 4 10 3 0 8 -4 11 -10z m-225 -26 c0 -17 -22
-14 -28 4 -2 7 3 12 12 12 9 0 16 -7 16 -16z m3120 -43 c0 -11 -29 -35 -35
-29 -10 9 7 38 21 38 8 0 14 -4 14 -9z m-250 -50 c0 -12 -20 -25 -27 -18 -7 7
6 27 18 27 5 0 9 -4 9 -9z m216 -38 c-10 -10 -19 5 -10 18 6 11 8 11 12 0 2
-7 1 -15 -2 -18z m-54 -28 c-2 -15 2 -31 8 -35 17 -10 3 -30 -20 -30 -13 0
-17 -5 -14 -15 10 -24 -24 -18 -51 10 -14 13 -25 30 -25 37 0 24 18 41 35 34
12 -4 23 1 32 14 20 28 39 20 35 -15z"/>
<path d="M8300 15246 c0 -2 9 -6 20 -9 11 -3 18 -1 14 4 -5 9 -34 13 -34 5z"/>
<path d="M8120 15195 c0 -9 5 -15 11 -13 6 2 11 8 11 13 0 5 -5 11 -11 13 -6
2 -11 -4 -11 -13z"/>
<path d="M6690 15179 c0 -5 5 -7 10 -4 6 3 10 8 10 11 0 2 -4 4 -10 4 -5 0
-10 -5 -10 -11z"/>
<path d="M8576 15133 c-8 -9 14 -33 30 -33 8 0 14 4 14 10 0 12 -35 31 -44 23z"/>
<path d="M8550 15080 c0 -5 5 -10 10 -10 6 0 10 5 10 10 0 6 -4 10 -10 10 -5
0 -10 -4 -10 -10z"/>
<path d="M6610 15062 c0 -6 6 -13 13 -16 10 -5 10 -7 0 -12 -7 -3 -13 -12 -13
-20 0 -8 -7 -17 -15 -20 -18 -7 -21 -47 -2 -42 6 3 13 14 15 26 2 12 10 22 18
22 19 0 18 44 -1 60 -9 8 -15 8 -15 2z"/>
<path d="M6576 15041 c-3 -5 1 -11 9 -15 9 -3 15 0 15 9 0 16 -16 20 -24 6z"/>
<path d="M6540 15010 c0 -5 5 -10 11 -10 5 0 7 5 4 10 -3 6 -8 10 -11 10 -2 0
-4 -4 -4 -10z"/>
<path d="M6660 14961 c0 -5 5 -13 10 -16 6 -3 10 -2 10 4 0 5 -4 13 -10 16 -5
3 -10 2 -10 -4z"/>
<path d="M7380 14853 c0 -13 5 -23 10 -23 13 0 13 11 0 30 -8 12 -10 11 -10
-7z"/>
<path d="M6754 14819 c-10 -17 13 -36 27 -22 12 12 4 33 -11 33 -5 0 -12 -5
-16 -11z"/>
<path d="M6675 14800 c-3 -5 -1 -10 4 -10 6 0 11 5 11 10 0 6 -2 10 -4 10 -3
0 -8 -4 -11 -10z"/>
<path d="M6660 14660 c0 -5 5 -10 10 -10 6 0 10 5 10 10 0 6 -4 10 -10 10 -5
0 -10 -4 -10 -10z"/>
<path d="M6629 14616 c12 -15 62 -46 74 -46 2 0 2 14 -1 30 -4 28 -22 43 -22
19 0 -6 -7 -8 -15 -5 -52 21 -51 21 -36 2z"/>
<path d="M6768 14573 c-10 -2 -18 -9 -18 -15 0 -6 -10 -8 -25 -4 -14 4 -25 2
-25 -3 0 -15 32 -29 60 -26 34 4 33 4 49 14 12 8 12 12 2 25 -8 9 -16 15 -20
15 -3 -1 -14 -3 -23 -6z"/>
<path d="M8115 14520 c3 -5 8 -10 11 -10 2 0 4 5 4 10 0 6 -5 10 -11 10 -5 0
-7 -4 -4 -10z"/>
<path d="M8130 14485 c0 -8 5 -15 10 -15 6 0 10 7 10 15 0 8 -4 15 -10 15 -5
0 -10 -7 -10 -15z"/>
<path d="M6740 14482 c0 -5 7 -16 16 -23 14 -12 16 -11 13 5 -4 20 -29 35 -29
18z"/>
<path d="M7623 14448 c-13 -6 -23 -15 -23 -20 0 -5 5 -6 10 -3 6 3 13 -1 16
-9 10 -26 23 -18 22 14 -1 17 -1 30 -2 29 -1 0 -11 -5 -23 -11z"/>
<path d="M6740 14409 c0 -5 5 -7 10 -4 6 3 10 8 10 11 0 2 -4 4 -10 4 -5 0
-10 -5 -10 -11z"/>
<path d="M6627 14390 c-14 -11 -30 -20 -36 -20 -6 0 -11 -2 -11 -4 0 -2 -2
-11 -5 -18 -4 -10 4 -14 30 -15 28 -1 39 5 56 28 32 46 11 64 -34 29z"/>
<path d="M6685 14360 c3 -5 15 -10 25 -10 10 0 22 5 25 10 4 6 -7 10 -25 10
-18 0 -29 -4 -25 -10z"/>
<path d="M6775 14332 c-19 -13 -36 -52 -24 -52 16 0 50 41 43 51 -6 11 -6 11
-19 1z"/>
<path d="M6162 14289 c5 -15 77 -39 84 -28 3 5 -10 16 -30 24 -42 18 -59 19
-54 4z"/>
<path d="M6660 14275 c-20 -24 -6 -28 15 -5 10 11 13 20 8 20 -6 0 -16 -7 -23
-15z"/>
<path d="M8986 14277 c-12 -9 -19 -30 -22 -68 -3 -31 -15 -74 -30 -103 -14
-27 -30 -57 -34 -65 -47 -88 -85 -201 -68 -201 4 0 8 5 8 11 0 6 30 73 66 148
70 144 90 193 103 254 10 40 5 44 -23 24z"/>
<path d="M6716 14231 c-16 -26 35 -49 55 -25 14 17 12 20 -22 29 -16 4 -30 2
-33 -4z"/>
<path d="M6670 14189 c0 -5 5 -7 10 -4 6 3 10 8 10 11 0 2 -4 4 -10 4 -5 0
-10 -5 -10 -11z"/>
<path d="M6650 14160 c0 -5 5 -10 11 -10 5 0 7 5 4 10 -3 6 -8 10 -11 10 -2 0
-4 -4 -4 -10z"/>
<path d="M6410 14140 c0 -11 4 -20 10 -20 5 0 14 9 20 20 9 17 8 20 -10 20
-13 0 -20 -7 -20 -20z"/>
<path d="M6590 14146 c0 -2 9 -6 20 -9 11 -3 18 -1 14 4 -5 9 -34 13 -34 5z"/>
<path d="M6650 14064 c0 -17 22 -14 28 4 2 7 -3 12 -12 12 -9 0 -16 -7 -16
-16z"/>
<path d="M7765 13987 c-3 -9 -7 -24 -10 -33 -6 -20 15 -14 29 9 8 12 7 20 -1
28 -10 10 -14 9 -18 -4z"/>
<path d="M6686 13945 c-14 -19 -25 -23 -42 -19 -15 4 -24 2 -24 -5 0 -6 4 -11
9 -11 5 0 16 -3 24 -6 9 -3 23 7 37 26 26 37 22 50 -4 15z"/>
<path d="M7977 13944 c-8 -8 1 -24 14 -24 5 0 9 7 9 15 0 15 -12 20 -23 9z"/>
<path d="M6525 13924 c-11 -3 -30 -7 -43 -10 -13 -3 -29 -19 -39 -40 -15 -31
-15 -36 -3 -45 14 -8 68 -3 80 8 3 3 -3 10 -13 17 -9 7 -17 15 -17 18 0 11
106 -16 123 -30 10 -9 17 -11 17 -4 0 6 -9 17 -19 24 -10 8 -21 25 -23 38 -3
26 -22 33 -63 24z"/>
<path d="M7935 13890 c20 -23 29 -21 19 4 -3 9 -13 16 -22 16 -13 0 -12 -3 3
-20z"/>
<path d="M6716 13881 c-12 -13 -14 -21 -6 -26 16 -10 40 2 40 19 0 24 -16 27
-34 7z"/>
<path d="M6651 13880 c-17 -10 -7 -40 14 -40 16 0 20 17 7 37 -5 7 -13 9 -21
3z"/>
<path d="M6665 13810 c3 -6 -1 -13 -9 -16 -19 -7 -21 -30 -3 -38 6 -3 3 -4 -8
-1 -14 3 -30 -5 -48 -25 -25 -26 -33 -29 -67 -24 -24 4 -40 2 -45 -6 -9 -14
27 -50 52 -50 13 -1 11 -5 -9 -16 -28 -15 -38 -34 -18 -34 18 0 83 30 102 46
10 10 22 13 30 8 7 -5 21 -7 31 -6 9 2 17 -2 17 -7 0 -18 19 -12 31 10 10 19
8 20 -10 14 -23 -7 -26 1 -12 25 14 21 3 32 -20 19 -19 -9 -19 -9 -10 10 18
33 27 32 47 -4 19 -36 42 -49 29 -17 -4 9 -10 27 -12 40 -5 20 -15 26 -35 23
-5 0 -8 10 -8 23 0 13 -7 27 -16 30 -8 3 -12 2 -9 -4z m-1 -135 c3 -9 0 -15
-9 -15 -8 0 -15 7 -15 15 0 8 4 15 9 15 5 0 11 -7 15 -15z"/>
<path d="M6738 13803 c7 -3 16 -2 19 1 4 3 -2 6 -13 5 -11 0 -14 -3 -6 -6z"/>
<path d="M6750 13775 c0 -9 6 -12 15 -9 8 4 15 7 15 9 0 2 -7 5 -15 9 -9 3
-15 0 -15 -9z"/>
<path d="M6779 13754 c-7 -9 -12 -29 -11 -45 5 -43 -77 -153 -106 -142 -10 4
-13 2 -8 -5 4 -7 15 -12 24 -12 9 0 29 -12 44 -27 22 -21 28 -23 28 -10 0 9
-6 17 -14 17 -18 0 -28 27 -14 36 6 4 22 -5 34 -19 22 -26 42 -37 29 -17 -3 6
-4 14 -1 19 9 14 56 -12 56 -31 0 -22 23 -23 40 -3 7 8 23 15 36 15 19 0 24 5
24 24 0 13 7 26 15 30 16 6 21 26 7 26 -5 0 -18 -9 -30 -20 -18 -17 -25 -18
-41 -8 -16 10 -23 9 -39 -5 -21 -19 -38 -22 -47 -7 -10 16 14 40 41 40 12 0
26 5 29 10 4 7 13 7 26 0 15 -8 19 -7 19 4 0 21 31 28 50 11 9 -8 22 -15 28
-15 7 0 12 -7 12 -15 0 -8 -4 -15 -9 -15 -5 0 -14 -14 -21 -30 -7 -17 -21 -35
-31 -41 -11 -5 -19 -15 -19 -21 0 -7 4 -7 14 1 7 6 21 9 30 5 22 -8 21 -44 -1
-44 -14 0 -14 -3 -5 -12 9 -9 15 -10 20 -2 10 16 68 44 90 44 11 0 25 7 32 15
19 23 4 45 -30 45 -26 0 -34 -8 -32 -31 1 -3 -10 -4 -23 -1 -27 5 -35 22 -10
22 8 0 19 9 25 19 13 26 13 31 -5 31 -9 0 -12 6 -9 15 4 8 15 15 26 15 16 0
18 3 9 14 -17 20 -51 27 -51 10 0 -10 -10 -9 -42 8 -29 15 -43 18 -46 10 -2
-7 -10 -12 -19 -12 -11 0 -14 10 -12 42 4 49 -11 59 -28 21 -11 -22 -10 -29 2
-43 21 -23 19 -30 -10 -30 -24 0 -28 -3 -64 -50 -18 -23 -20 -24 -47 -10 -25
14 -26 15 -7 18 32 5 59 38 44 56 -9 11 -8 15 4 20 11 4 14 13 10 25 -7 22 10
38 21 20 8 -14 24 8 24 34 0 22 -42 23 -61 1z"/>
<path d="M8010 13740 c0 -5 7 -10 16 -10 8 0 12 5 9 10 -3 6 -10 10 -16 10 -5
0 -9 -4 -9 -10z"/>
<path d="M6416 13721 c-6 -9 23 -75 30 -69 2 2 1 21 -3 41 -5 36 -16 46 -27
28z"/>
<path d="M6358 13683 c-19 -5 -25 -33 -7 -33 17 0 49 20 49 30 0 10 -12 11
-42 3z"/>
<path d="M6460 13619 c0 -24 23 -21 28 4 2 10 -3 17 -12 17 -10 0 -16 -9 -16
-21z"/>
<path d="M8680 13632 c0 -10 22 -32 32 -32 4 0 8 9 8 20 0 13 -7 20 -20 20
-11 0 -20 -4 -20 -8z"/>
<path d="M6365 13600 c3 -5 8 -10 11 -10 2 0 4 5 4 10 0 6 -5 10 -11 10 -5 0
-7 -4 -4 -10z"/>
<path d="M8594 13586 c-3 -9 -10 -14 -14 -11 -13 8 -32 -23 -24 -37 5 -7 9
-19 9 -27 1 -46 51 2 57 54 3 31 -18 46 -28 21z"/>
<path d="M6403 13563 c-19 -7 -16 -33 3 -33 10 0 14 6 11 14 -3 8 -1 17 6 20
7 2 8 4 2 4 -5 0 -16 -2 -22 -5z"/>
<path d="M8737 13563 c-4 -3 -7 -16 -6 -27 0 -19 1 -19 10 3 10 24 8 36 -4 24z"/>
<path d="M6330 13541 c0 -5 5 -13 10 -16 6 -3 10 -2 10 4 0 5 -4 13 -10 16 -5
3 -10 2 -10 -4z"/>
<path d="M7150 13520 c0 -5 4 -10 9 -10 6 0 13 5 16 10 3 6 -1 10 -9 10 -9 0
-16 -4 -16 -10z"/>
<path d="M6370 13510 c0 -5 5 -10 10 -10 6 0 10 5 10 10 0 6 -4 10 -10 10 -5
0 -10 -4 -10 -10z"/>
<path d="M6415 13509 c-10 -15 18 -42 38 -37 13 2 12 7 -8 26 -16 15 -26 19
-30 11z"/>
<path d="M8620 13510 c-9 -6 -10 -10 -3 -10 6 0 15 5 18 10 8 12 4 12 -15 0z"/>
<path d="M6545 13490 c3 -5 8 -10 11 -10 2 0 4 5 4 10 0 6 -5 10 -11 10 -5 0
-7 -4 -4 -10z"/>
<path d="M8695 13478 c-9 -30 -12 -68 -5 -68 4 0 11 11 14 24 3 13 9 31 12 40
3 9 1 16 -5 16 -7 0 -13 -6 -16 -12z"/>
<path d="M6750 13470 c0 -5 5 -10 10 -10 6 0 10 5 10 10 0 6 -4 10 -10 10 -5
0 -10 -4 -10 -10z"/>
<path d="M6315 13460 c-3 -5 1 -10 9 -10 9 0 16 5 16 10 0 6 -4 10 -9 10 -6 0
-13 -4 -16 -10z"/>
<path d="M6520 13461 c0 -5 7 -11 15 -15 8 -3 15 -1 15 3 0 5 -7 11 -15 15 -8
3 -15 1 -15 -3z"/>
<path d="M6626 13434 c-4 -15 -4 -29 -1 -32 9 -10 48 35 41 47 -13 20 -34 12
-40 -15z"/>
<path d="M5922 13438 c6 -18 28 -21 28 -4 0 9 -7 16 -16 16 -9 0 -14 -5 -12
-12z"/>
<path d="M6268 13423 c-8 -10 -18 -27 -22 -37 -7 -19 -6 -19 13 -2 10 9 21 26
24 37 6 23 4 24 -15 2z"/>
<path d="M6370 13430 c0 -5 4 -10 9 -10 6 0 13 5 16 10 3 6 -1 10 -9 10 -9 0
-16 -4 -16 -10z"/>
<path d="M6460 13426 c0 -9 5 -16 10 -16 6 0 10 4 10 9 0 6 -4 13 -10 16 -5 3
-10 -1 -10 -9z"/>
<path d="M6511 13404 c13 -14 23 -29 21 -32 -2 -4 1 -8 7 -10 6 -2 11 1 11 7
0 6 7 11 15 11 26 0 16 17 -19 34 -50 24 -63 20 -35 -10z"/>
<path d="M5780 13409 c0 -5 5 -7 10 -4 6 3 10 8 10 11 0 2 -4 4 -10 4 -5 0
-10 -5 -10 -11z"/>
<path d="M6305 13409 c-4 -6 -5 -12 -2 -15 2 -3 7 2 10 11 7 17 1 20 -8 4z"/>
<path d="M6425 13410 c-3 -5 -1 -10 4 -10 6 0 11 5 11 10 0 6 -2 10 -4 10 -3
0 -8 -4 -11 -10z"/>
<path d="M7094 13394 c3 -9 6 -18 6 -20 0 -2 6 -4 13 -4 22 0 18 36 -5 37 -14
1 -18 -3 -14 -13z"/>
<path d="M6771 13381 c-18 -16 -27 -18 -40 -9 -14 8 -23 5 -47 -17 l-29 -27
43 7 c34 5 42 4 42 -8 0 -29 35 -6 47 31 6 20 10 38 9 39 -2 2 -13 -6 -25 -16z"/>
<path d="M8654 13363 c-9 -21 -20 -46 -25 -56 -5 -9 -6 -29 -3 -43 6 -23 9
-19 29 38 13 34 26 71 30 81 15 35 -16 16 -31 -20z"/>
<path d="M6380 13382 c0 -5 16 -14 35 -22 22 -9 35 -20 35 -32 0 -20 15 -24
26 -6 4 6 2 14 -4 16 -7 2 -12 13 -12 24 0 17 -4 19 -25 14 -14 -4 -25 -2 -25
4 0 5 -7 10 -15 10 -8 0 -15 -4 -15 -8z"/>
<path d="M6311 13353 c-15 -21 -23 -25 -29 -15 -6 9 -13 7 -28 -9 -16 -19 -16
-21 -2 -16 9 3 33 9 52 13 29 5 36 11 36 30 0 31 -4 30 -29 -3z"/>
<path d="M7165 13357 c-5 -12 -2 -24 9 -35 13 -13 16 -14 15 -2 0 8 -4 24 -9
35 -7 19 -8 19 -15 2z"/>
<path d="M6800 13332 c-14 -15 -40 -60 -40 -68 0 -2 9 -4 20 -4 14 0 20 -7 20
-21 0 -18 2 -19 15 -9 8 7 15 26 15 43 0 29 -1 30 -15 11 -15 -18 -15 -18 -13
6 2 19 11 26 38 32 45 9 80 1 73 -18 -8 -21 9 -16 34 9 l22 23 -29 -4 c-15 -2
-31 1 -34 7 -11 17 -89 13 -106 -7z"/>
<path d="M6384 13316 c-4 -10 -2 -22 4 -28 8 -8 13 -7 18 6 4 10 2 22 -4 28
-8 8 -13 7 -18 -6z"/>
<path d="M7025 13319 c-6 -9 -28 -29 -50 -44 l-40 -28 35 7 c42 8 73 37 68 62
-3 17 -5 17 -13 3z"/>
<path d="M5746 13313 c-12 -12 -6 -33 9 -33 8 0 15 6 15 14 0 17 -14 28 -24
19z"/>
<path d="M6060 13310 c0 -5 7 -10 15 -10 8 0 15 5 15 10 0 6 -7 10 -15 10 -8
0 -15 -4 -15 -10z"/>
<path d="M6130 13310 c20 -13 33 -13 25 0 -3 6 -14 10 -23 10 -15 0 -15 -2 -2
-10z"/>
<path d="M6860 13300 c0 -5 5 -10 11 -10 5 0 7 5 4 10 -3 6 -8 10 -11 10 -2 0
-4 -4 -4 -10z"/>
<path d="M7880 13300 c0 -5 5 -10 11 -10 5 0 7 5 4 10 -3 6 -8 10 -11 10 -2 0
-4 -4 -4 -10z"/>
<path d="M6330 13276 c0 -17 7 -26 26 -30 35 -9 39 -3 19 28 -22 33 -45 34
-45 2z"/>
<path d="M6725 13290 c3 -5 8 -10 11 -10 2 0 4 5 4 10 0 6 -5 10 -11 10 -5 0
-7 -4 -4 -10z"/>
<path d="M5885 13270 c3 -5 10 -10 16 -10 5 0 9 5 9 10 0 6 -7 10 -16 10 -8 0
-12 -4 -9 -10z"/>
<path d="M6093 13269 c-7 -7 -13 -21 -13 -31 0 -19 -15 -24 -24 -9 -3 4 -16 6
-30 4 -17 -4 -25 -13 -28 -34 -4 -27 -3 -28 12 -14 10 9 24 13 32 10 21 -8 70
42 66 67 -2 15 -5 17 -15 7z"/>
<path d="M6246 13273 c-3 -4 -6 -16 -6 -28 0 -29 -19 -45 -52 -45 -15 0 -28
-5 -28 -11 0 -5 12 -9 28 -8 44 3 62 0 62 -13 0 -6 10 -22 22 -35 19 -20 20
-26 8 -33 -24 -15 -7 -19 29 -6 19 6 44 24 55 39 20 27 20 29 4 41 -10 7 -18
18 -18 25 0 6 -4 11 -10 11 -14 0 -12 -28 3 -33 9 -3 9 -10 -2 -30 -16 -29
-31 -36 -31 -13 0 8 -6 16 -14 19 -9 4 -12 14 -9 26 12 47 -18 116 -41 94z"/>
<path d="M7144 13235 c-1 -37 2 -45 15 -43 9 2 18 14 19 27 l4 23 29 -28 c21
-20 32 -25 40 -17 8 8 4 15 -12 27 l-23 16 22 0 c13 0 34 -11 47 -25 15 -17
26 -22 30 -15 9 14 -13 40 -33 40 -8 0 -23 6 -31 14 -9 7 -36 16 -61 20 l-45
6 -1 -45z"/>
<path d="M7091 13251 c-8 -14 -7 -20 3 -24 13 -5 26 12 26 34 0 16 -19 10 -29
-10z"/>
<path d="M6460 13251 c0 -6 5 -13 10 -16 6 -3 10 1 10 9 0 9 -4 16 -10 16 -5
0 -10 -4 -10 -9z"/>
<path d="M6160 13236 c0 -9 7 -12 20 -9 31 8 34 23 6 23 -16 0 -26 -6 -26 -14z"/>
<path d="M5845 13230 c3 -5 8 -10 11 -10 2 0 4 5 4 10 0 6 -5 10 -11 10 -5 0
-7 -4 -4 -10z"/>
<path d="M6915 13230 c3 -5 11 -10 16 -10 6 0 7 5 4 10 -3 6 -11 10 -16 10 -6
0 -7 -4 -4 -10z"/>
<path d="M6436 13222 c-3 -6 -1 -14 5 -17 15 -10 25 3 12 16 -7 7 -13 7 -17 1z"/>
<path d="M6712 13216 c1 -10 8 -17 13 -17 15 1 12 24 -3 29 -9 3 -13 -2 -10
-12z"/>
<path d="M6822 13210 c-12 -10 -19 -21 -14 -24 11 -6 52 21 52 35 0 14 -12 10
-38 -11z"/>
<path d="M8604 13218 c-5 -7 -9 -21 -9 -30 -1 -10 -8 -26 -17 -35 -9 -11 -12
-28 -9 -46 5 -24 9 -18 32 48 14 41 22 75 18 75 -4 0 -11 -6 -15 -12z"/>
<path d="M5955 13211 c-6 -11 9 -23 19 -14 9 9 7 23 -3 23 -6 0 -12 -4 -16 -9z"/>
<path d="M6990 13213 c0 -17 27 -46 33 -36 4 6 -2 18 -13 28 -11 10 -20 14
-20 8z"/>
<path d="M6378 13203 c7 -3 16 -2 19 1 4 3 -2 6 -13 5 -11 0 -14 -3 -6 -6z"/>
<path d="M6630 13206 c0 -2 7 -7 16 -10 8 -3 12 -2 9 4 -6 10 -25 14 -25 6z"/>
<path d="M7105 13190 c-3 -5 -2 -10 4 -10 5 0 13 5 16 10 3 6 2 10 -4 10 -5 0
-13 -4 -16 -10z"/>
<path d="M6065 13180 c-3 -5 1 -10 9 -10 9 0 16 5 16 10 0 6 -4 10 -9 10 -6 0
-13 -4 -16 -10z"/>
<path d="M6752 13165 c-16 -19 -18 -25 -7 -25 8 0 19 9 25 21 17 30 7 33 -18
4z"/>
<path d="M7050 13180 c0 -5 7 -10 16 -10 8 0 12 5 9 10 -3 6 -10 10 -16 10 -5
0 -9 -4 -9 -10z"/>
<path d="M6612 13169 c2 -7 10 -15 17 -17 8 -3 12 1 9 9 -2 7 -10 15 -17 17
-8 3 -12 -1 -9 -9z"/>
<path d="M6958 13173 c7 -3 16 -2 19 1 4 3 -2 6 -13 5 -11 0 -14 -3 -6 -6z"/>
<path d="M7190 13165 c0 -8 7 -15 15 -15 8 0 15 7 15 15 0 8 -7 15 -15 15 -8
0 -15 -7 -15 -15z"/>
<path d="M7245 13170 c3 -5 8 -10 11 -10 2 0 4 5 4 10 0 6 -5 10 -11 10 -5 0
-7 -4 -4 -10z"/>
<path d="M7287 13173 c-3 -5 -8 -27 -12 -50 -8 -49 -19 -60 -41 -42 -18 15
-30 4 -39 -33 -5 -18 -3 -28 4 -28 6 0 11 -9 11 -20 0 -11 7 -20 15 -20 8 0
12 -6 9 -13 -6 -15 20 -41 36 -35 6 2 5 12 -3 28 -8 14 -12 31 -9 38 2 7 -5
12 -17 12 -15 0 -21 6 -21 21 0 16 4 19 21 14 15 -5 22 -2 26 13 3 12 11 23
19 26 9 3 13 17 12 34 -1 15 1 33 5 39 4 6 3 14 -2 17 -5 4 -12 3 -14 -1z"/>
<path d="M6570 13156 c0 -9 5 -16 10 -16 6 0 10 4 10 9 0 6 -4 13 -10 16 -5 3
-10 -1 -10 -9z"/>
<path d="M6670 13160 c0 -5 5 -10 10 -10 6 0 10 5 10 10 0 6 -4 10 -10 10 -5
0 -10 -4 -10 -10z"/>
<path d="M7100 13161 c0 -5 5 -13 10 -16 6 -3 10 -2 10 4 0 5 -4 13 -10 16 -5
3 -10 2 -10 -4z"/>
<path d="M6408 13146 c-24 -18 -22 -28 4 -24 13 2 24 11 26 21 4 20 -6 21 -30
3z"/>
<path d="M5810 13140 c-12 -7 -10 -11 10 -18 31 -12 39 -6 19 13 -9 9 -19 11
-29 5z"/>
<path d="M6100 13146 c0 -8 43 -46 52 -46 19 0 6 21 -22 35 -16 9 -30 13 -30
11z"/>
<path d="M6975 13140 c3 -5 8 -10 11 -10 2 0 4 5 4 10 0 6 -5 10 -11 10 -5 0
-7 -4 -4 -10z"/>
<path d="M7147 13143 c-12 -11 -8 -23 8 -23 8 0 15 7 15 15 0 16 -12 20 -23 8z"/>
<path d="M5745 13130 c-8 -13 3 -30 21 -30 18 0 18 14 0 29 -10 8 -16 9 -21 1z"/>
<path d="M6210 13123 c0 -5 5 -15 10 -23 9 -13 11 -13 19 0 5 8 7 18 5 22 -6
10 -34 11 -34 1z"/>
<path d="M6584 13116 c-8 -22 3 -33 18 -18 9 9 9 15 0 24 -9 9 -13 7 -18 -6z"/>
<path d="M6782 13118 c-18 -18 -15 -23 13 -23 17 0 25 5 23 14 -4 19 -21 24
-36 9z"/>
<path d="M6640 13100 c-6 -11 -8 -20 -5 -20 3 0 14 9 25 20 15 15 16 20 5 20
-8 0 -19 -9 -25 -20z"/>
<path d="M7060 13100 c0 -5 5 -10 10 -10 6 0 10 5 10 10 0 6 -4 10 -10 10 -5
0 -10 -4 -10 -10z"/>
<path d="M5553 13082 c1 -14 5 -18 11 -12 7 7 6 14 -1 21 -9 9 -12 7 -10 -9z"/>
<path d="M6717 13083 c-13 -12 -7 -23 13 -23 11 0 20 7 20 15 0 15 -21 21 -33
8z"/>
<path d="M5660 13055 c0 -9 5 -15 11 -13 6 2 11 8 11 13 0 5 -5 11 -11 13 -6
2 -11 -4 -11 -13z"/>
<path d="M7081 13009 c-17 -24 -29 -45 -26 -47 3 -3 6 -3 8 -1 2 2 15 21 31
42 15 21 26 40 23 43 -2 3 -19 -14 -36 -37z"/>
<path d="M5472 13004 c-7 -8 -10 -23 -7 -34 4 -14 2 -20 -9 -20 -8 0 -18 -5
-21 -10 -4 -7 7 -10 32 -9 48 3 57 8 43 24 -6 8 -14 25 -18 38 -6 21 -9 23
-20 11z"/>
<path d="M8557 13003 c-3 -5 -12 -35 -22 -68 -9 -33 -23 -67 -31 -76 -8 -9
-12 -18 -9 -21 3 -3 1 -16 -5 -29 -14 -31 2 -79 26 -79 11 0 14 5 9 18 -13 32
-12 91 2 96 7 3 13 18 13 33 0 15 7 52 14 81 13 48 14 64 3 45z"/>
<path d="M6965 12991 c-3 -5 -1 -12 5 -16 12 -7 30 2 30 16 0 12 -27 12 -35 0z"/>
<path d="M4660 12540 c0 -5 5 -10 10 -10 6 0 10 5 10 10 0 6 -4 10 -10 10 -5
0 -10 -4 -10 -10z"/>
<path d="M4360 12470 c0 -6 7 -10 15 -10 8 0 15 2 15 4 0 2 -7 6 -15 10 -8 3
-15 1 -15 -4z"/>
<path d="M4111 12372 c-23 -34 -18 -46 12 -29 32 18 62 47 50 47 -6 0 -18 3
-26 6 -9 3 -23 -6 -36 -24z"/>
<path d="M3352 12169 c2 -6 8 -10 13 -10 5 0 11 4 13 10 2 6 -4 11 -13 11 -9
0 -15 -5 -13 -11z"/>
</g>
</svg>
