<?xml version="1.0" standalone="no"?>
<!DOCTYPE svg PUBLIC "-//W3C//DTD SVG 20010904//EN"
 "http://www.w3.org/TR/2001/REC-SVG-20010904/DTD/svg10.dtd">
<svg version="1.0" xmlns="http://www.w3.org/2000/svg"
 width="1500.000000pt" height="3334.000000pt" viewBox="0 0 1500.000000 3334.000000"
 preserveAspectRatio="xMidYMid meet">

<g transform="translate(0.000000,3334.000000) scale(0.100000,-0.100000)"
fill="#000000" stroke="none">
<path d="M7240 21839 c-2139 -123 -3897 -1762 -4169 -3889 -88 -687 -15 -1391
215 -2050 442 -1272 1472 -2299 2748 -2739 1268 -438 2660 -288 3798 410 787
482 1415 1208 1776 2054 385 901 462 1930 216 2875 -277 1065 -933 1985 -1849
2597 -668 446 -1423 696 -2245 743 -205 11 -276 11 -490 -1z m725 -633 c539
-72 1008 -228 1445 -479 591 -339 1098 -846 1437 -1437 466 -811 617 -1801
418 -2726 -155 -720 -496 -1349 -1019 -1882 -632 -644 -1403 -1019 -2326
-1134 -141 -17 -699 -17 -840 0 -889 110 -1641 465 -2259 1067 -273 266 -488
540 -668 855 -466 811 -617 1801 -418 2726 155 720 496 1349 1019 1882 511
521 1123 870 1821 1042 216 53 359 76 640 104 96 9 645 -3 750 -18z"/>
</g>
</svg>
